<?xml version="1.0" encoding="UTF-8" standalone="no"?>
<!-- Generator: Adobe Illustrator 19.0.0, SVG Export Plug-In . SVG Version: 6.00 Build 0)  -->

<svg
   xmlns:dc="http://purl.org/dc/elements/1.1/"
   xmlns:cc="http://creativecommons.org/ns#"
   xmlns:rdf="http://www.w3.org/1999/02/22-rdf-syntax-ns#"
   xmlns:svg="http://www.w3.org/2000/svg"
   xmlns="http://www.w3.org/2000/svg"
   xmlns:sodipodi="http://sodipodi.sourceforge.net/DTD/sodipodi-0.dtd"
   xmlns:inkscape="http://www.inkscape.org/namespaces/inkscape"
   version="1.1"
   id="Capa_1"
   x="0px"
   y="0px"
   viewBox="0 0 64 64"
   xml:space="preserve"
   sodipodi:docname="folder_document.svg"
   width="64"
   height="64"
   inkscape:version="0.92.4 (unknown)"><metadata
   id="metadata57"><rdf:RDF><cc:Work
       rdf:about=""><dc:format>image/svg+xml</dc:format><dc:type
         rdf:resource="http://purl.org/dc/dcmitype/StillImage" /><dc:title></dc:title></cc:Work></rdf:RDF></metadata><defs
   id="defs55" /><sodipodi:namedview
   pagecolor="#ffffff"
   bordercolor="#666666"
   borderopacity="1"
   objecttolerance="10"
   gridtolerance="10"
   guidetolerance="10"
   inkscape:pageopacity="0"
   inkscape:pageshadow="2"
   inkscape:window-width="1920"
   inkscape:window-height="1016"
   id="namedview53"
   showgrid="false"
   inkscape:zoom="6.3974946"
   inkscape:cx="60.76545"
   inkscape:cy="21.026116"
   inkscape:window-x="0"
   inkscape:window-y="27"
   inkscape:window-maximized="1"
   inkscape:current-layer="Capa_1" />










<g
   id="g22"
   transform="translate(0,6)">
</g>
<g
   id="g24"
   transform="translate(0,6)">
</g>
<g
   id="g26"
   transform="translate(0,6)">
</g>
<g
   id="g28"
   transform="translate(0,6)">
</g>
<g
   id="g30"
   transform="translate(0,6)">
</g>
<g
   id="g32"
   transform="translate(0,6)">
</g>
<g
   id="g34"
   transform="translate(0,6)">
</g>
<g
   id="g36"
   transform="translate(0,6)">
</g>
<g
   id="g38"
   transform="translate(0,6)">
</g>
<g
   id="g40"
   transform="translate(0,6)">
</g>
<g
   id="g42"
   transform="translate(0,6)">
</g>
<g
   id="g44"
   transform="translate(0,6)">
</g>
<g
   id="g46"
   transform="translate(0,6)">
</g>
<g
   id="g48"
   transform="translate(0,6)">
</g>
<g
   id="g50"
   transform="translate(0,6)">
</g>
<g
   id="g890"
   transform="translate(0,6)"
   inkscape:export-filename="/var/www/chamilo11/app/Resources/public/css/themes/playschool/icons/64/folder_document.png"
   inkscape:export-xdpi="96"
   inkscape:export-ydpi="96"><g
     transform="matrix(1.0689654,0,0,1.0689654,1.0000814,-4.9999966)"
     id="g874"><path
       inkscape:connector-curvature="0"
       style="fill:#efce4a"
       d="M 46.324,52.5 H 1.565 c -1.03,0 -1.779,-0.978 -1.51,-1.973 L 10.221,22.656 C 10.405,21.974 11.024,21.5 11.731,21.5 H 56.49 c 1.03,0 1.51,0.984 1.51,1.973 L 47.834,51.344 C 47.65,52.026 47.031,52.5 46.324,52.5 Z"
       id="path2" /><path
       inkscape:connector-curvature="0"
       style="fill:#f4efdc"
       d="M 10.221,22.656 C 10.405,21.973 11.024,21.5 11.731,21.5 H 53 v -7 H 9 l -6,6 v 21.953 z"
       id="path4" /><path
       inkscape:connector-curvature="0"
       style="fill:#ebba16"
       d="M 23.571,10.5 20,5.5 H 1.732 C 0.776,5.5 0,6.275 0,7.232 V 49.96 c 0.069,0.002 0.138,0.006 0.205,0.01 L 3,42.349 V 20.5 l 2,-2 v -8 z"
       id="path6" /><polygon
       style="fill:#d1bf86"
       points="5,10.5 5,18.5 9,14.5 51,14.5 51,10.5 "
       id="polygon8" /><rect
       x="28"
       y="19.5"
       style="fill:#bfbaa5"
       width="2"
       height="2"
       id="rect10" /><rect
       x="35"
       y="19.5"
       style="fill:#bfbaa5"
       width="2"
       height="2"
       id="rect12" /><rect
       x="42"
       y="19.5"
       style="fill:#bfbaa5"
       width="2"
       height="2"
       id="rect14" /><rect
       x="14"
       y="19.5"
       style="fill:#bfbaa5"
       width="2"
       height="2"
       id="rect16" /><rect
       x="21"
       y="19.5"
       style="fill:#bfbaa5"
       width="2"
       height="2"
       id="rect18" /><polygon
       style="fill:#cec9ae"
       points="9,14.5 3,20.5 9,20.5 "
       id="polygon20" /></g><rect
     y="-6"
     x="0"
     height="64"
     width="64"
     id="rect876"
     style="opacity:0;fill:#e6e6e6;fill-opacity:1;stroke:none;stroke-width:1.9772687;stroke-linecap:square;stroke-linejoin:miter;stroke-miterlimit:4;stroke-dasharray:none;stroke-dashoffset:0;stroke-opacity:1;paint-order:stroke fill markers" /></g></svg>