<?xml version="1.0" encoding="UTF-8" standalone="no"?>
<!-- Created with Inkscape (http://www.inkscape.org/) -->

<svg
   xmlns:dc="http://purl.org/dc/elements/1.1/"
   xmlns:cc="http://creativecommons.org/ns#"
   xmlns:rdf="http://www.w3.org/1999/02/22-rdf-syntax-ns#"
   xmlns:svg="http://www.w3.org/2000/svg"
   xmlns="http://www.w3.org/2000/svg"
   xmlns:sodipodi="http://sodipodi.sourceforge.net/DTD/sodipodi-0.dtd"
   xmlns:inkscape="http://www.inkscape.org/namespaces/inkscape"
   width="64"
   height="64"
   viewBox="0 0 16.933333 16.933334"
   version="1.1"
   id="svg8"
   sodipodi:docname="links.svg"
   inkscape:version="0.92.4 (unknown)">
  <defs
     id="defs2" />
  <sodipodi:namedview
     id="base"
     pagecolor="#ffffff"
     bordercolor="#666666"
     borderopacity="1.0"
     inkscape:pageopacity="0.0"
     inkscape:pageshadow="2"
     inkscape:zoom="4.4023437"
     inkscape:cx="50.63594"
     inkscape:cy="30.810848"
     inkscape:document-units="mm"
     inkscape:current-layer="layer1"
     showgrid="false"
     units="px"
     inkscape:window-width="1920"
     inkscape:window-height="1016"
     inkscape:window-x="0"
     inkscape:window-y="27"
     inkscape:window-maximized="1" />
  <metadata
     id="metadata5">
    <rdf:RDF>
      <cc:Work
         rdf:about="">
        <dc:format>image/svg+xml</dc:format>
        <dc:type
           rdf:resource="http://purl.org/dc/dcmitype/StillImage" />
        <dc:title></dc:title>
      </cc:Work>
    </rdf:RDF>
  </metadata>
  <g
     inkscape:label="Capa 1"
     inkscape:groupmode="layer"
     id="layer1"
     transform="translate(0,-280.06665)">
    <g
       id="g997"
       transform="matrix(0.14638712,0,0,0.14638712,12.080214,2.7239428)">
</g>
    <g
       id="g999"
       transform="matrix(0.14638712,0,0,0.14638712,12.080214,2.7239428)">
</g>
    <g
       id="g1001"
       transform="matrix(0.14638712,0,0,0.14638712,12.080214,2.7239428)">
</g>
    <g
       id="g1003"
       transform="matrix(0.14638712,0,0,0.14638712,12.080214,2.7239428)">
</g>
    <g
       id="g1005"
       transform="matrix(0.14638712,0,0,0.14638712,12.080214,2.7239428)">
</g>
    <g
       id="g1007"
       transform="matrix(0.14638712,0,0,0.14638712,12.080214,2.7239428)">
</g>
    <g
       id="g1009"
       transform="matrix(0.14638712,0,0,0.14638712,12.080214,2.7239428)">
</g>
    <g
       id="g1011"
       transform="matrix(0.14638712,0,0,0.14638712,12.080214,2.7239428)">
</g>
    <g
       id="g1013"
       transform="matrix(0.14638712,0,0,0.14638712,12.080214,2.7239428)">
</g>
    <g
       id="g1015"
       transform="matrix(0.14638712,0,0,0.14638712,12.080214,2.7239428)">
</g>
    <g
       id="g1017"
       transform="matrix(0.14638712,0,0,0.14638712,12.080214,2.7239428)">
</g>
    <g
       id="g1019"
       transform="matrix(0.14638712,0,0,0.14638712,12.080214,2.7239428)">
</g>
    <g
       id="g1021"
       transform="matrix(0.14638712,0,0,0.14638712,12.080214,2.7239428)">
</g>
    <g
       id="g1023"
       transform="matrix(0.14638712,0,0,0.14638712,12.080214,2.7239428)">
</g>
    <g
       id="g1025"
       transform="matrix(0.14638712,0,0,0.14638712,12.080214,2.7239428)">
</g>
    <g
       id="g1351"
       transform="translate(-0.04469474,0.06118824)"
       inkscape:export-filename="/var/www/chamilo11/app/Resources/public/css/themes/playschool/icons/64/links.png"
       inkscape:export-xdpi="96"
       inkscape:export-ydpi="96">
      <rect
         inkscape:export-ydpi="96"
         inkscape:export-xdpi="96"
         y="280.00546"
         x="0.044694737"
         height="16.933332"
         width="16.933332"
         id="rect1162"
         style="opacity:0;fill:#c8b7b7;fill-opacity:1;stroke:none;stroke-width:0.0791475;stroke-linecap:square;stroke-linejoin:miter;stroke-miterlimit:4;stroke-dasharray:none;stroke-dashoffset:0;stroke-opacity:1;paint-order:stroke fill markers" />
      <g
         transform="matrix(0.03503436,0,0,0.03503436,0.38278951,280.34355)"
         id="g1337">
        <path
           style="fill:#83d8f4"
           inkscape:connector-curvature="0"
           d="M 375.96094,50.144531 C 374.91016,229.65234 229.65234,374.91016 50.144531,375.96094 105.55469,446.02344 196.27344,478.03906 283.38281,458.28125 370.49609,438.51953 438.51953,370.49609 458.28125,283.38281 478.03906,196.27344 446.02344,105.55469 375.96094,50.144531 Z m 0,0"
           id="path1299" />
        <path
           style="fill:#91dcf5"
           inkscape:connector-curvature="0"
           d="M 375.96094,50.144531 C 283.66016,-22.988281 151.19922,-15.339844 67.929688,67.929688 -15.339844,151.19922 -22.988281,283.66016 50.144531,375.96094 229.65234,374.91016 374.91016,229.65234 375.96094,50.144531 Z m 0,0"
           id="path1301" />
        <path
           style="fill:#00bb77"
           inkscape:connector-curvature="0"
           d="m 344.01562,96.015625 c -17.67968,8.000005 -27.4375,-1.4375 -40,8.000005 -15.51953,11.67968 -21.75781,41.92187 -8,63.99999 9.73829,15.55469 27.19922,19.45704 46.91407,23.76172 19.95312,-40.93359 31.125,-85.58203 32.80078,-131.08984 -5.81641,15.308594 -17.1211,27.902344 -31.71485,35.328125 z m 0,0"
           id="path1303" />
        <path
           style="fill:#00a468"
           inkscape:connector-curvature="0"
           d="m 378.48828,52.128906 c -0.72266,2.917969 -1.65625,5.777344 -2.79297,8.558594 -1.67187,45.50781 -12.84765,90.15625 -32.79687,131.08984 l 1.11718,0.23828 c 27.44141,6 38.08204,-6.71875 64,0 11.5625,3.31641 22.41016,8.74219 32,16 11.11329,9.16797 19.32813,21.36719 23.64063,35.11329 0.17578,-3.6875 0.35937,-7.375 0.35937,-11.11329 0.0625,-69.78906 -31.36328,-135.878901 -85.52734,-179.886714 z m 0,0"
           id="path1305" />
        <path
           style="fill:#00a468"
           inkscape:connector-curvature="0"
           d="m 224.01562,328.01562 c 15.83985,17.51954 20,47.1211 8,64 -9.75781,13.76172 -23.11718,9.03907 -32,24 -6.71875,12.48829 -6.71875,27.51563 0,40 1.23438,2.25782 2.70704,4.3711 4.39454,6.3125 9.16015,1.10547 18.3789,1.66797 27.60546,1.6875 84.60157,0.0234 162.5,-46.02343 203.27344,-120.15234 -14.55078,-9.73437 -37.28125,-22.61328 -59.27344,-23.84766 -22.53906,-2.20312 -45.14843,3.44922 -64,16 -23.59765,17.28125 -28.23828,41.76172 -40,40 -8.32031,-1.19921 -12.8789,-14.64062 -16,-24 -7.14453,-21.3125 -3.26953,-35.73437 -3.33593,-47.6875 -9.76953,7.81641 -19.97657,15.06641 -30.57422,21.71094 0.82422,0.8086 1.5039,1.52344 1.91015,1.97656 z m 0,0"
           id="path1307" />
        <path
           style="fill:#00bb77"
           inkscape:connector-curvature="0"
           d="m 248.01562,288.01562 c -8.23828,-11.51953 -23.59765,-13.67968 -40,-16 -34.39843,-4.80078 -47.91796,10 -64,0 -13.10546,-8.72656 -19.47265,-24.63671 -16,-40 6.72266,-20.07812 36.08204,-13.27734 72,-40 11.60157,-8.55859 39.19922,-29.11718 40,-56 0.80079,-26.32031 -24.8789,-33.83984 -32,-63.999995 -3.09375,-12.992187 2.67969,-42.871094 17.3125,-71.757813 C 139.20703,2.691406 61.535156,52.664062 23.617188,130.02344 v 0.0742 c -5.132813,28.42187 -4.996094,57.54687 0.398437,85.91796 4.882813,32.24219 9.359375,61.51954 32,88 9.921875,11.67969 25.199219,29.44141 48.000005,32 25.28124,2.80079 58.64062,-13.35937 63.99999,-16 7.16797,-4.70703 15.44141,-7.46484 24,-8 11.4375,0.73047 22.17969,5.73438 30.08985,14.02344 10.59765,-6.64453 20.80469,-13.89453 30.57422,-21.71094 0.26953,-5.80078 -1.36719,-11.53125 -4.66407,-16.3125 z m 0,0"
           id="path1309" />
        <path
           style="fill:#ff5023"
           inkscape:connector-curvature="0"
           d="m 168.01562,64.015625 c 0,35.359375 -63.99999,119.999995 -63.99999,119.999995 0,0 -39.917974,-52.80078 -56.718755,-92.398432 -4.136719,-8.664063 -6.605469,-18.027344 -7.28125,-27.601563 0,-35.34375 28.65625,-64 64.000005,-64 35.34765,0 63.99999,28.65625 63.99999,64 z m 0,0"
           id="path1311" />
        <path
           style="fill:#f1f2f2"
           inkscape:connector-curvature="0"
           d="m 128.01562,56.015625 c 0,13.253906 -10.74609,24 -23.99999,24 -13.253911,0 -24.000005,-10.746094 -24.000005,-24 0,-13.253906 10.746094,-24 24.000005,-24 13.2539,0 23.99999,10.746094 23.99999,24 z m 0,0"
           id="path1313" />
        <path
           style="fill:#ffcd00"
           inkscape:connector-curvature="0"
           d="m 408.01562,280.01562 c -1.75781,15.00391 -6.63671,29.47266 -14.32031,42.48047 -14.67969,26.9961 -31.28125,52.90235 -49.67969,77.51953 0,0 -20.96093,-27.75781 -38.96093,-58.16015 -6.63282,-11.02735 -12.56641,-22.46485 -17.75782,-34.23828 -4.13671,-8.66407 -6.60546,-18.02735 -7.28125,-27.60157 0,-35.34375 28.65625,-64 64,-64 35.34766,0 64,28.65625 64,64 z m 0,0"
           id="path1315" />
        <path
           style="fill:#f1f2f2"
           inkscape:connector-curvature="0"
           d="m 368.01562,272.01562 c 0,13.25391 -10.74609,24 -24,24 -13.2539,0 -24,-10.74609 -24,-24 0,-13.2539 10.7461,-24 24,-24 13.25391,0 24,10.7461 24,24 z m 0,0"
           id="path1317" />
      </g>
    </g>
  </g>
</svg>
