<?xml version="1.0" encoding="UTF-8" standalone="no"?>
<!-- Created with Inkscape (http://www.inkscape.org/) -->

<svg
   xmlns:dc="http://purl.org/dc/elements/1.1/"
   xmlns:cc="http://creativecommons.org/ns#"
   xmlns:rdf="http://www.w3.org/1999/02/22-rdf-syntax-ns#"
   xmlns:svg="http://www.w3.org/2000/svg"
   xmlns="http://www.w3.org/2000/svg"
   xmlns:sodipodi="http://sodipodi.sourceforge.net/DTD/sodipodi-0.dtd"
   xmlns:inkscape="http://www.inkscape.org/namespaces/inkscape"
   width="64"
   height="64"
   viewBox="0 0 16.933333 16.933334"
   version="1.1"
   id="svg8"
   inkscape:version="0.92.4 (unknown)"
   sodipodi:docname="scorms.svg">
  <defs
     id="defs2" />
  <sodipodi:namedview
     id="base"
     pagecolor="#ffffff"
     bordercolor="#666666"
     borderopacity="1.0"
     inkscape:pageopacity="0.0"
     inkscape:pageshadow="2"
     inkscape:zoom="3.1129271"
     inkscape:cx="113.5114"
     inkscape:cy="63.953627"
     inkscape:document-units="mm"
     inkscape:current-layer="layer1"
     showgrid="false"
     units="px"
     inkscape:window-width="1920"
     inkscape:window-height="1016"
     inkscape:window-x="0"
     inkscape:window-y="27"
     inkscape:window-maximized="1" />
  <metadata
     id="metadata5">
    <rdf:RDF>
      <cc:Work
         rdf:about="">
        <dc:format>image/svg+xml</dc:format>
        <dc:type
           rdf:resource="http://purl.org/dc/dcmitype/StillImage" />
        <dc:title></dc:title>
      </cc:Work>
    </rdf:RDF>
  </metadata>
  <g
     inkscape:label="Capa 1"
     inkscape:groupmode="layer"
     id="layer1"
     transform="translate(0,-280.06665)">
    <g
       id="g997"
       transform="matrix(0.14638712,0,0,0.14638712,12.080214,2.7239428)">
</g>
    <g
       id="g999"
       transform="matrix(0.14638712,0,0,0.14638712,12.080214,2.7239428)">
</g>
    <g
       id="g1001"
       transform="matrix(0.14638712,0,0,0.14638712,12.080214,2.7239428)">
</g>
    <g
       id="g1003"
       transform="matrix(0.14638712,0,0,0.14638712,12.080214,2.7239428)">
</g>
    <g
       id="g1005"
       transform="matrix(0.14638712,0,0,0.14638712,12.080214,2.7239428)">
</g>
    <g
       id="g1007"
       transform="matrix(0.14638712,0,0,0.14638712,12.080214,2.7239428)">
</g>
    <g
       id="g1009"
       transform="matrix(0.14638712,0,0,0.14638712,12.080214,2.7239428)">
</g>
    <g
       id="g1011"
       transform="matrix(0.14638712,0,0,0.14638712,12.080214,2.7239428)">
</g>
    <g
       id="g1013"
       transform="matrix(0.14638712,0,0,0.14638712,12.080214,2.7239428)">
</g>
    <g
       id="g1015"
       transform="matrix(0.14638712,0,0,0.14638712,12.080214,2.7239428)">
</g>
    <g
       id="g1017"
       transform="matrix(0.14638712,0,0,0.14638712,12.080214,2.7239428)">
</g>
    <g
       id="g1019"
       transform="matrix(0.14638712,0,0,0.14638712,12.080214,2.7239428)">
</g>
    <g
       id="g1021"
       transform="matrix(0.14638712,0,0,0.14638712,12.080214,2.7239428)">
</g>
    <g
       id="g1023"
       transform="matrix(0.14638712,0,0,0.14638712,12.080214,2.7239428)">
</g>
    <g
       id="g1025"
       transform="matrix(0.14638712,0,0,0.14638712,12.080214,2.7239428)">
</g>
    <g
       id="g1188"
       transform="translate(-5.6696696,273.45032)">
      <rect
         inkscape:export-ydpi="96"
         inkscape:export-xdpi="96"
         y="6.6163287"
         x="5.6696696"
         height="16.933332"
         width="16.933332"
         id="rect1162"
         style="opacity:0;fill:#c8b7b7;fill-opacity:1;stroke:none;stroke-width:0.0791475;stroke-linecap:square;stroke-linejoin:miter;stroke-miterlimit:4;stroke-dasharray:none;stroke-dashoffset:0;stroke-opacity:1;paint-order:stroke fill markers" />
      <g
         inkscape:export-ydpi="96"
         inkscape:export-xdpi="96"
         transform="matrix(0.21388418,0,0,0.21388418,4.8461307,5.9942235)"
         id="g1160">
        <g
           id="g1136"
           transform="translate(-5.779662,9.1794632)">
          <path
             id="path969"
             d="m 85.774418,41.393564 c 0.83426,-0.484687 1.251903,-1.119422 1.253806,-1.755035 l 0.0022,-0.739255 c 0,0.01859 -0.0016,0.03718 -0.0025,0.05577 0.02723,-0.661963 -0.395831,-1.329927 -1.271226,-1.835402 L 47.381907,14.963955 c -1.690771,-0.976255 -4.42294,-0.97567 -6.102001,0 l -29.19208,16.964657 -0.0076,8.547252 44.504466,25.690207 v -0.739255 0 0.739255 L 85.768123,49.202 c 0.834553,-0.484981 1.252342,-1.119569 1.254099,-1.754889 l 0.0022,-0.739255 c 0,0.01859 -0.0016,0.03733 -0.0025,0.05592 0.02737,-0.662109 -0.395977,-1.329927 -1.271519,-1.835548 l -1.449525,-0.836895 0.0025,-1.842721 z"
             style="fill:#820018;stroke-width:0.14638712"
             inkscape:connector-curvature="0" />
          <g
             transform="matrix(0.14638712,0,0,0.14638712,12.080214,2.7239428)"
             id="g975"
             style="enable-background:new">
	<polygon
   id="polygon971"
   points="304.019,428.336 304.019,433.386 0,257.891 0.015,252.841 "
   style="fill:#d07400" />

	<path
   id="path973"
   d="m 503.256,288.306 c 11.55,6.669 11.611,17.477 0.136,24.146 L 304.019,428.336 0.015,252.841 199.426,136.956 c 11.475,-6.669 30.134,-6.669 41.684,0 z"
   style="fill:#a50020"
   inkscape:connector-curvature="0" />

</g>
          <g
             transform="matrix(0.14638712,0,0,0.14638712,12.080214,2.7239428)"
             id="g979"
             style="enable-background:new">
	<path
   id="path977"
   d="M 484.825,266.322 300.417,373.474 v 48.289 L 484.763,314.611 c 5.699,-3.311 8.552,-7.647 8.565,-11.989 l 0.063,-48.289 c -0.013,4.342 -2.867,8.676 -8.566,11.989 z"
   style="fill:#e0e0e2"
   inkscape:connector-curvature="0" />

</g>
          <path
             id="path981"
             d="m 85.756705,37.119646 c 1.690771,0.976256 1.698969,2.558701 0.01991,3.534663 L 56.58468,57.618674 12.087826,31.928612 41.279906,14.963955 c 1.679061,-0.97567 4.41123,-0.976255 6.102001,0 z"
             style="fill:#c60024;stroke-width:0.14638712"
             inkscape:connector-curvature="0" />
          <polygon
             transform="matrix(0.14638712,0,0,0.14638712,12.080214,2.7239428)"
             id="polygon983"
             points="0.052,199.503 0,257.891 304.019,433.386 304.019,374.997 "
             style="fill:#a50020" />
          <path
             id="path985"
             d="m 85.774418,41.393564 c 0.83426,-0.484687 1.251903,-1.119422 1.253806,-1.755035 l 0.0022,-0.739255 c -0.0019,0.635613 -0.419545,1.270201 -1.253805,1.755035 L 56.58468,57.618674 v 8.547397 L 85.768123,49.202 c 0.834553,-0.484981 1.252342,-1.119569 1.254099,-1.754889 l 0.0022,-0.739255 c -0.0019,0.63532 -0.419546,1.270055 -1.254099,1.754889 l -28.613412,16.63148 v -7.068888 z"
             style="fill:#820018;stroke-width:0.14638712"
             inkscape:connector-curvature="0" />
          <polyline
             transform="matrix(0.14638712,0,0,0.14638712,12.080214,2.7239428)"
             id="polyline987"
             points="347.923,370.534 326.344,382.992 326.476,429.602 337.239,414.008 348.056,417.142   347.923,370.534 "
             style="fill:#005ecf" />
        </g>
        <g
           id="g1124"
           transform="translate(-5.779662,9.1794632)">
          <path
             inkscape:connector-curvature="0"
             style="fill:#820018;stroke-width:0.14638712"
             d="m 85.094458,27.624369 c 0.83426,-0.484687 1.251903,-1.119422 1.253806,-1.755035 l 0.0022,-0.739255 c 0,0.01859 -0.0016,0.03718 -0.0025,0.05577 0.02723,-0.661963 -0.395831,-1.329927 -1.271226,-1.835402 L 46.701947,1.1947602 c -1.690771,-0.97625504 -4.42294,-0.97567004 -6.102001,0 l -29.19208,16.9646568 -0.0076,8.547252 44.504466,25.690207 v -0.739255 0 0.739255 L 85.088163,35.432805 c 0.834553,-0.484981 1.252342,-1.119569 1.254099,-1.754889 l 0.0022,-0.739255 c 0,0.01859 -0.0016,0.03733 -0.0025,0.05592 0.02737,-0.662109 -0.395977,-1.329927 -1.271519,-1.835548 l -1.449525,-0.836895 0.0025,-1.842721 z"
             id="path1094" />
          <g
             style="fill:#214478;enable-background:new"
             id="g1100"
             transform="matrix(0.14638712,0,0,0.14638712,11.400254,-11.045252)">
	<polygon
   style="fill:#214478"
   points="304.019,433.386 0,257.891 0.015,252.841 304.019,428.336 "
   id="polygon1096" />

	<path
   inkscape:connector-curvature="0"
   style="fill:#214478"
   d="m 503.256,288.306 c 11.55,6.669 11.611,17.477 0.136,24.146 L 304.019,428.336 0.015,252.841 199.426,136.956 c 11.475,-6.669 30.134,-6.669 41.684,0 z"
   id="path1098" />

</g>
          <g
             style="enable-background:new"
             id="g1104"
             transform="matrix(0.14638712,0,0,0.14638712,11.400254,-11.045252)">
	<path
   inkscape:connector-curvature="0"
   style="fill:#e0e0e2"
   d="M 484.825,266.322 300.417,373.474 v 48.289 L 484.763,314.611 c 5.699,-3.311 8.552,-7.647 8.565,-11.989 l 0.063,-48.289 c -0.013,4.342 -2.867,8.676 -8.566,11.989 z"
   id="path1102" />

</g>
          <path
             inkscape:connector-curvature="0"
             style="fill:#3771c8;stroke-width:0.14638712"
             d="m 85.076745,23.350451 c 1.690771,0.976256 1.698969,2.558701 0.01991,3.534663 L 55.90472,43.849479 11.407866,18.159417 40.599946,1.1947602 c 1.679061,-0.97567004 4.41123,-0.97625504 6.102001,0 z"
             id="path1106" />
          <polygon
             style="fill:#2c5aa0"
             points="0,257.891 304.019,433.386 304.019,374.997 0.052,199.503 "
             id="polygon1108"
             transform="matrix(0.14638712,0,0,0.14638712,11.400254,-11.045252)" />
          <path
             inkscape:connector-curvature="0"
             style="fill:#214478;stroke-width:0.14638712"
             d="m 85.094458,27.624369 c 0.83426,-0.484687 1.251903,-1.119422 1.253806,-1.755035 l 0.0022,-0.739255 c -0.0019,0.635613 -0.419545,1.270201 -1.253805,1.755035 L 55.90472,43.849479 v 8.547397 L 85.088163,35.432805 c 0.834553,-0.484981 1.252342,-1.119569 1.254099,-1.754889 l 0.0022,-0.739255 c -0.0019,0.63532 -0.419546,1.270055 -1.254099,1.754889 L 56.476951,51.32503 v -7.068888 z"
             id="path1110" />
          <polyline
             style="fill:#ffcc00"
             points="347.923,370.534 326.344,382.992 326.476,429.602 337.239,414.008 348.056,417.142   347.923,370.534 "
             id="polyline1112"
             transform="matrix(0.14638712,0,0,0.14638712,11.400254,-11.045252)" />
        </g>
      </g>
    </g>
  </g>
</svg>
