<?xml version="1.0" encoding="UTF-8" standalone="no"?>
<!-- Created with Inkscape (http://www.inkscape.org/) -->

<svg
   xmlns:dc="http://purl.org/dc/elements/1.1/"
   xmlns:cc="http://creativecommons.org/ns#"
   xmlns:rdf="http://www.w3.org/1999/02/22-rdf-syntax-ns#"
   xmlns:svg="http://www.w3.org/2000/svg"
   xmlns="http://www.w3.org/2000/svg"
   xmlns:sodipodi="http://sodipodi.sourceforge.net/DTD/sodipodi-0.dtd"
   xmlns:inkscape="http://www.inkscape.org/namespaces/inkscape"
   width="300"
   height="120"
   viewBox="0 0 79.374998 31.750001"
   version="1.1"
   id="svg8"
   inkscape:version="0.92.4 (unknown)"
   sodipodi:docname="logo.svg">
  <defs
     id="defs2">
    <clipPath
       id="clipPath858"
       clipPathUnits="userSpaceOnUse">
      <path
         inkscape:connector-curvature="0"
         id="path856"
         d="M 0,595.276 H 841.89 V 0 H 0 Z" />
    </clipPath>
  </defs>
  <sodipodi:namedview
     id="base"
     pagecolor="#ffffff"
     bordercolor="#666666"
     borderopacity="1.0"
     inkscape:pageopacity="0.0"
     inkscape:pageshadow="2"
     inkscape:zoom="3.1129271"
     inkscape:cx="147.27261"
     inkscape:cy="53.809422"
     inkscape:document-units="mm"
     inkscape:current-layer="layer1"
     showgrid="false"
     units="px"
     inkscape:window-width="1920"
     inkscape:window-height="1016"
     inkscape:window-x="0"
     inkscape:window-y="27"
     inkscape:window-maximized="1" />
  <metadata
     id="metadata5">
    <rdf:RDF>
      <cc:Work
         rdf:about="">
        <dc:format>image/svg+xml</dc:format>
        <dc:type
           rdf:resource="http://purl.org/dc/dcmitype/StillImage" />
        <dc:title></dc:title>
      </cc:Work>
    </rdf:RDF>
  </metadata>
  <g
     inkscape:label="Capa 1"
     inkscape:groupmode="layer"
     id="layer1"
     transform="translate(0,-265.24998)">
    <g
       id="g1135"
       transform="translate(-0.52365023,0.66874221)">
      <rect
         y="264.58124"
         x="0.52365023"
         height="31.75"
         width="79.375"
         id="rect1061"
         style="opacity:0;fill:#c8b7b7;fill-opacity:1;stroke:none;stroke-width:0.62881112;stroke-linecap:square;stroke-linejoin:miter;stroke-miterlimit:4;stroke-dasharray:none;stroke-dashoffset:0;stroke-opacity:1;paint-order:stroke fill markers" />
      <g
         id="g842"
         inkscape:label="INOBI LOGO"
         transform="matrix(0.1736673,0,0,-0.1736673,-38.234977,332.14616)">
        <path
           d="m 284.161,250.844 h -23.697 v 124.492 h 23.697 z"
           style="fill:#54b4c0;fill-opacity:1;fill-rule:nonzero;stroke:none"
           id="path844"
           inkscape:connector-curvature="0" />
        <path
           d="m 642.943,250.844 h -23.696 v 124.492 h 23.696 z"
           style="fill:#216ab1;fill-opacity:1;fill-rule:nonzero;stroke:none"
           id="path846"
           inkscape:connector-curvature="0" />
        <g
           id="g848"
           transform="translate(404.2651,290.6555)">
          <path
             d="m 0,0 -81.319,84.681 h -23.697 V -39.812 h 23.697 V 54.971 L 0,-26.349 Z"
             style="fill:#54b4c0;fill-opacity:1;fill-rule:nonzero;stroke:none"
             id="path850"
             inkscape:connector-curvature="0" />
        </g>
        <g
           id="g852">
          <g
             id="g854"
             clip-path="url(#clipPath858)">
            <g
               id="g860"
               transform="translate(573.0469,270.552)">
              <path
                 d="m 0,0 -31.33,0.018 v 35.47 H -6.014 C 3.452,35.079 11.006,26.971 11.006,17.024 11.006,9.397 6.555,2.867 0.215,0.045 0.147,0.015 0.074,0 0,0 m -6.229,84.739 c 0.157,0 0.314,-0.016 0.467,-0.05 7.109,-1.556 12.429,-7.885 12.429,-15.46 0,-7.6 -5.355,-13.947 -12.498,-15.478 -0.121,-0.025 -0.244,-0.038 -0.367,-0.038 H -31.33 V 84.739 Z M 13.739,45.953 c 9.23,5.531 15.409,15.628 15.409,27.172 0,17.485 -14.174,31.659 -31.66,31.659 H -31.33 -47.814 -55.026 V -19.708 h 8.525 15.171 31.442 c 18.244,0 33.035,15.384 33.035,34.361 0,13.922 -7.964,25.9 -19.408,31.3"
                 style="fill:#216ab1;fill-opacity:1;fill-rule:nonzero;stroke:none"
                 id="path862"
                 inkscape:connector-curvature="0" />
            </g>
            <g
               id="g864"
               transform="translate(444.2227,378.9685)">
              <path
                 d="m 0,0 c -30.165,0 -55.465,-20.783 -62.393,-48.808 l 18.597,-18.174 c -0.054,0.895 -0.091,1.794 -0.091,2.703 0,24.237 19.649,43.886 43.887,43.886 24.237,0 43.886,-19.649 43.886,-43.886 0,-24.238 -19.649,-43.887 -43.886,-43.887 -11.478,0 -21.921,4.411 -29.741,11.623 v -24.717 c 8.895,-4.653 19.007,-7.298 29.741,-7.298 35.5,0 64.278,28.779 64.278,64.279 C 64.278,-28.779 35.5,0 0,0"
                 style="fill:#216ab1;fill-opacity:1;fill-rule:nonzero;stroke:none"
                 id="path866"
                 inkscape:connector-curvature="0" />
            </g>
            <path
               d="m 264.567,216.561 h -2.189 v 15.559 h 2.189 z"
               style="fill:#276579;fill-opacity:1;fill-rule:nonzero;stroke:none"
               id="path868"
               inkscape:connector-curvature="0" />
            <g
               id="g870"
               transform="translate(268.5693,224.7102)">
              <path
                 d="M 0,0 C 0,1.154 -0.025,2.101 -0.101,3.023 H 1.863 L 1.989,1.177 h 0.05 c 0.604,1.061 2.014,2.1 4.027,2.1 1.687,0 4.305,-0.923 4.305,-4.755 V -8.149 H 8.155 v 6.44 c 0,1.801 -0.729,3.301 -2.819,3.301 -1.46,0 -2.592,-0.946 -2.97,-2.077 -0.101,-0.253 -0.151,-0.6 -0.151,-0.947 V -8.149 H 0 Z"
                 style="fill:#276579;fill-opacity:1;fill-rule:nonzero;stroke:none"
                 id="path872"
                 inkscape:connector-curvature="0" />
            </g>
            <g
               id="g874"
               transform="translate(282.2378,218.6389)">
              <path
                 d="m 0,0 c 0.654,-0.393 1.812,-0.809 2.919,-0.809 1.611,0 2.367,0.74 2.367,1.663 0,0.969 -0.63,1.5 -2.265,2.054 -2.19,0.716 -3.223,1.824 -3.223,3.163 0,1.8 1.586,3.278 4.204,3.278 1.233,0 2.315,-0.323 2.995,-0.693 L 6.444,7.18 C 5.965,7.456 5.084,7.825 3.952,7.825 2.643,7.825 1.913,7.133 1.913,6.302 1.913,5.379 2.643,4.963 4.229,4.409 6.343,3.67 7.425,2.7 7.425,1.039 c 0,-1.963 -1.661,-3.348 -4.556,-3.348 -1.334,0 -2.567,0.3 -3.423,0.762 z"
                 style="fill:#276579;fill-opacity:1;fill-rule:nonzero;stroke:none"
                 id="path876"
                 inkscape:connector-curvature="0" />
            </g>
            <g
               id="g878"
               transform="translate(295.1753,230.9426)">
              <path
                 d="M 0,0 V -3.209 H 3.172 V -4.755 H 0 v -6.025 c 0,-1.385 0.428,-2.17 1.662,-2.17 0.579,0 1.006,0.069 1.283,0.137 l 0.101,-1.523 c -0.428,-0.161 -1.108,-0.276 -1.963,-0.276 -1.032,0 -1.863,0.299 -2.392,0.853 -0.629,0.601 -0.856,1.594 -0.856,2.909 v 6.095 h -1.888 v 1.546 h 1.888 v 2.678 z"
                 style="fill:#276579;fill-opacity:1;fill-rule:nonzero;stroke:none"
                 id="path880"
                 inkscape:connector-curvature="0" />
            </g>
            <path
               d="m 300.839,227.734 h 2.215 v -11.173 h -2.215 z m 2.467,3.139 c 0.025,-0.692 -0.529,-1.247 -1.41,-1.247 -0.78,0 -1.334,0.555 -1.334,1.247 0,0.716 0.579,1.27 1.385,1.27 0.83,0 1.359,-0.554 1.359,-1.27"
               style="fill:#276579;fill-opacity:1;fill-rule:nonzero;stroke:none"
               id="path882"
               inkscape:connector-curvature="0" />
            <g
               id="g884"
               transform="translate(309.3975,230.9426)">
              <path
                 d="M 0,0 V -3.209 H 3.171 V -4.755 H 0 v -6.025 c 0,-1.385 0.428,-2.17 1.661,-2.17 0.579,0 1.007,0.069 1.284,0.137 l 0.101,-1.523 c -0.428,-0.161 -1.108,-0.276 -1.964,-0.276 -1.032,0 -1.863,0.299 -2.391,0.853 -0.629,0.601 -0.856,1.594 -0.856,2.909 v 6.095 h -1.888 v 1.546 h 1.888 v 2.678 z"
                 style="fill:#276579;fill-opacity:1;fill-rule:nonzero;stroke:none"
                 id="path886"
                 inkscape:connector-curvature="0" />
            </g>
            <g
               id="g888"
               transform="translate(325.2549,219.6076)">
              <path
                 d="m 0,0 c 0,-1.153 0.025,-2.17 0.101,-3.047 h -1.964 l -0.125,1.823 h -0.051 c -0.579,-0.899 -1.863,-2.077 -4.027,-2.077 -1.913,0 -4.204,0.97 -4.204,4.895 v 6.532 h 2.215 V 1.939 c 0,-2.123 0.705,-3.554 2.719,-3.554 1.485,0 2.517,0.946 2.919,1.846 0.126,0.3 0.202,0.669 0.202,1.04 V 8.126 H 0 Z"
                 style="fill:#276579;fill-opacity:1;fill-rule:nonzero;stroke:none"
                 id="path890"
                 inkscape:connector-curvature="0" />
            </g>
            <g
               id="g892"
               transform="translate(331.5986,230.9426)">
              <path
                 d="M 0,0 V -3.209 H 3.171 V -4.755 H 0 v -6.025 c 0,-1.385 0.428,-2.17 1.661,-2.17 0.579,0 1.007,0.069 1.284,0.137 l 0.101,-1.523 c -0.428,-0.161 -1.108,-0.276 -1.963,-0.276 -1.033,0 -1.863,0.299 -2.392,0.853 -0.629,0.601 -0.856,1.594 -0.856,2.909 v 6.095 h -1.888 v 1.546 h 1.888 v 2.678 z"
                 style="fill:#276579;fill-opacity:1;fill-rule:nonzero;stroke:none"
                 id="path894"
                 inkscape:connector-curvature="0" />
            </g>
            <g
               id="g896"
               transform="translate(338.4707,222.1242)">
              <path
                 d="m 0,0 c 0,-2.446 1.535,-4.294 3.7,-4.294 2.114,0 3.7,1.824 3.7,4.341 C 7.4,1.939 6.368,4.34 3.75,4.34 1.133,4.34 0,2.124 0,0 m 9.666,0.115 c 0,-4.132 -3.122,-5.932 -6.067,-5.932 -3.297,0 -5.839,2.216 -5.839,5.748 0,3.74 2.668,5.932 6.04,5.932 3.499,0 5.866,-2.331 5.866,-5.748"
                 style="fill:#276579;fill-opacity:1;fill-rule:nonzero;stroke:none"
                 id="path898"
                 inkscape:connector-curvature="0" />
            </g>
            <g
               id="g900"
               transform="translate(364.5728,223.1857)">
              <path
                 d="m 0,0 c 0,0.255 -0.025,0.601 -0.101,0.854 -0.327,1.293 -1.535,2.356 -3.197,2.356 -2.29,0 -3.649,-1.848 -3.649,-4.317 0,-2.263 1.208,-4.132 3.599,-4.132 1.485,0 2.845,0.9 3.247,2.424 C -0.025,-2.538 0,-2.262 0,-1.938 Z M 2.215,9.765 V -3.739 c 0,-0.992 0.025,-2.123 0.1,-2.886 H 0.327 l -0.1,1.939 H 0.176 c -0.679,-1.246 -2.165,-2.193 -4.153,-2.193 -2.945,0 -5.211,2.285 -5.211,5.679 -0.025,3.717 2.492,6.002 5.463,6.002 1.862,0 3.121,-0.808 3.675,-1.708 H 0 v 6.671 z"
                 style="fill:#276579;fill-opacity:1;fill-rule:nonzero;stroke:none"
                 id="path902"
                 inkscape:connector-curvature="0" />
            </g>
            <g
               id="g904"
               transform="translate(378.1904,223.2326)">
              <path
                 d="M 0,0 C 0.025,1.292 -0.579,3.301 -3.071,3.301 -5.311,3.301 -6.292,1.408 -6.469,0 Z m -6.494,-1.455 c 0.051,-2.747 1.964,-3.877 4.179,-3.877 1.586,0 2.542,0.253 3.373,0.577 L 1.435,-6.21 c -0.78,-0.323 -2.115,-0.692 -4.053,-0.692 -3.75,0 -5.99,2.261 -5.99,5.632 0,3.371 2.165,6.025 5.713,6.025 3.978,0 5.035,-3.209 5.035,-5.263 0,-0.416 -0.051,-0.739 -0.076,-0.947 z"
                 style="fill:#276579;fill-opacity:1;fill-rule:nonzero;stroke:none"
                 id="path906"
                 inkscape:connector-curvature="0" />
            </g>
            <g
               id="g908"
               transform="translate(389.8198,224.2482)">
              <path
                 d="m 0,0 c 0,-3.324 1.963,-6.302 5.412,-6.302 3.473,0 5.437,2.932 5.437,6.463 0,3.094 -1.762,6.325 -5.412,6.325 C 1.812,6.486 0,3.417 0,0 m 13.165,0.253 c 0,-5.355 -3.55,-8.194 -7.879,-8.194 -4.481,0 -7.627,3.185 -7.627,7.894 0,4.942 3.348,8.172 7.879,8.172 4.631,0 7.627,-3.254 7.627,-7.872"
                 style="fill:#276579;fill-opacity:1;fill-rule:nonzero;stroke:none"
                 id="path910"
                 inkscape:connector-curvature="0" />
            </g>
            <g
               id="g912"
               transform="translate(405.7534,224.2482)">
              <path
                 d="M 0,0 C 0,1.315 -0.025,2.447 -0.101,3.485 H 1.837 L 1.913,1.293 h 0.101 c 0.553,1.5 1.887,2.446 3.373,2.446 0.251,0 0.427,-0.022 0.629,-0.068 V 1.754 C 5.789,1.801 5.563,1.824 5.261,1.824 3.7,1.824 2.592,0.738 2.291,-0.785 2.24,-1.062 2.19,-1.385 2.19,-1.731 V -7.687 H 0 Z"
                 style="fill:#276579;fill-opacity:1;fill-rule:nonzero;stroke:none"
                 id="path914"
                 inkscape:connector-curvature="0" />
            </g>
            <g
               id="g916"
               transform="translate(417.2568,230.9426)">
              <path
                 d="M 0,0 V -3.209 H 3.171 V -4.755 H 0 v -6.025 c 0,-1.385 0.428,-2.17 1.661,-2.17 0.579,0 1.007,0.069 1.284,0.137 l 0.1,-1.523 c -0.427,-0.161 -1.107,-0.276 -1.963,-0.276 -1.032,0 -1.863,0.299 -2.391,0.853 -0.629,0.601 -0.856,1.594 -0.856,2.909 v 6.095 h -1.888 v 1.546 h 1.888 v 2.678 z"
                 style="fill:#276579;fill-opacity:1;fill-rule:nonzero;stroke:none"
                 id="path918"
                 inkscape:connector-curvature="0" />
            </g>
            <g
               id="g920"
               transform="translate(424.1289,222.1242)">
              <path
                 d="m 0,0 c 0,-2.446 1.535,-4.294 3.699,-4.294 2.115,0 3.7,1.824 3.7,4.341 C 7.399,1.939 6.368,4.34 3.75,4.34 1.133,4.34 0,2.124 0,0 m 9.665,0.115 c 0,-4.132 -3.121,-5.932 -6.065,-5.932 -3.298,0 -5.841,2.216 -5.841,5.748 0,3.74 2.669,5.932 6.041,5.932 3.499,0 5.865,-2.331 5.865,-5.748"
                 style="fill:#276579;fill-opacity:1;fill-rule:nonzero;stroke:none"
                 id="path922"
                 inkscape:connector-curvature="0" />
            </g>
            <g
               id="g924"
               transform="translate(444.8945,223.1857)">
              <path
                 d="m 0,0 c 0,0.255 -0.025,0.601 -0.101,0.854 -0.327,1.293 -1.535,2.356 -3.196,2.356 -2.291,0 -3.65,-1.848 -3.65,-4.317 0,-2.263 1.208,-4.132 3.599,-4.132 1.486,0 2.845,0.9 3.247,2.424 C -0.025,-2.538 0,-2.262 0,-1.938 Z M 2.215,9.765 V -3.739 c 0,-0.992 0.025,-2.123 0.1,-2.886 H 0.327 l -0.1,1.939 H 0.176 c -0.679,-1.246 -2.164,-2.193 -4.153,-2.193 -2.945,0 -5.211,2.285 -5.211,5.679 -0.025,3.717 2.493,6.002 5.463,6.002 1.863,0 3.121,-0.808 3.675,-1.708 H 0 v 6.671 z"
                 style="fill:#276579;fill-opacity:1;fill-rule:nonzero;stroke:none"
                 id="path926"
                 inkscape:connector-curvature="0" />
            </g>
            <g
               id="g928"
               transform="translate(452.1445,222.1242)">
              <path
                 d="m 0,0 c 0,-2.446 1.535,-4.294 3.7,-4.294 2.114,0 3.7,1.824 3.7,4.341 C 7.4,1.939 6.368,4.34 3.75,4.34 1.133,4.34 0,2.124 0,0 m 9.666,0.115 c 0,-4.132 -3.122,-5.932 -6.066,-5.932 -3.298,0 -5.84,2.216 -5.84,5.748 0,3.74 2.668,5.932 6.041,5.932 3.498,0 5.865,-2.331 5.865,-5.748"
                 style="fill:#276579;fill-opacity:1;fill-rule:nonzero;stroke:none"
                 id="path930"
                 inkscape:connector-curvature="0" />
            </g>
            <g
               id="g932"
               transform="translate(464.6045,224.7102)">
              <path
                 d="M 0,0 C 0,1.154 -0.025,2.101 -0.102,3.023 H 1.862 L 1.988,1.177 h 0.05 c 0.605,1.061 2.015,2.1 4.027,2.1 1.687,0 4.305,-0.923 4.305,-4.755 V -8.149 H 8.155 v 6.44 c 0,1.801 -0.73,3.301 -2.819,3.301 -1.46,0 -2.593,-0.946 -2.971,-2.077 -0.1,-0.253 -0.15,-0.6 -0.15,-0.947 V -8.149 H 0 Z"
                 style="fill:#276579;fill-opacity:1;fill-rule:nonzero;stroke:none"
                 id="path934"
                 inkscape:connector-curvature="0" />
            </g>
            <g
               id="g936"
               transform="translate(487.2578,216.9768)">
              <path
                 d="m 0,0 c -0.578,-0.277 -1.862,-0.646 -3.498,-0.646 -3.676,0 -6.066,2.285 -6.066,5.701 0,3.44 2.567,5.933 6.544,5.933 1.309,0 2.466,-0.3 3.071,-0.577 L -0.453,8.842 c -0.528,0.276 -1.359,0.53 -2.567,0.53 -2.793,0 -4.304,-1.893 -4.304,-4.225 0,-2.584 1.812,-4.177 4.228,-4.177 1.259,0 2.089,0.3 2.719,0.553 z"
                 style="fill:#276579;fill-opacity:1;fill-rule:nonzero;stroke:none"
                 id="path938"
                 inkscape:connector-curvature="0" />
            </g>
            <path
               d="m 489.852,227.734 h 2.215 v -11.173 h -2.215 z m 2.465,3.139 c 0.026,-0.692 -0.528,-1.247 -1.409,-1.247 -0.78,0 -1.334,0.555 -1.334,1.247 0,0.716 0.579,1.27 1.385,1.27 0.83,0 1.358,-0.554 1.358,-1.27"
               style="fill:#276579;fill-opacity:1;fill-rule:nonzero;stroke:none"
               id="path940"
               inkscape:connector-curvature="0" />
            <g
               id="g942"
               transform="translate(502.1602,222.2629)">
              <path
                 d="m 0,0 c -2.417,0.046 -5.16,-0.346 -5.16,-2.516 0,-1.316 0.956,-1.94 2.089,-1.94 1.586,0 2.592,0.924 2.945,1.871 C -0.051,-2.378 0,-2.146 0,-1.938 Z M 0.327,-5.702 0.15,-4.294 H 0.075 c -0.679,-0.877 -1.988,-1.662 -3.725,-1.662 -2.467,0 -3.726,1.594 -3.726,3.209 0,2.701 2.618,4.179 7.325,4.155 v 0.231 c 0,0.924 -0.276,2.586 -2.768,2.586 -1.133,0 -2.316,-0.324 -3.172,-0.831 l -0.503,1.338 c 1.007,0.601 2.467,0.993 4.002,0.993 3.725,0 4.632,-2.331 4.632,-4.571 v -4.178 c 0,-0.969 0.049,-1.915 0.201,-2.678 z"
                 style="fill:#276579;fill-opacity:1;fill-rule:nonzero;stroke:none"
                 id="path944"
                 inkscape:connector-curvature="0" />
            </g>
            <g
               id="g946"
               transform="translate(515.4756,218.0842)">
              <path
                 d="m 0,0 c 0.428,-0.069 1.057,-0.092 1.838,-0.092 2.265,0 4.354,0.762 4.354,3.025 0,2.123 -1.989,3.001 -4.38,3.001 L 0,5.934 Z m 0,7.457 h 1.988 c 2.316,0 3.675,1.107 3.675,2.607 0,1.825 -1.51,2.54 -3.726,2.54 -1.005,0 -1.584,-0.069 -1.937,-0.138 z m -2.189,6.371 c 0.956,0.185 2.465,0.323 4.001,0.323 2.19,0 3.599,-0.346 4.657,-1.131 0.881,-0.6 1.409,-1.524 1.409,-2.748 0,-1.5 -1.082,-2.815 -2.869,-3.416 V 6.811 C 6.62,6.44 8.508,5.217 8.508,2.909 8.508,1.57 7.929,0.555 7.072,-0.207 5.89,-1.2 3.977,-1.661 1.208,-1.661 c -1.51,0 -2.668,0.092 -3.397,0.183 z"
                 style="fill:#276579;fill-opacity:1;fill-rule:nonzero;stroke:none"
                 id="path948"
                 inkscape:connector-curvature="0" />
            </g>
            <path
               d="m 526.853,227.734 h 2.215 v -11.173 h -2.215 z m 2.466,3.139 c 0.026,-0.692 -0.528,-1.247 -1.409,-1.247 -0.78,0 -1.334,0.555 -1.334,1.247 0,0.716 0.579,1.27 1.385,1.27 0.83,0 1.358,-0.554 1.358,-1.27"
               style="fill:#276579;fill-opacity:1;fill-rule:nonzero;stroke:none"
               id="path950"
               inkscape:connector-curvature="0" />
            <g
               id="g952"
               transform="translate(534.1025,222.1242)">
              <path
                 d="m 0,0 c 0,-2.446 1.535,-4.294 3.699,-4.294 2.115,0 3.7,1.824 3.7,4.341 C 7.399,1.939 6.368,4.34 3.75,4.34 1.133,4.34 0,2.124 0,0 m 9.665,0.115 c 0,-4.132 -3.121,-5.932 -6.065,-5.932 -3.298,0 -5.84,2.216 -5.84,5.748 0,3.74 2.668,5.932 6.041,5.932 3.498,0 5.864,-2.331 5.864,-5.748"
                 style="fill:#276579;fill-opacity:1;fill-rule:nonzero;stroke:none"
                 id="path954"
                 inkscape:connector-curvature="0" />
            </g>
            <g
               id="g956"
               transform="translate(546.7881,216.5607)">
              <path
                 d="m 0,0 v 9.627 h -1.711 v 1.546 H 0 v 0.531 c 0,1.569 0.378,3.001 1.41,3.901 0.83,0.739 1.939,1.04 2.97,1.04 0.781,0 1.46,-0.163 1.888,-0.324 l -0.302,-1.57 c -0.327,0.139 -0.78,0.255 -1.409,0.255 -1.888,0 -2.367,-1.524 -2.367,-3.233 v -0.6 H 5.136 V 9.627 H 2.19 V 0 Z"
                 style="fill:#276579;fill-opacity:1;fill-rule:nonzero;stroke:none"
                 id="path958"
                 inkscape:connector-curvature="0" />
            </g>
            <g
               id="g960"
               transform="translate(564.1064,219.6076)">
              <path
                 d="m 0,0 c 0,-1.153 0.025,-2.17 0.101,-3.047 h -1.964 l -0.126,1.823 h -0.05 c -0.579,-0.899 -1.863,-2.077 -4.027,-2.077 -1.913,0 -4.204,0.97 -4.204,4.895 v 6.532 h 2.215 V 1.939 c 0,-2.123 0.704,-3.554 2.718,-3.554 1.485,0 2.518,0.946 2.92,1.846 0.126,0.3 0.202,0.669 0.202,1.04 V 8.126 H 0 Z"
                 style="fill:#276579;fill-opacity:1;fill-rule:nonzero;stroke:none"
                 id="path962"
                 inkscape:connector-curvature="0" />
            </g>
            <g
               id="g964"
               transform="translate(567.7812,224.7102)">
              <path
                 d="M 0,0 C 0,1.154 -0.024,2.101 -0.101,3.023 H 1.863 L 1.989,1.177 h 0.05 c 0.605,1.061 2.014,2.1 4.027,2.1 1.687,0 4.305,-0.923 4.305,-4.755 V -8.149 H 8.155 v 6.44 c 0,1.801 -0.729,3.301 -2.818,3.301 -1.46,0 -2.593,-0.946 -2.971,-2.077 -0.1,-0.253 -0.151,-0.6 -0.151,-0.947 V -8.149 H 0 Z"
                 style="fill:#276579;fill-opacity:1;fill-rule:nonzero;stroke:none"
                 id="path966"
                 inkscape:connector-curvature="0" />
            </g>
            <g
               id="g968"
               transform="translate(590.4355,216.9768)">
              <path
                 d="m 0,0 c -0.579,-0.277 -1.862,-0.646 -3.498,-0.646 -3.675,0 -6.066,2.285 -6.066,5.701 0,3.44 2.566,5.933 6.543,5.933 1.31,0 2.467,-0.3 3.072,-0.577 L -0.453,8.842 c -0.528,0.276 -1.359,0.53 -2.568,0.53 -2.793,0 -4.304,-1.893 -4.304,-4.225 0,-2.584 1.812,-4.177 4.229,-4.177 1.258,0 2.089,0.3 2.719,0.553 z"
                 style="fill:#276579;fill-opacity:1;fill-rule:nonzero;stroke:none"
                 id="path970"
                 inkscape:connector-curvature="0" />
            </g>
            <path
               d="m 593.028,227.734 h 2.216 v -11.173 h -2.216 z m 2.467,3.139 c 0.026,-0.692 -0.528,-1.247 -1.409,-1.247 -0.78,0 -1.334,0.555 -1.334,1.247 0,0.716 0.579,1.27 1.384,1.27 0.831,0 1.359,-0.554 1.359,-1.27"
               style="fill:#276579;fill-opacity:1;fill-rule:nonzero;stroke:none"
               id="path972"
               inkscape:connector-curvature="0" />
            <g
               id="g974"
               transform="translate(600.2783,222.1242)">
              <path
                 d="M 0,0 C 0,-2.446 1.535,-4.294 3.699,-4.294 5.814,-4.294 7.4,-2.47 7.4,0.047 7.4,1.939 6.368,4.34 3.75,4.34 1.132,4.34 0,2.124 0,0 m 9.665,0.115 c 0,-4.132 -3.121,-5.932 -6.066,-5.932 -3.297,0 -5.839,2.216 -5.839,5.748 0,3.74 2.668,5.932 6.041,5.932 3.499,0 5.864,-2.331 5.864,-5.748"
                 style="fill:#276579;fill-opacity:1;fill-rule:nonzero;stroke:none"
                 id="path976"
                 inkscape:connector-curvature="0" />
            </g>
            <g
               id="g978"
               transform="translate(612.7373,224.7102)">
              <path
                 d="M 0,0 C 0,1.154 -0.024,2.101 -0.101,3.023 H 1.862 L 1.989,1.177 h 0.05 c 0.605,1.061 2.014,2.1 4.028,2.1 1.686,0 4.304,-0.923 4.304,-4.755 V -8.149 H 8.155 v 6.44 c 0,1.801 -0.729,3.301 -2.818,3.301 -1.46,0 -2.593,-0.946 -2.971,-2.077 -0.1,-0.253 -0.15,-0.6 -0.15,-0.947 V -8.149 H 0 Z"
                 style="fill:#276579;fill-opacity:1;fill-rule:nonzero;stroke:none"
                 id="path980"
                 inkscape:connector-curvature="0" />
            </g>
            <g
               id="g982"
               transform="translate(633.127,222.2629)">
              <path
                 d="m 0,0 c -2.417,0.046 -5.16,-0.346 -5.16,-2.516 0,-1.316 0.957,-1.94 2.089,-1.94 1.586,0 2.592,0.924 2.945,1.871 C -0.051,-2.378 0,-2.146 0,-1.938 Z M 0.327,-5.702 0.15,-4.294 H 0.076 c -0.68,-0.877 -1.989,-1.662 -3.725,-1.662 -2.467,0 -3.726,1.594 -3.726,3.209 0,2.701 2.618,4.179 7.324,4.155 v 0.231 c 0,0.924 -0.276,2.586 -2.768,2.586 -1.133,0 -2.316,-0.324 -3.172,-0.831 l -0.503,1.338 c 1.007,0.601 2.467,0.993 4.002,0.993 3.725,0 4.632,-2.331 4.632,-4.571 v -4.178 c 0,-0.969 0.049,-1.915 0.201,-2.678 z"
                 style="fill:#276579;fill-opacity:1;fill-rule:nonzero;stroke:none"
                 id="path984"
                 inkscape:connector-curvature="0" />
            </g>
            <path
               d="m 638.841,232.95 h 2.215 v -16.39 h -2.215 z"
               style="fill:#276579;fill-opacity:1;fill-rule:nonzero;stroke:none"
               id="path986"
               inkscape:connector-curvature="0" />
          </g>
        </g>
      </g>
    </g>
  </g>
</svg>
