<?xml version="1.0" encoding="UTF-8" standalone="no"?>
<!-- Created with Inkscape (http://www.inkscape.org/) -->

<svg
   xmlns:dc="http://purl.org/dc/elements/1.1/"
   xmlns:cc="http://creativecommons.org/ns#"
   xmlns:rdf="http://www.w3.org/1999/02/22-rdf-syntax-ns#"
   xmlns:svg="http://www.w3.org/2000/svg"
   xmlns="http://www.w3.org/2000/svg"
   xmlns:xlink="http://www.w3.org/1999/xlink"
   xmlns:sodipodi="http://sodipodi.sourceforge.net/DTD/sodipodi-0.dtd"
   xmlns:inkscape="http://www.inkscape.org/namespaces/inkscape"
   width="300"
   height="120"
   viewBox="0 0 79.374998 31.750001"
   version="1.1"
   id="svg8"
   inkscape:version="0.92.4 (unknown)"
   sodipodi:docname="logo.svg">
  <defs
     id="defs2">
    <clipPath
       id="clipPath850"
       clipPathUnits="userSpaceOnUse">
      <path
         inkscape:connector-curvature="0"
         id="path848"
         d="M 0,1500 H 1650 V 0 H 0 Z" />
    </clipPath>
    <clipPath
       id="clipPath866"
       clipPathUnits="userSpaceOnUse">
      <path
         inkscape:connector-curvature="0"
         id="path864"
         d="M 0,1500 H 1650 V 0 H 0 Z" />
    </clipPath>
    <radialGradient
       r="26.825636"
       fy="-31.930895"
       fx="349.03531"
       cy="-31.930895"
       cx="349.03531"
       gradientTransform="matrix(1.3011069,4.9162298e-7,-4.7329928e-7,1.2526118,-353.2331,105.88549)"
       gradientUnits="userSpaceOnUse"
       id="radialGradient18952"
       xlink:href="#linearGradient2111"
       inkscape:collect="always" />
    <linearGradient
       id="linearGradient2111"
       inkscape:collect="always">
      <stop
         id="stop2107"
         offset="0"
         style="stop-color:#7adeff;stop-opacity:1" />
      <stop
         id="stop2109"
         offset="1"
         style="stop-color:#0040aa;stop-opacity:1" />
    </linearGradient>
    <linearGradient
       y2="-20.842403"
       x2="362.24802"
       y1="-34.736309"
       x1="340.18842"
       gradientTransform="matrix(1.0191503,0,0,1.0191503,24.969026,1.9032868)"
       gradientUnits="userSpaceOnUse"
       id="linearGradient18954"
       xlink:href="#linearGradient2119"
       inkscape:collect="always" />
    <linearGradient
       id="linearGradient2119"
       inkscape:collect="always">
      <stop
         id="stop2115"
         offset="0"
         style="stop-color:#fe3b29;stop-opacity:1;" />
      <stop
         id="stop2117"
         offset="1"
         style="stop-color:#ff8f28;stop-opacity:1" />
    </linearGradient>
    <clipPath
       id="clipPath2268"
       clipPathUnits="userSpaceOnUse">
      <path
         d="m 378.36295,-31.930909 c 0,-16.197188 -13.13048,-29.327644 -29.32763,-29.327644 -16.19716,0 -29.32764,13.130456 -29.32764,29.327644 0,16.197181 13.13048,29.3276764 29.32764,29.3276764 16.19715,0 29.32763,-13.1304954 29.32763,-29.3276764"
         style="fill:url(#radialGradient2272);fill-opacity:1;fill-rule:evenodd;stroke:none;stroke-width:0.37822074"
         id="path2270"
         inkscape:connector-curvature="0" />
    </clipPath>
    <linearGradient
       inkscape:collect="always"
       xlink:href="#linearGradient2141"
       id="linearGradient3627"
       gradientUnits="userSpaceOnUse"
       gradientTransform="translate(-27.623385,-3.0598211)"
       x1="246.65115"
       y1="-41.905697"
       x2="283.84949"
       y2="-41.905697" />
    <linearGradient
       id="linearGradient2141"
       inkscape:collect="always">
      <stop
         id="stop2137"
         offset="0"
         style="stop-color:#fc5b29;stop-opacity:1" />
      <stop
         id="stop2139"
         offset="1"
         style="stop-color:#fd9326;stop-opacity:1" />
    </linearGradient>
    <linearGradient
       gradientTransform="matrix(0.26458333,0,0,0.26458333,0.12157048,0)"
       gradientUnits="userSpaceOnUse"
       y2="751.12891"
       x2="474.69727"
       y1="751.12891"
       x1="264.85352"
       id="linearGradient5820"
       xlink:href="#linearGradient5818"
       inkscape:collect="always" />
    <linearGradient
       id="linearGradient5818"
       inkscape:collect="always">
      <stop
         id="stop5814"
         offset="0"
         style="stop-color:#0060e6;stop-opacity:1" />
      <stop
         id="stop5816"
         offset="1"
         style="stop-color:#52d9ff;stop-opacity:1" />
    </linearGradient>
    <linearGradient
       gradientTransform="translate(0,0.52916667)"
       gradientUnits="userSpaceOnUse"
       y2="205.58784"
       x2="125.98389"
       y1="205.58784"
       x1="69.93206"
       id="linearGradient5882"
       xlink:href="#linearGradient5818"
       inkscape:collect="always" />
    <linearGradient
       inkscape:collect="always"
       xlink:href="#linearGradient2141"
       id="linearGradient4651"
       gradientUnits="userSpaceOnUse"
       gradientTransform="translate(-27.623385,-3.0598211)"
       x1="246.65115"
       y1="-41.905697"
       x2="283.84949"
       y2="-41.905697" />
  </defs>
  <sodipodi:namedview
     id="base"
     pagecolor="#ffffff"
     bordercolor="#666666"
     borderopacity="1.0"
     inkscape:pageopacity="0.0"
     inkscape:pageshadow="2"
     inkscape:zoom="2.4471742"
     inkscape:cx="163.47747"
     inkscape:cy="54.827944"
     inkscape:document-units="mm"
     inkscape:current-layer="layer1"
     showgrid="false"
     units="px"
     inkscape:window-width="1920"
     inkscape:window-height="1016"
     inkscape:window-x="0"
     inkscape:window-y="27"
     inkscape:window-maximized="1" />
  <metadata
     id="metadata5">
    <rdf:RDF>
      <cc:Work
         rdf:about="">
        <dc:format>image/svg+xml</dc:format>
        <dc:type
           rdf:resource="http://purl.org/dc/dcmitype/StillImage" />
        <dc:title />
      </cc:Work>
    </rdf:RDF>
  </metadata>
  <g
     inkscape:label="Capa 1"
     inkscape:groupmode="layer"
     id="layer1"
     transform="translate(0,-265.24998)">
    <g
       id="g4679"
       transform="translate(0.76451302,0.42277053)">
      <rect
         y="264.82721"
         x="-0.76451302"
         height="31.75"
         width="79.375"
         id="rect999"
         style="opacity:0;fill:#cccccc;fill-opacity:1;stroke:none;stroke-width:0.47084451;stroke-linecap:square;stroke-linejoin:miter;stroke-miterlimit:4;stroke-dasharray:none;stroke-dashoffset:0;stroke-opacity:1;paint-order:stroke fill markers" />
      <g
         transform="matrix(0.95333331,0,0,0.95333331,-44.978305,88.050282)"
         inkscape:export-ydpi="96"
         inkscape:export-xdpi="96"
         inkscape:export-filename="/home/aragonc/Escritorio/logo_consultorio_neuropsi.png"
         id="g5914">
        <rect
           style="opacity:0;fill:#f2f2f2;fill-opacity:1;stroke:none;stroke-width:0.74348092;stroke-linecap:round;stroke-linejoin:round;stroke-miterlimit:4;stroke-dasharray:none;stroke-dashoffset:0;stroke-opacity:1;paint-order:stroke fill markers"
           id="rect5627"
           width="79.375"
           height="25.4"
           x="48.32085"
           y="189.38243" />
        <g
           id="g18806"
           transform="matrix(0.3352885,0,0,0.3352885,25.585987,179.99072)"
           inkscape:export-xdpi="96.000023"
           inkscape:export-ydpi="96.000023"
           inkscape:export-filename="/var/www/neuropsi/wp-content/uploads/2020/01/banner_01_psicologia.png">
          <path
             inkscape:connector-curvature="0"
             id="path18772"
             style="fill:#24358b;fill-opacity:1;fill-rule:evenodd;stroke:none;stroke-width:0.38568133"
             d="m 131.91216,65.888644 c 0,-17.12816 -13.88499,-31.01322 -31.01322,-31.01322 -17.1282,0 -31.01319,13.88506 -31.01319,31.01322 0,17.12814 13.88499,31.013253 31.01319,31.013253 17.12823,0 31.01322,-13.885113 31.01322,-31.013253" />
          <path
             inkscape:connector-curvature="0"
             id="path18774"
             style="fill:url(#radialGradient18952);fill-opacity:1;fill-rule:evenodd;stroke:none;stroke-width:0.37822074"
             d="m 130.22659,65.888644 c 0,-16.19719 -13.13049,-29.327644 -29.32765,-29.327644 -16.19715,0 -29.32762,13.130454 -29.32762,29.327644 0,16.19718 13.13047,29.327676 29.32762,29.327676 16.19716,0 29.32765,-13.130496 29.32765,-29.327676" />
          <g
             transform="matrix(-0.99535626,0,0,0.99535626,480.1142,96.751971)"
             id="g18782">
            <path
               sodipodi:nodetypes="ccccccccccccccccccccccsccccccccccccccccccccccccccccccccccccccccccccccccccccccc"
               inkscape:connector-curvature="0"
               style="fill:#ffffff;fill-opacity:1;fill-rule:evenodd;stroke:none;stroke-width:0.35953367"
               d="m 379.00647,-43.711667 c -0.21995,3.13e-4 -0.4677,0.01 -0.74255,0.04577 -1.79707,0.06846 -3.43799,0.366088 -4.96436,0.658863 -0.003,3.93e-4 -0.005,0.0016 -0.008,0.002 -2.3368,0.302799 -4.04209,1.16538 -5.43213,2.651386 -0.31491,0.336673 -0.52551,0.628739 -0.71064,0.903697 -0.23253,0.148828 -0.41996,0.347265 -0.62302,0.52749 -0.0435,0.01778 -0.0854,0.03907 -0.1254,0.06365 -0.28712,0.181033 -0.61296,0.409061 -0.97935,0.698675 -0.88445,0.699106 -1.57382,1.569097 -2.01642,2.593658 -0.38252,0.886054 -0.57381,1.849136 -0.66682,2.762854 -0.0855,0.840766 -0.11233,1.752338 0.20304,2.683233 l -0.044,-0.224929 c -0.005,-0.08505 -0.002,-0.157626 -0.004,-0.0083 -0.002,0.149668 0.0414,0.308484 0.0782,0.40408 10e-4,0.004 0.003,0.008 0.004,0.01192 0.0181,0.0452 0.0302,0.07145 0.042,0.0975 0.0928,0.623129 0.20178,1.338475 0.56131,2.123891 0.004,0.0067 0.007,0.01332 0.011,0.01991 0.0343,0.07218 0.0519,0.102827 0.0699,0.131373 0.0446,0.105758 0.0968,0.233577 0.18315,0.402086 0.50574,0.991342 1.27733,1.751116 2.09603,2.40655 1.03984,2.246758 1.55502,2.774066 3.09187,4.087195 2.21519,1.892719 5.68971,0.913449 7.01834,0.601607 0.65911,2.462713 5.16673,1.886867 6.31761,1.022383 0.14179,-0.04381 0.27148,-0.08833 0.39016,-0.139338 0.4879,0.119479 0.93536,0.176106 1.3157,0.151281 0.58158,0.252459 1.2368,0.468239 2.01242,0.491661 0.46563,0.01396 1.06166,-0.02508 1.67402,-0.296589 0.58157,-0.257695 0.99416,-0.633815 1.30782,-0.947491 0.42453,-0.424553 0.52742,-0.826028 0.67077,-1.20825 0.30765,-0.05472 0.61055,-0.13392 0.9137,-0.228912 0.006,-6e-4 0.0124,-0.0013 0.0186,-0.002 0.23469,-0.02444 0.49302,-0.05712 0.78623,-0.107493 1.7308,-0.297623 3.34267,-0.967708 4.67776,-1.887024 1.32425,-0.911889 2.49778,-2.128561 2.97383,-3.738213 6.9e-4,-0.0034 0.001,-0.0068 0.002,-0.01027 0.009,-0.03338 0.0167,-0.06729 0.022,-0.101552 0.006,-0.03124 0.015,-0.06203 0.02,-0.09359 l -0.011,0.05577 c 9.1e-4,-0.0052 0.005,-0.02475 0.011,-0.04577 l 0.002,-0.0035 c -6.7e-4,0.0035 0.011,-0.02234 0.0357,-0.131374 6.7e-4,-0.0018 10e-4,-0.0036 0.002,-0.0054 v -0.0083 c 0.002,-0.01018 2.7e-4,-0.01876 0.002,-0.02982 7.2e-4,-0.0027 0.003,-0.0078 0.004,-0.01027 l -0.004,0.03583 c 0.007,-0.03355 0.0111,-0.06746 0.0137,-0.101553 0.004,-0.0183 0.006,-0.03502 0.008,-0.04973 0.006,-0.04242 0.0173,-0.09028 0.022,-0.143318 v -0.002 c 0.011,-0.125238 0.006,-0.252129 -0.0137,-0.376214 l 0.002,0.260762 c 0.13639,-0.969532 0.0157,-1.790427 -0.0396,-2.209488 l 0.006,0.123414 c 8.6e-4,-0.08919 0.003,-0.191335 0.002,-0.30654 -0.011,-1.061091 -0.28966,-2.066403 -0.8121,-3.025604 -0.51516,-0.945738 -1.26544,-1.615804 -2.09999,-2.074133 -0.1364,-0.23966 -0.28585,-0.486687 -0.47376,-0.746452 -0.46258,-1.171539 -1.21488,-2.506065 -2.27919,-3.467496 -0.65827,-0.594635 -1.47407,-1.10464 -2.40653,-1.355553 -0.18006,-0.04845 -0.29534,-0.05922 -0.41997,-0.07762 -0.88845,-0.708053 -1.77974,-1.078545 -2.48223,-1.222185 -0.71794,-0.46923 -1.53394,-0.929416 -2.52599,-1.130618 -1.60544,-0.325719 -4.98929,-0.504236 -6.6802,-0.501615 h -0.002 -0.002 z m 11.30815,4.178122 0.16721,0.06365 0.0835,0.0876 -0.72849,0.708634 z m 8.89371,11.959088 c -0.002,-0.02689 -8.6e-4,0.0536 -0.004,0.115451 h -0.004 c 0.002,-0.04239 0.009,-0.101754 0.008,-0.115451 z"
               id="path18776" />
            <path
               sodipodi:nodetypes="cccccccccccccccccccscsccccccccccccccccccccccccccccccccccccc"
               inkscape:connector-curvature="0"
               style="fill:url(#linearGradient18954);fill-opacity:1;fill-rule:evenodd;stroke:none;stroke-width:0.35953367"
               d="m 379.00847,-42.845788 c -0.23406,3.31e-4 -0.44417,0.0032 -0.68483,0.03981 -1.74963,0.0641 -3.36925,0.360555 -4.91261,0.656875 -2.20002,0.283515 -3.64473,1.022759 -4.92057,2.386642 -0.31109,0.332596 -0.51214,0.607889 -0.69069,0.879814 -0.47227,0.284201 -0.88601,0.603456 -1.11865,0.927581 l 0.18108,-0.171181 c -0.26168,0.165009 -0.56293,0.374018 -0.90562,0.644931 -0.78492,0.620386 -1.3725,1.365635 -1.75771,2.257254 -0.33231,0.769937 -0.51436,1.655499 -0.60115,2.508066 -0.0807,0.792342 -0.0922,1.565802 0.16331,2.318968 0.003,0.05118 -0.0168,0.05003 0.0188,0.141331 6.6e-4,0.0012 10e-4,0.0023 0.002,0.0035 0.0174,0.04442 0.0254,0.06063 0.0376,0.0876 0.0922,0.644302 0.20721,1.349249 0.54536,2.088066 10e-4,0.0028 0.003,0.0055 0.004,0.0083 0.0174,0.03605 0.0387,0.07171 0.0596,0.107493 0.0495,0.11791 0.10274,0.248353 0.18314,0.406064 0.46469,0.910785 1.21421,1.648588 2.05819,2.297069 0.79794,1.030998 1.29032,2.12946 2.12414,3.14408 1.88028,2.287981 6.1614,1.609951 7.9666,1.147135 -0.12377,0.850627 0.93706,1.897285 3.66117,1.420069 0.76772,-0.13449 1.52131,-0.215169 2.1802,-0.50008 0.68096,0.257434 1.28722,0.262845 1.72385,0.201048 0.53876,0.241818 1.10589,0.419442 1.78348,0.439909 0.39451,0.01181 0.8475,-0.02332 1.29784,-0.22294 0.43639,-0.193385 0.75857,-0.479891 1.04703,-0.768344 0.41957,-0.419569 0.56005,-0.899862 0.72057,-1.345601 0.57077,-0.08567 1.13887,-0.199129 1.59043,-0.392132 l -0.18711,0.04974 c 0.22109,-0.02303 0.45707,-0.05288 0.72851,-0.09956 1.60424,-0.275865 3.10757,-0.902224 4.33539,-1.747683 1.22342,-0.842474 2.23451,-1.921621 2.63348,-3.270438 0,-6.67e-4 0,-0.0013 0,-0.002 0.008,-0.02743 0.0139,-0.05535 0.0181,-0.08358 0.008,-0.03801 0.0233,-0.100598 0.0239,-0.103482 0.009,-0.03188 0.0219,-0.06753 0.0274,-0.09358 v -0.002 c 0.005,-0.02226 -6.4e-4,-0.02557 0.002,-0.04779 0.004,-0.01709 0.008,-0.03434 0.011,-0.05173 -0.0116,0.08141 0.004,0.03975 0.0156,-0.09154 0.005,-0.05378 0.003,-0.107948 -0.006,-0.161235 0.11733,-0.833648 0.015,-1.546207 -0.0417,-1.974603 8.7e-4,-0.09519 0.003,-0.189001 0.002,-0.286636 0,-6.67e-4 0,-0.0013 0,-0.002 -0.009,-0.920263 -0.24235,-1.763442 -0.70861,-2.619533 -0.49094,-0.901194 -1.18622,-1.520649 -1.98455,-1.892991 -0.16198,-0.295563 -0.34367,-0.599911 -0.57527,-0.909669 -0.41526,-1.089764 -1.17051,-2.408052 -2.11197,-3.2585 -0.57321,-0.517771 -1.2855,-0.954156 -2.05222,-1.160477 -0.20101,-0.0541 -0.35512,-0.07235 -0.5056,-0.09359 -0.88006,-0.780576 -1.77805,-1.102825 -2.43045,-1.224176 -0.70041,-0.478373 -1.51496,-0.913465 -2.4384,-1.100763 -1.41127,-0.286319 -4.89192,-0.486309 -6.50903,-0.483697 z m 10.93396,4.06267 c 0.0212,0.02146 0.0439,0.04142 0.0679,0.05973 l -0.0156,-0.0055 z"
               id="path18778" />
            <path
               sodipodi:nodetypes="ccccccccccscccsccccccccccsccccscsccccccccccccsccccccsccscccccccscscccccccccscccccsccscscccccccscccccsccccccssccsccccscsssscscccccscscscccccccccccccccccccccccccccscccccccsccscscccccsssscccccccccccccsccccsccccccscccccscccsccsccscccccccccccccsccc"
               d="m 366.90062,-30.430314 c 0.0632,-0.102838 0.011,-0.478785 -0.11931,-0.835694 -0.35235,-0.97481 0.0418,-1.246511 0.55223,-0.380863 0.21532,0.364967 0.60803,0.76215 0.87274,0.882697 0.43391,0.19771 0.5256,0.165711 0.93511,-0.326641 0.32417,-0.390018 0.42227,-0.678223 0.34353,-1.01018 -0.0605,-0.25538 -0.15317,-0.819483 -0.20557,-1.253654 -0.10076,-0.834084 -0.24873,-0.919371 -1.06054,-0.610779 -0.69106,0.262751 -0.82259,-0.134823 -0.20704,-0.625663 0.50284,-0.400913 0.50636,-0.418962 0.2892,-1.465316 -0.12106,-0.582652 -0.29019,-1.059401 -0.3759,-1.059401 -0.0856,0 -0.56699,0.324879 -1.06935,0.722161 -0.64013,0.506008 -1.0424,1.020182 -1.34364,1.718073 -0.49,1.134826 -0.6957,3.158035 -0.39875,3.921282 0.17043,0.437956 0.30376,0.510794 0.93533,0.510794 0.40516,0 0.78857,-0.08408 0.85206,-0.186816 z m 5.69091,-0.988251 c -0.11252,-0.13554 -0.33072,-0.548391 -0.48495,-0.917456 -0.15409,-0.369132 -0.5019,-0.780655 -0.77266,-0.914477 -0.58883,-0.291076 -0.59972,-0.602213 -0.0214,-0.609551 0.33264,-0.0035 0.43504,-0.13565 0.5091,-0.65327 0.0572,-0.399912 0.20842,-0.670101 0.39473,-0.705655 0.25346,-0.04846 0.30063,0.129931 0.29384,1.112286 -0.006,0.847958 0.10293,1.385248 0.3946,1.951981 0.22149,0.430074 0.40279,0.827039 0.40279,0.882294 0,0.199647 -0.51673,0.09424 -0.71627,-0.146152 z m 17.47162,0.324477 c -1.89313,-3.19747 -3.07903,-3.687593 -4.00877,-1.65673 -0.27466,0.599775 -0.58685,1.021402 -0.75651,1.021402 -0.35946,0 -0.36104,-0.153265 -0.011,-0.992959 0.1532,-0.366685 0.27867,-0.707274 0.27867,-0.756931 0,-0.04948 -0.36618,-0.252139 -0.8135,-0.450025 -0.44745,-0.197917 -1.28513,-0.743981 -1.86145,-1.213533 -0.57637,-0.469411 -1.2603,-0.906813 -1.51943,-0.971853 -0.75492,-0.189438 -1.93577,0.0493 -2.39995,0.485437 -0.36483,0.342928 -0.4905,0.369424 -0.84539,0.179553 -0.55993,-0.299708 -2.04953,-0.282703 -2.689,0.03057 -0.28477,0.139422 -0.6873,0.482675 -0.89462,0.762823 -0.36219,0.489504 -0.36463,0.534844 -0.0611,1.171108 0.4073,0.854037 1.32663,1.264049 2.45509,1.094782 0.44637,-0.06697 0.96181,-0.238593 1.14523,-0.381472 0.31153,-0.242865 0.28482,-0.302187 -0.40967,-0.906127 -0.5578,-0.485339 -0.65766,-0.646985 -0.40076,-0.648997 0.71916,-0.0053 2.16536,1.56703 2.16536,2.355057 0,0.526504 -0.1275,0.539442 -0.52755,0.05365 -0.26624,-0.323401 -0.39685,-0.348745 -0.95717,-0.185805 -1.69364,0.492777 -3.31566,0.02985 -3.93373,-1.122681 -0.44389,-0.827648 -0.42868,-1.384813 0.0566,-2.066026 0.34979,-0.491117 0.37122,-0.638601 0.1837,-1.264658 -0.23676,-0.790255 -0.0856,-1.399088 0.46701,-1.883416 0.52913,-0.463399 1.86109,-1.089563 2.318,-1.089563 0.3832,0 0.38923,0.02035 0.10025,0.339579 -0.39566,0.437445 -0.38705,0.524885 0.0644,0.642778 0.2043,0.05358 0.37152,0.191198 0.37152,0.306178 0,0.370961 -0.49611,0.41346 -1.23202,0.10556 -0.70974,-0.296969 -0.72312,-0.294815 -1.13608,0.184587 -0.43095,0.500116 -0.56296,1.467261 -0.22859,1.673844 0.10415,0.06442 0.49259,0.01702 0.86316,-0.105278 0.52074,-0.171823 0.8969,-0.172541 1.65496,-0.0028 0.88351,0.197707 1.05656,0.181098 1.73715,-0.166033 0.84266,-0.429858 0.93365,-0.717055 0.3845,-1.213894 -0.42928,-0.388512 -0.4791,-0.650037 -0.12407,-0.650037 0.13622,0 0.50324,0.31808 0.81559,0.706807 0.31238,0.3888 0.91194,0.841922 1.33223,1.007018 l 0.76435,0.300247 0.38263,-0.889629 c 0.21052,-0.48929 0.66872,-1.166939 1.01829,-1.505692 0.59934,-0.581007 0.61794,-0.63533 0.32632,-0.957511 -0.48202,-0.532685 -0.0612,-0.811646 0.66064,-0.438307 0.91408,0.472788 1.43476,1.778397 0.91601,2.297241 -0.34375,0.343785 -0.55014,0.265409 -0.51274,-0.194939 0.0882,-1.089172 -0.21942,-1.169886 -1.06298,-0.278638 -1.15997,1.225505 -1.33032,2.350164 -0.47661,3.146422 1.37306,1.28066 2.46102,1.149177 2.46102,-0.297514 0,-0.510465 0.49509,-0.929144 1.34659,-1.138464 0.76817,-0.18897 0.65841,0.332641 -0.15137,0.718889 -0.54962,0.262135 -0.65225,0.40052 -0.60362,0.815026 0.053,0.453408 0.13323,0.50101 0.87199,0.518735 0.68821,0.01632 0.91007,0.124939 1.4419,0.705263 0.34571,0.377186 0.68548,0.685773 0.75518,0.685773 0.0698,0 0.36163,-0.225032 0.64883,-0.500291 0.78439,-0.751532 0.99213,-0.324803 0.32528,0.668158 -0.30168,0.449129 -0.54853,0.910087 -0.54853,1.024239 0,0.11426 0.20881,0.515068 0.46419,0.890852 0.54309,0.798992 0.56109,0.888803 0.17874,0.888803 -0.15715,0 -0.51246,-0.382794 -0.78947,-0.850584 l 4e-5,1.81e-4 z m -16.84829,5.605641 c -0.4086,-0.129331 -1.03224,-0.385636 -1.38568,-0.569898 -0.561,-0.292086 -0.75461,-0.306145 -1.51896,-0.110271 -0.65401,0.167539 -0.97494,0.171639 -1.26611,0.01567 -0.53424,-0.2859 -0.3051,-0.561559 0.46704,-0.561559 0.71636,0 0.76762,-0.141367 0.34711,-0.954738 -0.16069,-0.310636 -0.2409,-0.698219 -0.17833,-0.861299 0.0881,-0.230209 0.29619,-0.08794 0.92929,0.635764 1.17861,1.347203 2.69116,2.002419 4.60514,1.994657 1.18411,-0.0043 1.54015,-0.0783 1.98909,-0.410197 0.64472,-0.476664 0.93333,-0.512947 0.93333,-0.117206 0,0.164991 -0.41501,0.480442 -0.97505,0.741216 -1.10492,0.514277 -2.6941,0.593984 -3.94687,0.197816 z m 12.17911,1.40085 c -0.21054,-0.412959 -0.59006,-0.809424 -0.89582,-0.936115 -0.45959,-0.190481 -0.64047,-0.159275 -1.35634,0.23369 -1.37913,0.757147 -2.77625,0.857134 -2.77625,0.198972 0,-0.194689 0.24381,-0.266133 0.90811,-0.266133 0.63795,0 1.0386,-0.110371 1.34664,-0.371252 0.43025,-0.364455 0.43167,-0.376579 0.0785,-0.650149 -0.19831,-0.153263 -0.58071,-0.278702 -0.84951,-0.278702 -0.26892,0 -0.88722,-0.283031 -1.37363,-0.628828 -0.48653,-0.345908 -1.22041,-0.682648 -1.63091,-0.748266 -0.4105,-0.06556 -0.99351,-0.247139 -1.29555,-0.403392 -1.08976,-0.56346 -2.97986,-0.274864 -3.67355,0.561048 -0.30806,0.371078 -0.56736,0.372697 -0.56736,0.0034 0,-0.485732 0.90064,-1.154609 1.86694,-1.386472 0.9068,-0.217589 0.91908,-0.230209 0.91908,-0.944852 0,-0.520175 0.0789,-0.724391 0.27867,-0.724391 0.15322,0 0.27866,0.163159 0.27866,0.362806 0,1.048902 0.813,1.680281 2.16369,1.680281 0.68597,0 0.76009,-0.20026 0.34371,-0.928641 -0.30838,-0.539443 -0.35873,-1.114446 -0.0974,-1.114446 0.22669,0 0.75202,0.951973 1.11854,2.026368 0.32196,0.944136 0.93049,1.465855 1.89204,1.621858 0.63034,0.102309 0.71361,0.05666 1.2494,-0.682828 0.65875,-0.90937 0.75365,-1.880722 0.28111,-2.876556 -0.38285,-0.80665 -0.7739,-0.936802 -1.40741,-0.468403 -0.28241,0.208856 -0.60036,0.379561 -0.70669,0.379561 -0.36333,0 -0.19361,-0.360072 0.36398,-0.772312 0.30652,-0.226579 0.55715,-0.479402 0.55715,-0.561988 0,-0.08239 -0.41782,-0.668444 -0.92863,-1.302269 -0.5108,-0.633894 -0.92863,-1.219393 -0.92863,-1.30115 0,-0.3092 0.47827,-0.131554 0.72517,0.269363 0.14166,0.229921 0.75479,1.011509 1.36264,1.737159 0.60767,0.725538 1.28607,1.641628 1.50712,2.035859 0.29915,0.533331 0.5597,0.748872 1.01874,0.842746 0.74739,0.152874 1.70143,1.021688 1.70029,1.548188 -6.8e-4,0.326746 -0.0949,0.280544 -0.64054,-0.313299 -0.8002,-0.871255 -1.50777,-0.945067 -1.779,-0.185807 -0.10086,0.280906 -0.30716,0.732694 -0.4597,1.003892 -0.46953,0.834585 -0.35794,1.256497 0.41916,1.583529 0.58908,0.248079 0.82531,0.257751 1.53235,0.06322 1.10685,-0.304632 1.26999,-0.316568 1.32336,-0.09685 0.0247,0.102204 -0.26191,0.387182 -0.63681,0.633211 -0.63736,0.418353 -0.6743,0.493748 -0.56759,1.16079 0.15025,0.938849 -0.183,0.937305 -0.66271,-0.0028 l -1.1e-4,-3.6e-4 z m 2.11644,2.709695 c 0.42265,-0.422734 0.67066,-0.904584 0.8172,-1.587841 0.3101,-1.445755 0.26912,-1.851277 -0.37204,-3.672708 -0.68388,-1.942891 -0.88706,-4.037783 -0.50149,-5.169631 0.27366,-0.803803 0.87796,-1.243271 0.62828,-0.457071 -0.078,0.24354 -0.18315,1.00781 -0.23508,1.698505 -0.13597,1.80971 0.21218,2.078648 1.96927,1.521472 0.33703,-0.106818 0.42262,-0.07819 0.35803,0.119981 -0.0707,0.21626 -0.90321,0.572735 -1.95336,0.836205 -0.1682,0.04229 -0.15235,0.26609 0.0643,0.901028 l 0.28769,0.84487 h 0.97903 c 0.6995,0 1.1145,-0.10661 1.4539,-0.373524 0.65678,-0.516719 1.1391,-1.845993 0.9791,-2.698908 -0.11001,-0.58561 -0.0824,-0.665611 0.20988,-0.609953 0.44923,0.08538 0.55811,1.7144 0.17575,2.629702 -0.4817,1.152877 0.29527,1.218385 1.24806,0.105278 0.81262,-0.949531 1.22761,-0.814709 0.65089,0.211367 -0.5186,0.922742 -1.1897,1.221047 -3.0469,1.354261 -2.05095,0.147152 -2.12739,0.188968 -2.12739,1.159604 0,1.112569 0.36613,1.296765 2.01418,1.01341 2.79554,-0.480729 5.3383,-2.231728 5.87383,-4.045005 0.0996,-0.335588 0.0496,-0.417845 -0.24953,-0.417845 -0.20518,0 -0.42464,0.08357 -0.4879,0.185809 -0.063,0.102093 -0.19342,0.185696 -0.28954,0.185696 -0.34471,0 -0.16415,-0.386179 0.42899,-0.916456 0.54143,-0.483961 0.60255,-0.641723 0.59434,-1.529628 -0.007,-0.726835 -0.15109,-1.250501 -0.54275,-1.969815 -0.68636,-1.260274 -1.41234,-1.725943 -2.46895,-1.584183 -0.92714,0.124362 -1.04903,0.554044 -0.35426,1.248695 0.94507,0.945041 1.23928,1.46176 1.23928,2.176189 0,0.514349 -0.0792,0.717886 -0.27867,0.717886 -0.17477,0 -0.27876,-0.176431 -0.27876,-0.473617 0,-0.616173 -0.49659,-1.569477 -0.81768,-1.569477 -0.13815,0 -0.35506,0.12534 -0.48239,0.278647 -0.41016,0.49407 -0.59552,0.311854 -0.46546,-0.457515 0.14484,-0.857015 -0.29917,-2.611362 -0.75715,-2.991312 -0.16388,-0.135942 -0.73743,-0.33498 -1.27488,-0.442196 -1.22697,-0.245018 -1.37728,-0.5485 -0.30924,-0.624936 1.01285,-0.07265 1.77834,0.232146 2.25112,0.89631 0.37229,0.522731 1.10253,0.791082 1.49405,0.548936 0.3262,-0.201583 -1.01095,-2.634413 -1.87872,-3.418548 -0.39062,-0.352811 -1.05821,-0.735218 -1.48329,-0.849763 -1.47259,-0.396563 -1.72022,0.163375 -0.52492,1.186396 0.54561,0.467171 0.73101,0.746927 0.64447,0.972679 -0.10707,0.27892 -0.18392,0.257033 -0.64418,-0.183978 -0.28749,-0.275364 -0.92956,-0.655173 -1.4268,-0.843928 -1.01546,-0.385458 -1.29158,-0.757319 -0.56238,-0.757319 0.59305,0 0.62595,-0.387397 0.0959,-1.131388 -0.50713,-0.712376 -1.72723,-1.410192 -2.87109,-1.642347 -1.24959,-0.253467 -6.64753,-0.577769 -6.82003,-0.409621 -0.0768,0.07393 0.27933,0.446002 0.78926,0.826647 0.5102,0.380743 0.92745,0.816034 0.92745,0.967287 0,0.39951 -0.20562,0.341917 -0.9399,-0.263253 -1.20786,-0.995621 -1.90872,-1.178946 -3.98232,-1.042504 -3.21703,0.211911 -4.31892,0.619151 -5.71583,2.112409 -0.74531,0.796758 -0.87436,1.044625 -0.85568,1.64278 0.0703,2.248016 0.60039,2.395712 1.99338,0.555338 1.02215,-1.350486 1.11532,-1.62373 0.67783,-1.98686 -0.1532,-0.127168 -0.27867,-0.304525 -0.27867,-0.394193 0,-0.324509 0.37888,-0.151252 0.86705,0.396354 0.33733,0.378583 0.6077,0.524669 0.83718,0.451898 0.63404,-0.20131 0.36287,0.445859 -0.32321,0.77138 -1.26484,0.600276 -2.67867,3.105466 -2.43629,4.316922 0.13254,0.663045 1.252,2.516192 2.1706,3.593108 0.80989,0.949848 0.86889,1.079996 0.48894,1.079996 -0.25538,0 -1.59116,-1.387075 -2.22581,-2.311437 -0.32497,-0.473075 -0.36164,-0.482968 -0.68951,-0.185989 -0.33101,0.299524 -0.56486,0.871867 -0.81164,1.986643 -0.0663,0.298589 -0.23712,0.510783 -0.41188,0.510783 -0.2432,0 -0.2773,-0.13453 -0.18352,-0.721258 0.16363,-1.023021 -0.18196,-1.279434 -1.18385,-0.878488 -0.41179,0.164776 -0.95599,0.2996 -1.20953,0.2996 -0.58177,0 -0.60739,0.469736 -0.0814,1.500912 1.15932,2.272292 5.19052,4.252815 8.66762,4.258317 2.2865,0.0035 5.28953,0.789755 7.11218,1.861986 0.66403,0.390637 1.36994,0.737154 1.56853,0.769978 0.32126,0.05316 0.35596,-0.03807 0.31115,-0.822465 -0.0606,-1.064072 0.26619,-1.180172 0.43928,-0.155825 0.1848,1.09439 0.69232,1.435372 2.20379,1.480852 0.57571,0.01732 0.83336,-0.09685 1.32175,-0.585325 z m -13.62444,-0.125258 c 1.7197,-0.09402 3.1978,0.302966 3.09662,-1.598307 -0.0464,-0.04625 -1.00177,-0.119655 -2.12336,-0.163082 -2.1122,-0.08156 -3.78903,-0.421125 -5.31848,-1.076917 -0.48823,-0.209355 -0.93622,-0.33224 -0.99549,-0.273026 2.20057,3.484923 2.73048,3.347095 5.34071,3.111332 z m 6.43331,1.122314 c 0.63855,-0.319725 1.16078,-0.664414 1.16078,-0.765911 0,-0.101532 -0.63273,-0.497344 -1.4059,-0.879523 l -1.40595,-0.694944 c -2.46123,2.225113 0.31007,2.7346 1.65107,2.340378 z"
               style="fill:#ffffff;fill-opacity:1;fill-rule:evenodd;stroke:none;stroke-width:0.35953367"
               id="path18780"
               inkscape:connector-curvature="0" />
          </g>
          <path
             inkscape:connector-curvature="0"
             id="path18784"
             style="fill:#ffffff;fill-opacity:1;fill-rule:nonzero;stroke:none;stroke-width:0.34910837"
             d="m 81.62851,49.349308 0.0698,0.430871 c -0.31924,0.04858 -0.55724,0.183176 -0.71493,0.404796 -0.13293,0.186687 -0.17908,0.388347 -0.138,0.603762 0.041,0.215883 0.15689,0.387823 0.34993,0.51639 0.13444,0.08953 0.27432,0.140597 0.41877,0.15338 0.14474,0.01326 0.28392,-0.01256 0.41689,-0.07636 0.13337,-0.06418 0.24479,-0.159533 0.33517,-0.2864 0.0769,-0.107628 0.1263,-0.220221 0.14843,-0.337229 0.0235,-0.117343 0.016,-0.266392 -0.0171,-0.44642 l 0.45217,-0.07069 c 0.0431,0.24114 0.0471,0.445077 0.0126,0.6107 -0.0352,0.166028 -0.11111,0.331543 -0.22802,0.495958 -0.21619,0.303619 -0.49252,0.486167 -0.82937,0.546853 -0.33647,0.06115 -0.66045,-0.01226 -0.97126,-0.219417 -0.20143,-0.134192 -0.3487,-0.297028 -0.44227,-0.489663 -0.0939,-0.192203 -0.12988,-0.401777 -0.10801,-0.629576 0.0198,-0.227621 0.10007,-0.435934 0.23487,-0.625759 0.11469,-0.160774 0.25976,-0.292424 0.43651,-0.395077 0.17636,-0.102351 0.36776,-0.164484 0.57392,-0.18612 z m 0.1294,-0.818502 0.86446,-0.987236 0.34911,0.285965 -0.56471,0.644665 0.33624,0.275366 0.56445,-0.644672 0.34388,0.281741 -0.56454,0.644578 0.49231,0.403339 0.56456,-0.644678 0.34901,0.286172 -0.86444,0.987027 z m 1.39865,-1.553489 0.31776,-0.29799 1.88084,0.409192 -1.12304,-1.119832 0.3331,-0.312485 1.70647,1.701808 -0.32023,0.300239 -1.87458,-0.408004 1.11942,1.116429 -0.3331,0.312501 z m 1.91957,-1.731137 1.05597,-0.820648 0.28867,0.347381 -0.34833,0.270923 1.24675,1.500382 -0.36968,0.28726 -1.24691,-1.500382 -0.3378,0.262508 z m 1.62171,-1.233704 0.41521,-0.261416 c 0.22695,-0.142836 0.402,-0.22548 0.52471,-0.246839 0.12306,-0.02179 0.24432,-0.0051 0.36414,0.04861 0.11976,0.05393 0.22177,0.142858 0.30564,0.267316 0.0874,0.13062 0.12892,0.260361 0.12344,0.388374 -0.005,0.129017 -0.0576,0.256562 -0.15782,0.383042 l 1.07912,0.578204 -0.42702,0.268801 -1.02752,-0.550761 -0.0391,0.02492 0.5661,0.841117 -0.38899,0.244881 -1.3373,-1.986603 z m 0.9123,0.532487 0.12401,-0.07793 c 0.12581,-0.07914 0.2015,-0.149148 0.22788,-0.210999 0.0256,-0.06168 0.0136,-0.129215 -0.035,-0.202971 -0.0283,-0.04309 -0.0669,-0.07364 -0.11165,-0.09121 -0.0451,-0.01747 -0.0924,-0.02084 -0.141,-0.01 -0.0486,0.01032 -0.12578,0.04895 -0.23118,0.115291 l -0.10833,0.06815 z m 2.00896,-2.302757 c 0.30657,-0.156003 0.62892,-0.182645 0.9663,-0.08013 0.33773,0.10228 0.59066,0.308157 0.75868,0.616885 0.16681,0.306323 0.19897,0.620554 0.0963,0.943384 -0.10205,0.322621 -0.30847,0.563084 -0.61909,0.721129 -0.32556,0.165669 -0.65544,0.194187 -0.98867,0.0859 -0.33395,-0.107975 -0.58247,-0.311688 -0.74542,-0.611141 -0.10889,-0.200047 -0.1591,-0.410372 -0.15062,-0.629739 0.008,-0.218938 0.0739,-0.422546 0.19552,-0.610092 0.122,-0.187716 0.28455,-0.333068 0.48687,-0.436135 z m 0.20721,0.394413 c -0.19984,0.101706 -0.33118,0.254988 -0.39347,0.458945 -0.063,0.204375 -0.0372,0.410383 0.0757,0.618784 0.12616,0.231763 0.31165,0.371815 0.55654,0.419292 0.19116,0.03769 0.3722,0.01329 0.54478,-0.07507 0.19484,-0.09909 0.32355,-0.252368 0.38609,-0.45875 0.0632,-0.206809 0.0399,-0.410013 -0.07,-0.610729 -0.10877,-0.199607 -0.26957,-0.333488 -0.48335,-0.401342 -0.21326,-0.06815 -0.41897,-0.05162 -0.61668,0.04889 z m 2.79781,-1.640659 0.42428,-0.121758 1.47146,1.204823 -0.45938,-1.495252 0.44501,-0.127659 0.69795,2.272302 -0.42759,0.122573 -1.46648,-1.201203 0.45785,1.490725 -0.44503,0.127656 z m 2.77879,-0.770625 1.31488,-0.239244 0.0851,0.43464 -0.85846,0.156162 0.0812,0.418597 0.85855,-0.156251 0.0826,0.428172 -0.85847,0.15623 0.11969,0.613217 0.8585,-0.156326 0.0852,0.434731 -1.31469,0.239256 z m 2.06116,-0.379419 0.46561,-0.04203 0.14828,1.526627 c 0.0127,0.13148 0.0334,0.22334 0.0634,0.275654 0.0284,0.05243 0.0721,0.09238 0.13046,0.120267 0.0584,0.02735 0.12596,0.03774 0.20308,0.03073 0.0827,-0.0077 0.15058,-0.0319 0.20647,-0.07409 0.0565,-0.04134 0.0922,-0.09102 0.10958,-0.149563 0.0178,-0.0577 0.0173,-0.166428 0.003,-0.32475 l -0.14275,-1.470203 0.46547,-0.04212 0.13672,1.406757 c 0.0227,0.237704 0.026,0.403253 0.006,0.497779 -0.0193,0.09446 -0.0628,0.188087 -0.13244,0.280608 -0.0697,0.09258 -0.15327,0.164185 -0.25112,0.214395 -0.0976,0.05026 -0.21384,0.08175 -0.34867,0.094 -0.17656,0.01588 -0.33452,-0.0093 -0.47286,-0.07612 -0.13924,-0.067 -0.2422,-0.156583 -0.31019,-0.269788 -0.0678,-0.113219 -0.11528,-0.310074 -0.14258,-0.59156 z m 2.59418,-0.221007 0.49549,0.0055 c 0.27077,0.0031 0.46387,0.02809 0.57827,0.07589 0.11499,0.04802 0.20614,0.127121 0.27509,0.236129 0.0687,0.109223 0.10278,0.237832 0.10116,0.386313 -0.002,0.155706 -0.042,0.28567 -0.11966,0.389332 -0.078,0.104346 -0.19535,0.182224 -0.35122,0.234033 l 0.56702,1.059632 -0.50967,-0.0057 -0.53963,-1.009134 -0.0473,-5.46e-4 -0.0115,1.003272 -0.46418,-0.0051 z m 0.45406,0.932332 0.14803,0.0017 c 0.15006,0.0016 0.2532,-0.01604 0.3107,-0.05342 0.0573,-0.03734 0.0861,-0.0996 0.087,-0.18779 10e-6,-0.05183 -0.0126,-0.09699 -0.0408,-0.135832 -0.0273,-0.03884 -0.0639,-0.06655 -0.11188,-0.08377 -0.0463,-0.01732 -0.13277,-0.02616 -0.2583,-0.02816 l -0.12932,-0.0014 z m 3.00097,-0.849268 c 0.3446,0.03526 0.62758,0.187096 0.84891,0.453812 0.22179,0.266947 0.31311,0.57411 0.27506,0.920889 -0.037,0.344322 -0.19191,0.622614 -0.46308,0.835291 -0.2706,0.212646 -0.58069,0.301217 -0.9296,0.265193 -0.36617,-0.03776 -0.65646,-0.19178 -0.87099,-0.461248 -0.21523,-0.269619 -0.30442,-0.572572 -0.26743,-0.908969 0.0249,-0.224919 0.10407,-0.426427 0.23763,-0.603992 0.13344,-0.177068 0.30462,-0.311011 0.51363,-0.401093 0.20971,-0.09012 0.42848,-0.123358 0.65587,-0.09988 z m -0.0545,0.43909 c -0.22436,-0.02373 -0.42171,0.03345 -0.59118,0.169131 -0.16997,0.135665 -0.26763,0.320391 -0.29324,0.554484 -0.0273,0.260704 0.0442,0.47651 0.22097,0.648058 0.13688,0.134284 0.30183,0.210991 0.49569,0.231057 0.21897,0.02301 0.41416,-0.03528 0.58497,-0.172999 0.17121,-0.137854 0.2691,-0.31913 0.29381,-0.544509 0.0248,-0.224398 -0.0319,-0.422238 -0.17055,-0.593641 -0.13782,-0.171408 -0.31822,-0.268601 -0.54047,-0.291581 z m 2.10457,-0.09089 0.48469,0.100242 c 0.26203,0.05409 0.44561,0.116223 0.55086,0.186895 0.1056,0.07075 0.18051,0.165689 0.2243,0.283769 0.044,0.118293 0.0489,0.250398 0.0172,0.396844 -0.0363,0.161916 -0.10985,0.287343 -0.22094,0.376277 -0.11097,0.08901 -0.24646,0.138994 -0.40653,0.149886 -0.0939,0.0063 -0.25727,-0.01536 -0.49029,-0.06345 l -0.21661,0.98137 -0.45399,-0.09388 0.51113,-2.317879 z m 0.25394,1.000921 0.14625,0.03025 c 0.11534,0.02394 0.19667,0.03248 0.24505,0.02643 0.0487,-0.0071 0.0889,-0.02538 0.12362,-0.05658 0.0338,-0.03123 0.056,-0.07274 0.0674,-0.125003 0.021,-0.08966 -10e-4,-0.162838 -0.0653,-0.218571 -0.0458,-0.04154 -0.14002,-0.07743 -0.2824,-0.106888 l -0.12962,-0.02688 z m 3.09051,0.194999 -0.42306,0.177006 c -0.0634,-0.190984 -0.15476,-0.305231 -0.27436,-0.342883 -0.0589,-0.0184 -0.11103,-0.01868 -0.1579,-6.7e-5 -0.0473,0.01862 -0.0771,0.0468 -0.0896,0.08438 -0.0132,0.03771 -0.0105,0.07801 0.003,0.119766 0.0213,0.05641 0.0974,0.186896 0.22933,0.39189 0.1235,0.190238 0.19718,0.308801 0.22161,0.355893 0.0601,0.116001 0.0956,0.219862 0.10714,0.311951 0.0107,0.09221 -1.9e-4,0.185478 -0.031,0.280426 -0.0621,0.185162 -0.17921,0.316749 -0.3521,0.39583 -0.1725,0.07899 -0.36554,0.0849 -0.57857,0.01799 -0.16618,-0.05227 -0.2974,-0.136935 -0.39442,-0.254106 -0.0967,-0.117762 -0.16162,-0.274634 -0.19275,-0.470595 l 0.44694,-0.100187 c 0.0458,0.234133 0.14194,0.374149 0.28795,0.420067 0.076,0.02389 0.14778,0.02354 0.21419,-0.0042 0.0661,-0.02667 0.10912,-0.06814 0.12767,-0.12412 0.018,-0.05077 0.0149,-0.10812 -0.008,-0.17189 -0.0221,-0.06306 -0.0821,-0.168653 -0.18045,-0.315859 -0.1873,-0.279733 -0.29955,-0.485726 -0.33712,-0.617718 -0.0371,-0.132173 -0.039,-0.252213 -0.002,-0.36049 0.0524,-0.156443 0.15898,-0.271168 0.31928,-0.343977 0.16084,-0.07327 0.33177,-0.0813 0.51249,-0.0246 0.11619,0.0366 0.21853,0.09759 0.30604,0.18222 0.0877,0.08558 0.16984,0.215989 0.24631,0.392728 z m 0.74467,-0.07597 0.43426,0.158784 -0.86494,2.217164 -0.4342,-0.15869 z m 3.0897,1.821353 -0.43153,0.126784 c -0.0937,-0.298953 -0.26482,-0.508502 -0.51355,-0.629108 -0.20955,-0.101454 -0.42247,-0.117911 -0.6375,-0.04914 -0.2155,0.0684 -0.37538,0.203743 -0.48037,0.406565 -0.0731,0.141072 -0.10541,0.282026 -0.0986,0.422084 0.006,0.140302 0.0527,0.270249 0.13604,0.388794 0.0844,0.118993 0.19716,0.212602 0.33968,0.281621 0.12101,0.0586 0.2431,0.09072 0.36587,0.09538 0.12345,0.0047 0.27512,-0.02124 0.45468,-0.07797 l 0.13526,0.42345 c -0.24097,0.07464 -0.44905,0.106625 -0.62357,0.09606 -0.17472,-0.01075 -0.35489,-0.06072 -0.53947,-0.150111 -0.34098,-0.165096 -0.56619,-0.404618 -0.67515,-0.718984 -0.10926,-0.313941 -0.0785,-0.634399 0.0902,-0.960613 0.10982,-0.211414 0.25567,-0.374841 0.43998,-0.491077 0.18362,-0.116478 0.39346,-0.17976 0.62974,-0.190302 0.23585,-0.01046 0.46031,0.03549 0.67332,0.138773 0.18061,0.08746 0.33554,0.208602 0.46522,0.363715 0.12919,0.154903 0.21936,0.329695 0.27013,0.524106 z m 1.93897,0.618051 c 0.28531,0.190112 0.45982,0.453755 0.52271,0.790258 0.0638,0.336917 -0.008,0.648897 -0.21215,0.936107 -0.20287,0.285033 -0.47571,0.458613 -0.81897,0.520643 -0.3427,0.06221 -0.65899,-0.0025 -0.94805,-0.195444 -0.30317,-0.20198 -0.48268,-0.471197 -0.53851,-0.806883 -0.0559,-0.336116 0.0144,-0.643559 0.21275,-0.922269 0.13251,-0.186115 0.30158,-0.326641 0.50642,-0.421092 0.2045,-0.09428 0.42139,-0.133022 0.64945,-0.115846 0.22865,0.01744 0.43739,0.08907 0.62591,0.214473 z m -0.26481,0.360506 c -0.18618,-0.123821 -0.38741,-0.165206 -0.6033,-0.123898 -0.21643,0.04081 -0.3932,0.158311 -0.53117,0.352166 -0.15339,0.215599 -0.19544,0.439516 -0.12517,0.671425 0.0545,0.18103 0.16135,0.324572 0.32204,0.431621 0.18139,0.120876 0.38159,0.159806 0.59962,0.117528 0.21842,-0.04231 0.39367,-0.15649 0.52663,-0.343132 0.13238,-0.185876 0.17998,-0.385766 0.14297,-0.600285 -0.0364,-0.214175 -0.14756,-0.382844 -0.33168,-0.505438 z m 1.90868,0.870867 0.353,0.291618 -1.30247,1.475935 0.52189,0.430931 -0.28796,0.326354 -0.875,-0.722456 z m 2.26799,1.923985 c 0.24052,0.241236 0.35706,0.533118 0.34963,0.875073 -0.007,0.342402 -0.14112,0.6345 -0.40044,0.876607 -0.25752,0.240097 -0.56051,0.35766 -0.90975,0.352319 -0.34877,-0.0051 -0.64521,-0.129825 -0.88897,-0.374107 -0.25575,-0.256388 -0.37592,-0.554737 -0.36167,-0.894425 0.0132,-0.340245 0.14691,-0.627605 0.39847,-0.862477 0.1683,-0.156922 0.36299,-0.261948 0.58326,-0.315338 0.21983,-0.05289 0.44018,-0.04901 0.66031,0.01167 0.22048,0.0611 0.41017,0.171506 0.56916,0.330678 z m -0.3338,0.302201 c -0.15674,-0.157214 -0.3456,-0.236414 -0.56566,-0.237611 -0.2204,-0.0017 -0.41798,0.07937 -0.59306,0.242822 -0.19483,0.181813 -0.28213,0.392904 -0.26078,0.633843 0.0165,0.188002 0.0912,0.349085 0.22677,0.484961 0.15294,0.15334 0.34102,0.2302 0.56339,0.230616 0.22277,9.63e-4 0.41814,-0.07735 0.5868,-0.234695 0.16794,-0.156546 0.25583,-0.343242 0.2635,-0.56073 0.008,-0.217098 -0.0659,-0.403584 -0.22096,-0.559206 z m 2.77175,3.279669 -0.45572,-0.07213 c 0.0551,-0.287386 0.002,-0.539337 -0.16086,-0.755688 -0.14144,-0.1882 -0.32469,-0.300936 -0.5496,-0.337364 -0.22499,-0.03622 -0.42967,0.01014 -0.61462,0.140043 -0.19081,0.134324 -0.30344,0.313947 -0.33702,0.53962 -0.0338,0.225681 0.0228,0.435161 0.1681,0.628698 0.0947,0.126101 0.20231,0.212963 0.32191,0.260802 0.11983,0.04798 0.25791,0.05759 0.41441,0.02844 l -0.41713,-0.555048 0.35335,-0.248276 0.72465,0.964029 -0.082,0.06119 c -0.17341,0.121941 -0.37033,0.193596 -0.59108,0.216185 -0.22063,0.02183 -0.42401,-0.0073 -0.6098,-0.08752 -0.18539,-0.08112 -0.34848,-0.214808 -0.48832,-0.400817 -0.14959,-0.199093 -0.23839,-0.4079 -0.26662,-0.62688 -0.0279,-0.219339 0.007,-0.431785 0.10405,-0.639255 0.0976,-0.207145 0.24127,-0.377644 0.43266,-0.512308 0.26211,-0.184265 0.55354,-0.260453 0.87344,-0.228922 0.38048,0.03675 0.69107,0.215077 0.93094,0.534171 0.12538,0.167049 0.21115,0.345521 0.25656,0.536089 0.038,0.160183 0.0351,0.345588 -0.008,0.555267 z m 0.82949,0.533482 0.23289,0.388411 -2.11987,1.188171 -0.23276,-0.388506 z m 1.27244,3.130542 -0.42721,-0.140144 c 0.10371,-0.295849 0.0916,-0.562443 -0.038,-0.800463 -0.10936,-0.200685 -0.27257,-0.334085 -0.48875,-0.39941 -0.21652,-0.06573 -0.42794,-0.04595 -0.63537,0.05957 -0.14446,0.07355 -0.25589,0.169598 -0.33476,0.287426 -0.0788,0.117885 -0.12007,0.248859 -0.12367,0.392535 -0.003,0.143824 0.0326,0.283849 0.10653,0.420116 0.0627,0.115776 0.14296,0.210692 0.23995,0.283871 0.0971,0.07346 0.23638,0.137779 0.41676,0.192788 l -0.14521,0.420254 c -0.24089,-0.07526 -0.42939,-0.166551 -0.56497,-0.27348 -0.1358,-0.10691 -0.25193,-0.24927 -0.34804,-0.425953 -0.1777,-0.326313 -0.21633,-0.647982 -0.1156,-0.964644 0.10037,-0.316572 0.31813,-0.55985 0.65186,-0.729684 0.21632,-0.110167 0.43376,-0.160353 0.65354,-0.150959 0.21962,0.0084 0.42826,0.07552 0.62652,0.200327 0.19828,0.124184 0.35269,0.288134 0.46391,0.492107 0.0941,0.172955 0.14711,0.358614 0.15893,0.55768 0.0115,0.19861 -0.0203,0.391386 -0.0958,0.578128 z m 1.13343,1.648749 c 0.1145,0.316247 0.0946,0.628567 -0.06,0.936074 -0.15423,0.308025 -0.402,0.51954 -0.74242,0.634668 -0.33773,0.114197 -0.6638,0.09854 -0.97897,-0.04726 -0.31474,-0.145398 -0.5304,-0.378568 -0.64651,-0.698962 -0.12151,-0.336039 -0.10225,-0.655613 0.0571,-0.958477 0.15959,-0.30349 0.40432,-0.511063 0.73456,-0.62263 0.22072,-0.07465 0.44308,-0.09144 0.6661,-0.051 0.22268,0.04074 0.42124,0.133187 0.59521,0.277223 0.17397,0.144646 0.29888,0.321558 0.37442,0.530402 z m -0.43379,0.139746 c -0.0741,-0.206179 -0.21205,-0.354375 -0.41164,-0.444339 -0.19962,-0.09038 -0.41403,-0.09675 -0.64372,-0.01918 -0.25562,0.08643 -0.42597,0.243106 -0.51059,0.470537 -0.0668,0.17697 -0.0674,0.35403 -0.003,0.532066 0.0727,0.201148 0.21068,0.346809 0.41253,0.436971 0.20223,0.09089 0.41353,0.09868 0.6348,0.02383 0.22014,-0.07447 0.38061,-0.208567 0.48141,-0.402996 0.10078,-0.193919 0.1145,-0.393157 0.0398,-0.59719" />
          <path
             inkscape:connector-curvature="0"
             id="path18786"
             style="fill:#ffffff;fill-opacity:1;fill-rule:nonzero;stroke:none;stroke-width:0.34340885"
             d="m 79.15903,70.039046 0.0825,0.843042 c 0.0189,0.190332 0.0174,0.336633 -0.003,0.439097 -0.0286,0.137413 -0.0918,0.259004 -0.18928,0.363744 -0.0967,0.105291 -0.22087,0.189301 -0.37077,0.252935 -0.14964,0.06306 -0.33814,0.104801 -0.56455,0.124592 -0.19945,0.01752 -0.37309,0.0093 -0.52212,-0.02524 -0.18184,-0.04172 -0.3324,-0.110636 -0.45146,-0.207109 -0.0908,-0.07259 -0.16535,-0.17525 -0.22502,-0.307118 -0.0442,-0.09875 -0.0743,-0.233086 -0.0913,-0.403788 l -0.0849,-0.86802 z m -0.3636,0.499536 -1.60238,0.140284 0.0335,0.343797 c 0.0131,0.128525 0.0305,0.220477 0.0501,0.27625 0.0266,0.07335 0.0675,0.132115 0.11912,0.177164 0.0521,0.04537 0.13388,0.07851 0.24508,0.09991 0.1112,0.02156 0.26085,0.02439 0.4479,0.0083 0.18695,-0.0164 0.32858,-0.04422 0.42592,-0.08461 0.0967,-0.03974 0.17068,-0.09011 0.22157,-0.151076 0.0498,-0.06094 0.0817,-0.135073 0.0932,-0.223137 0.009,-0.06531 0.004,-0.192232 -0.0135,-0.379849 z m -1.76767,2.014304 2.38286,-0.453975 0.35556,1.668374 -0.4028,0.07673 -0.25822,-1.211962 -0.52908,0.100837 0.24012,1.126929 -0.40283,0.07669 -0.23995,-1.126866 -0.64573,0.122985 0.2675,1.256027 -0.40259,0.07686 z m 2.99548,2.157249 0.31194,0.793648 c 0.0702,0.179208 0.10951,0.320651 0.11725,0.424725 0.011,0.139744 -0.0186,0.272561 -0.0824,0.397862 -0.0648,0.125695 -0.16097,0.237128 -0.28837,0.335533 -0.12682,0.09778 -0.29751,0.184568 -0.5106,0.259446 -0.18778,0.066 -0.3577,0.100601 -0.51094,0.104262 -0.18698,0.0042 -0.35142,-0.02497 -0.49294,-0.08883 -0.10747,-0.04777 -0.20804,-0.12825 -0.30196,-0.241047 -0.0698,-0.08433 -0.13614,-0.206645 -0.19922,-0.367346 l -0.32102,-0.817113 z m -0.21355,0.571779 -1.50841,0.530249 0.12712,0.323706 c 0.0474,0.120954 0.0894,0.205532 0.1248,0.254323 0.0466,0.06424 0.10138,0.11107 0.16365,0.141536 0.0626,0.03112 0.15083,0.04287 0.26412,0.03626 0.1135,-0.0064 0.25876,-0.04071 0.43487,-0.102641 0.17596,-0.06179 0.30488,-0.12376 0.38766,-0.186552 0.083,-0.06243 0.14023,-0.129186 0.17254,-0.200414 0.032,-0.07121 0.0425,-0.150438 0.0279,-0.238528 -0.008,-0.06507 -0.0487,-0.186614 -0.11797,-0.363262 z m -1.19146,2.378467 2.23956,-0.89394 0.19135,0.428929 -2.23952,0.89398 z m 1.38153,2.675797 -0.24719,-0.44359 0.39175,-0.419664 -0.45464,-0.815746 -0.58372,0.07483 -0.2426,-0.435519 2.59048,-0.282118 0.24237,0.435083 z m 0.43346,-1.177885 0.63839,-0.679536 -0.94886,0.122189 z m 1.05407,1.826357 0.34271,-0.21438 0.58251,0.832958 -0.80901,0.506195 c -0.13995,-0.02869 -0.2952,-0.100236 -0.46657,-0.214389 -0.17066,-0.11394 -0.31128,-0.249964 -0.42176,-0.407974 -0.14018,-0.200534 -0.21783,-0.402838 -0.23292,-0.607763 -0.0142,-0.20433 0.0348,-0.396441 0.14818,-0.575057 0.11343,-0.178627 0.26764,-0.329187 0.46264,-0.451166 0.21146,-0.132188 0.42865,-0.20778 0.65162,-0.227484 0.22307,-0.01863 0.43492,0.02441 0.6355,0.130705 0.15365,0.08093 0.29394,0.21249 0.42175,0.395582 0.16649,0.238009 0.24375,0.457214 0.23166,0.657152 -0.0131,0.199953 -0.0997,0.377181 -0.25841,0.532622 l -0.34614,-0.337757 c 0.0807,-0.08908 0.12416,-0.189359 0.12998,-0.300253 0.005,-0.110058 -0.0313,-0.220984 -0.10843,-0.332581 -0.11807,-0.168651 -0.2686,-0.267651 -0.45196,-0.295991 -0.18325,-0.02842 -0.38685,0.02706 -0.60996,0.166735 -0.24128,0.150924 -0.38665,0.31431 -0.43644,0.49049 -0.0493,0.176556 -0.0184,0.346433 0.0965,0.510432 0.0565,0.08075 0.13029,0.151346 0.22076,0.211592 0.0907,0.06068 0.18034,0.104743 0.26938,0.133142 l 0.25705,-0.160899 z m 0.10541,1.647212 1.88627,-1.450195 0.30061,0.349741 -0.63317,1.706223 1.26425,-0.972042 0.28679,0.334008 -1.88628,1.450207 -0.31025,-0.360918 0.61864,-1.67631 -1.23984,0.953156 z m 2.35258,0.923596 c 0.17722,-0.163626 0.35227,-0.275971 0.52481,-0.337236 0.12699,-0.0447 0.25965,-0.06699 0.39706,-0.06743 0.13735,-2.83e-4 0.26249,0.02226 0.37643,0.06761 0.15167,0.06023 0.2968,0.157299 0.43516,0.291373 0.25057,0.242903 0.37087,0.510337 0.36239,0.803103 -0.009,0.292943 -0.15588,0.570047 -0.43975,0.832289 -0.28146,0.25978 -0.57635,0.390759 -0.88391,0.392789 -0.3084,0.0026 -0.58705,-0.11802 -0.83658,-0.359231 -0.25264,-0.244766 -0.37491,-0.512614 -0.36538,-0.803029 0.008,-0.290275 0.15178,-0.563814 0.42977,-0.820253 z m 0.36507,0.331519 c -0.19724,0.182144 -0.30205,0.363405 -0.31506,0.543727 -0.0126,0.180003 0.0492,0.336662 0.18615,0.469216 0.13713,0.132873 0.30001,0.1949 0.48881,0.187104 0.18899,-0.0086 0.38432,-0.105696 0.58626,-0.292181 0.19978,-0.184342 0.30609,-0.363224 0.3182,-0.536848 0.0132,-0.173588 -0.0507,-0.328671 -0.19331,-0.466095 -0.14141,-0.137256 -0.30538,-0.202017 -0.49125,-0.194219 -0.18618,0.0084 -0.3794,0.104304 -0.5798,0.289291 z m 1.29199,-0.690311 0.51607,-0.171168 0.36276,0.351597 -0.67497,0.01736 z m -0.18171,2.331346 0.40193,0.24998 c -0.0782,0.134937 -0.10701,0.255371 -0.0864,0.362955 0.0212,0.107424 0.0895,0.205433 0.20494,0.293924 0.12224,0.09353 0.23556,0.139738 0.33965,0.138275 0.10402,-0.0015 0.18437,-0.03518 0.24063,-0.10077 0.036,-0.04261 0.0544,-0.08831 0.0538,-0.138158 -9e-4,-0.04945 -0.0241,-0.110369 -0.0706,-0.18165 -0.0319,-0.0492 -0.11074,-0.15237 -0.23699,-0.3109 -0.16219,-0.204236 -0.2545,-0.37278 -0.27666,-0.506151 -0.0311,-0.187009 0.0143,-0.351313 0.13554,-0.493329 0.0778,-0.09108 0.17845,-0.155892 0.30065,-0.193896 0.12256,-0.03757 0.25243,-0.03798 0.39037,-0.0011 0.13826,0.03703 0.2791,0.110379 0.42435,0.221654 0.23595,0.180807 0.37167,0.366688 0.40573,0.557395 0.0346,0.191042 -0.0159,0.371235 -0.15222,0.54181 l -0.3932,-0.280529 c 0.0622,-0.1048 0.0845,-0.197562 0.0662,-0.278791 -0.019,-0.08107 -0.0812,-0.162777 -0.18755,-0.244121 -0.1098,-0.08421 -0.21461,-0.128642 -0.31362,-0.132878 -0.0637,-0.0027 -0.11581,0.01866 -0.15583,0.06522 -0.036,0.04251 -0.0479,0.09328 -0.0361,0.152137 0.0147,0.07544 0.0967,0.204498 0.24678,0.387999 0.14999,0.182892 0.2496,0.330967 0.3002,0.442818 0.0501,0.112419 0.0684,0.225965 0.0532,0.341309 -0.015,0.115356 -0.0716,0.229461 -0.16822,0.342035 -0.0878,0.102496 -0.19978,0.175504 -0.33659,0.218851 -0.13689,0.04335 -0.27866,0.04486 -0.42563,0.0038 -0.14743,-0.03997 -0.30315,-0.123927 -0.46709,-0.249625 -0.23872,-0.182739 -0.37755,-0.375303 -0.41624,-0.577768 -0.0385,-0.201892 0.0148,-0.412026 0.16066,-0.630454 z m 1.82483,2.28502 1.11975,-1.59029 -0.59894,-0.377286 0.22753,-0.323413 1.60502,1.011056 -0.22779,0.323355 -0.59612,-0.375486 -1.11974,1.590211 z m 1.26321,0.782612 1.29718,-1.944467 0.41626,0.248473 -1.29708,1.944469 z m 2.61349,0.420304 0.35001,0.334209 c -0.19102,0.19047 -0.39188,0.301733 -0.60301,0.334338 -0.21085,0.03208 -0.43125,-0.0098 -0.66104,-0.126441 -0.28474,-0.144468 -0.4664,-0.355135 -0.54554,-0.632186 -0.0788,-0.276652 -0.0275,-0.574727 0.15307,-0.894023 0.1913,-0.337215 0.43221,-0.552516 0.72212,-0.646149 0.29002,-0.09336 0.58517,-0.06366 0.88547,0.08853 0.26223,0.1331 0.43334,0.314719 0.51371,0.544386 0.0488,0.136417 0.0503,0.297708 0.007,0.485285 l -0.48232,-0.120831 c 0.0344,-0.117438 0.0281,-0.227435 -0.0174,-0.329038 -0.0465,-0.101729 -0.12693,-0.181532 -0.24169,-0.239634 -0.15886,-0.08076 -0.31849,-0.09242 -0.4786,-0.03466 -0.16016,0.05721 -0.30844,0.206726 -0.44534,0.448178 -0.1448,0.25576 -0.19986,0.462879 -0.16369,0.620846 0.0358,0.158524 0.1317,0.276946 0.28793,0.356187 0.11514,0.05837 0.23383,0.07438 0.35601,0.04696 0.12209,-0.02726 0.24334,-0.10543 0.36351,-0.235837 z m 0.67667,0.04618 c 0.0823,-0.221111 0.1869,-0.395095 0.31271,-0.522289 0.0933,-0.09324 0.20168,-0.168901 0.3245,-0.226648 0.12284,-0.05778 0.24588,-0.08996 0.36913,-0.09719 0.16434,-0.0095 0.33988,0.01687 0.52665,0.07915 0.33843,0.112793 0.5714,0.302276 0.70076,0.568401 0.12865,0.266508 0.12731,0.576405 -0.004,0.930267 -0.13065,0.350886 -0.33386,0.591952 -0.60865,0.722586 -0.27532,0.131266 -0.58163,0.140389 -0.9182,0.02817 -0.34106,-0.113822 -0.57614,-0.302642 -0.70368,-0.567161 -0.12786,-0.263979 -0.12742,-0.56905 8.9e-4,-0.915319 z m 0.48266,0.144268 c -0.0921,0.245773 -0.10097,0.452329 -0.0281,0.619482 0.0727,0.166847 0.20198,0.281136 0.38651,0.342743 0.18523,0.06174 0.3603,0.04921 0.52598,-0.03678 0.16556,-0.08672 0.29518,-0.255686 0.38898,-0.507549 0.0932,-0.248823 0.10434,-0.453874 0.0337,-0.614643 -0.0693,-0.161084 -0.19987,-0.27317 -0.39137,-0.337028 -0.19116,-0.06365 -0.36851,-0.05323 -0.53147,0.03168 -0.16304,0.08514 -0.29136,0.252241 -0.38446,0.502103 z m 3.16945,2.175677 0.25757,-0.936468 -0.50735,-1.501111 0.55681,0.137227 0.31358,1.018001 0.7841,-0.747444 0.54655,0.134649 -1.21813,1.079139 -0.25679,0.93336 z m 2.99801,0.544904 0.20696,-1.900616 -0.71594,-0.06971 0.0423,-0.386545 1.91815,0.186796 -0.0422,0.386501 -0.71262,-0.06939 -0.20697,1.900598 z m 1.51953,0.142565 0.0858,-2.297942 1.79832,0.06047 -0.0142,0.388383 -1.30627,-0.04393 -0.0195,0.510225 1.21473,0.04077 -0.0142,0.388402 -1.21478,-0.04082 -0.0229,0.622569 1.35376,0.04545 -0.0142,0.388402 z m 2.26376,0.0348 -0.11524,-2.296656 1.03272,-0.04637 c 0.25946,-0.01157 0.44921,7.36e-4 0.56891,0.03676 0.12006,0.03587 0.21765,0.104811 0.2936,0.206984 0.0764,0.102698 0.11763,0.221438 0.12448,0.357172 0.008,0.172819 -0.0373,0.317302 -0.13838,0.434235 -0.10129,0.117207 -0.25695,0.194932 -0.46807,0.233834 0.10877,0.05365 0.19894,0.113823 0.27079,0.180702 0.0723,0.06702 0.17145,0.187479 0.29662,0.360762 l 0.31877,0.434717 -0.58608,0.02629 -0.37666,-0.485648 c -0.13498,-0.172338 -0.22705,-0.280792 -0.27626,-0.325171 -0.0488,-0.04402 -0.0999,-0.07381 -0.15225,-0.08862 -0.0534,-0.01514 -0.13651,-0.01924 -0.24948,-0.01443 l -0.1,0.0045 0.0482,0.958958 z m 0.42518,-1.346752 0.36296,-0.0164 c 0.23518,-0.01053 0.38108,-0.02662 0.43885,-0.04794 0.0579,-0.02144 0.10214,-0.05617 0.13243,-0.103528 0.0314,-0.04755 0.0448,-0.106017 0.0412,-0.174884 -0.004,-0.07762 -0.0298,-0.138627 -0.0752,-0.18471 -0.046,-0.04562 -0.10898,-0.07279 -0.18883,-0.0816 -0.0405,-0.0039 -0.15975,-8.82e-4 -0.35806,0.0081 l -0.38276,0.01724 0.0292,0.583789 z m 4.18088,0.850323 -0.52299,0.08139 -0.29704,-0.48409 -0.96191,0.149683 -0.10934,0.547512 -0.5137,0.07999 0.53685,-2.413648 0.51275,-0.07986 z m -1.04411,-0.761598 -0.47949,-0.78788 -0.17747,0.890219 z m 1.29716,0.690434 -0.58985,-2.230532 0.76364,-0.180689 c 0.28932,-0.06842 0.48043,-0.102099 0.57424,-0.100496 0.14386,0.0018 0.27615,0.04765 0.397,0.138328 0.12063,0.09072 0.20458,0.22479 0.25151,0.402298 0.036,0.137035 0.0408,0.258157 0.0129,0.363822 -0.0281,0.105856 -0.0752,0.194847 -0.14147,0.267484 -0.0669,0.072 -0.1398,0.126826 -0.21871,0.163641 -0.10794,0.0482 -0.26923,0.09788 -0.48441,0.148767 l -0.30968,0.0733 0.22244,0.841105 z m -0.0127,-1.966552 0.16788,0.63548 0.25965,-0.06151 c 0.18724,-0.04421 0.30878,-0.08562 0.36568,-0.12398 0.0572,-0.0382 0.0961,-0.08632 0.11898,-0.145158 0.0225,-0.05815 0.0248,-0.120097 0.007,-0.18667 -0.022,-0.08141 -0.0651,-0.142477 -0.12859,-0.183727 -0.0647,-0.04092 -0.13629,-0.05917 -0.21718,-0.05479 -0.0588,0.0034 -0.17423,0.02531 -0.34537,0.06578 z m 2.17477,1.391981 -0.75402,-2.185935 0.46782,-0.144405 0.75413,2.185847 z m 2.93209,-1.083466 -0.48692,0.198524 -0.41181,-0.402091 -0.89526,0.36506 0.0334,0.556371 -0.478,0.194859 -0.0949,-2.464897 0.47741,-0.194592 z m -1.20782,-0.500697 -0.66641,-0.654956 0.0551,0.904403 z m 2.15627,0.04812 -1.15519,-2.022941 0.43305,-0.221267 1.1552,2.023046 z m 0.84234,-0.43545 -1.25895,-1.966764 0.40754,-0.233507 1.6996,0.828077 -0.84393,-1.318146 0.3893,-0.222937 1.25888,1.966784 -0.42053,0.241011 -1.67048,-0.810318 0.82777,1.292884 z m 2.50221,-1.558146 -1.22725,-1.517499 -0.57166,0.413622 -0.24973,-0.308547 1.53164,-1.108271 0.24961,0.308573 -0.56897,0.411768 1.22738,1.517549 z m 1.20656,-0.886103 -1.64616,-1.691511 1.3237,-1.152807 0.27829,0.285836 -0.96163,0.837431 0.36546,0.375585 0.89428,-0.778616 0.27823,0.285836 -0.89421,0.778686 0.44612,0.458255 0.9966,-0.867768 0.27818,0.285784 z m 1.77474,-2.818482 -0.30046,-0.264959 0.71978,-0.730606 0.70954,0.625458 c 0.003,0.135411 -0.0341,0.294978 -0.11149,0.479238 -0.0776,0.183598 -0.18448,0.344683 -0.32069,0.48343 -0.17334,0.175807 -0.36314,0.294462 -0.57002,0.356252 -0.20684,0.06138 -0.41601,0.06081 -0.62603,-0.0015 -0.21015,-0.06237 -0.40082,-0.169111 -0.57182,-0.319906 -0.1855,-0.163463 -0.31393,-0.3455 -0.38635,-0.546076 -0.0714,-0.200605 -0.0768,-0.405582 -0.014,-0.614919 0.0481,-0.160108 0.1497,-0.319961 0.30805,-0.480507 0.20567,-0.208723 0.41283,-0.331064 0.62132,-0.366726 0.20856,-0.03512 0.41091,0.0022 0.60791,0.113015 l -0.26626,0.39736 c -0.11048,-0.05345 -0.2236,-0.0699 -0.33906,-0.04931 -0.11438,0.02071 -0.21994,0.07975 -0.31636,0.177633 -0.14584,0.147878 -0.21235,0.309571 -0.19857,0.484931 0.0135,0.174954 0.11828,0.349261 0.31389,0.521786 0.21159,0.186488 0.41367,0.282049 0.60645,0.286591 0.19303,0.0042 0.3602,-0.06498 0.50184,-0.208622 0.0698,-0.07097 0.1253,-0.155245 0.16606,-0.252452 0.0413,-0.09751 0.0659,-0.190358 0.0736,-0.278794 l -0.22554,-0.198853 -0.38196,0.387597 z m 1.62431,-0.517401 -1.94157,-1.383511 0.62201,-0.780981 c 0.15648,-0.196186 0.28764,-0.326378 0.39336,-0.390484 0.1061,-0.0645 0.22431,-0.09146 0.356,-0.08142 0.13204,0.01018 0.25505,0.05621 0.36992,0.137696 0.14607,0.104048 0.23416,0.229802 0.26472,0.378223 0.0307,0.148395 -0.006,0.311386 -0.10864,0.490043 0.11321,-0.04478 0.21965,-0.07209 0.31997,-0.08157 0.10117,-0.0099 0.26173,-0.0043 0.48286,0.01449 l 0.55723,0.04587 -0.35304,0.443288 -0.63575,-0.03621 c -0.22636,-0.01196 -0.37349,-0.01407 -0.44081,-0.007 -0.0673,0.0077 -0.1237,0.02519 -0.1696,0.05427 -0.0461,0.02944 -0.10329,0.08663 -0.17096,0.172218 l -0.06,0.07534 0.81073,0.577677 z m -0.82376,-1.169899 0.21854,-0.27439 c 0.14181,-0.177804 0.22194,-0.294334 0.24138,-0.350071 0.0202,-0.05527 0.0198,-0.110064 2e-5,-0.162433 -0.0194,-0.05305 -0.0581,-0.10028 -0.11582,-0.141703 -0.0659,-0.04673 -0.13121,-0.0674 -0.1981,-0.06351 -0.0668,0.0042 -0.12898,0.0328 -0.18717,0.08527 -0.0295,0.02714 -0.10245,0.115766 -0.2221,0.265775 l -0.23059,0.289481 z m 3.4089,-2.472777 -0.28086,0.425251 -0.58049,-0.108947 -0.51661,0.781952 0.36201,0.439545 -0.27576,0.417491 -1.56121,-1.975561 0.27542,-0.417066 z m -1.29429,0.238253 -0.94207,-0.179958 0.58908,0.714181 z m 1.37153,-0.497141 -2.17299,-0.986679 0.21301,-0.419725 1.80264,0.818492 0.52743,-1.039357 0.37044,0.168207 z" />
          <g
             transform="translate(-248.13637,97.819552)"
             clip-path="url(#clipPath2268)"
             id="g18804">
            <g
               id="g18794"
               transform="matrix(0.94133003,0,0,0.92992354,112.23526,2.3193007)">
              <path
                 style="fill:#181818;fill-opacity:1;stroke:none;stroke-width:0.26458332px;stroke-linecap:round;stroke-linejoin:bevel;stroke-opacity:1"
                 d="m 219.35093,-36.924223 c 10.22594,5.280878 16.36491,-2.281224 17.76396,-6.247135 0.40368,-0.691109 0.80112,-1.384898 1.7849,-1.827393 1.77352,-0.164128 3.15922,-0.673874 4.82314,-1.961237 1.65395,-0.451962 2.48857,-1.189551 2.48643,-1.86354 0.46476,0.822779 2.7223,1.053288 3.96288,0.67996 2.42895,-0.150424 3.56847,1.372708 5.16346,1.051814 1.03794,-0.208822 1.84694,-1.160895 -1.07306,-1.901764 0.77664,-0.232067 1.39672,-0.665597 0.9987,-1.232428 -3.5935,-1.673588 -6.32096,-2.633963 -8.967,-3.527293 -3.54948,0.393492 -5.72299,1.18993 -8.58448,1.784895 -0.81956,-0.40222 -1.79382,-0.188825 -2.31292,0.250267 -2.67674,2.180886 -5.92427,3.737723 -6.86655,5.3594 -3.0149,2.354661 -5.06176,1.292691 -7.13958,0.339982 -1.22421,3.364088 -1.83462,6.353076 -2.03988,9.094472 z"
                 id="path18788"
                 inkscape:connector-curvature="0"
                 sodipodi:nodetypes="ccccccscccccccc" />
              <path
                 sodipodi:nodetypes="ccccccscccccccc"
                 inkscape:connector-curvature="0"
                 id="path18790"
                 d="m 219.15969,-37.455442 c 10.22594,5.280878 16.36491,-2.281224 17.76396,-6.247135 0.40368,-0.691109 0.80112,-1.384898 1.7849,-1.827393 1.77352,-0.164128 3.15922,-0.673874 4.82314,-1.961237 1.65395,-0.451962 2.48857,-1.189551 2.48643,-1.86354 0.46476,0.822779 2.7223,1.053288 3.96288,0.67996 2.42895,-0.150424 3.56847,1.372708 5.16346,1.051814 1.03794,-0.208822 1.84694,-1.160895 -1.07306,-1.901764 0.77664,-0.232067 1.39672,-0.665597 0.9987,-1.232428 -3.5935,-1.673588 -6.32096,-2.633963 -8.967,-3.527293 -3.54948,0.393492 -5.72299,1.18993 -8.58448,1.784895 -0.81956,-0.40222 -1.79382,-0.188825 -2.31292,0.250267 -2.67674,2.180886 -5.92427,3.737723 -6.86655,5.3594 -3.0149,2.354661 -5.06176,1.292691 -7.13958,0.339982 -1.22421,3.364088 -1.83462,6.353076 -2.03988,9.094472 z"
                 style="fill:url(#linearGradient4651);fill-opacity:1;stroke:#fffbfc;stroke-width:0.26458332px;stroke-linecap:round;stroke-linejoin:bevel;stroke-opacity:1" />
              <path
                 sodipodi:nodetypes="csscc"
                 inkscape:connector-curvature="0"
                 id="path18792"
                 d="m 232.79235,-47.491114 c 3.96088,-0.178172 3.20828,-1.021233 5.42443,-1.674873 2.93635,-0.866062 4.98856,-2.241888 6.28017,-2.562217 2.00129,-0.496339 1.54492,1.71805 1.00668,2.238746 -1.00613,0.716168 -1.85478,1.432335 -2.30248,2.148502"
                 style="fill:none;stroke:#ffffff;stroke-width:0.26458332;stroke-linecap:round;stroke-linejoin:miter;stroke-miterlimit:4;stroke-dasharray:none;stroke-opacity:1" />
            </g>
            <g
               transform="matrix(-0.94931457,0,0,-0.93790808,587.63222,-67.467954)"
               id="g18802">
              <path
                 sodipodi:nodetypes="ccccccscccccccc"
                 inkscape:connector-curvature="0"
                 id="path18796"
                 d="m 219.35093,-36.924223 c 10.22594,5.280878 16.36491,-2.281224 17.76396,-6.247135 0.40368,-0.691109 0.80112,-1.384898 1.7849,-1.827393 1.77352,-0.164128 3.15922,-0.673874 4.82314,-1.961237 1.65395,-0.451962 2.48857,-1.189551 2.48643,-1.86354 0.46476,0.822779 2.7223,1.053288 3.96288,0.67996 2.42895,-0.150424 3.56847,1.372708 5.16346,1.051814 1.03794,-0.208822 1.84694,-1.160895 -1.07306,-1.901764 0.77664,-0.232067 1.39672,-0.665597 0.9987,-1.232428 -3.5935,-1.673588 -6.32096,-2.633963 -8.967,-3.527293 -3.54948,0.393492 -5.72299,1.18993 -8.58448,1.784895 -0.81956,-0.40222 -1.79382,-0.188825 -2.31292,0.250267 -2.67674,2.180886 -5.92427,3.737723 -6.86655,5.3594 -3.0149,2.354661 -5.06176,1.292691 -7.13958,0.339982 -1.22421,3.364088 -1.83462,6.353076 -2.03988,9.094472 z"
                 style="fill:#181818;fill-opacity:1;stroke:none;stroke-width:0.26458332px;stroke-linecap:round;stroke-linejoin:bevel;stroke-opacity:1" />
              <path
                 style="fill:url(#linearGradient3627);fill-opacity:1;stroke:#fffbfc;stroke-width:0.26458332px;stroke-linecap:round;stroke-linejoin:bevel;stroke-opacity:1"
                 d="m 219.15969,-37.455442 c 10.22594,5.280878 16.36491,-2.281224 17.76396,-6.247135 0.40368,-0.691109 0.80112,-1.384898 1.7849,-1.827393 1.77352,-0.164128 3.15922,-0.673874 4.82314,-1.961237 1.65395,-0.451962 2.48857,-1.189551 2.48643,-1.86354 0.46476,0.822779 2.7223,1.053288 3.96288,0.67996 2.42895,-0.150424 3.56847,1.372708 5.16346,1.051814 1.03794,-0.208822 1.84694,-1.160895 -1.07306,-1.901764 0.77664,-0.232067 1.39672,-0.665597 0.9987,-1.232428 -3.5935,-1.673588 -6.32096,-2.633963 -8.967,-3.527293 -3.54948,0.393492 -5.72299,1.18993 -8.58448,1.784895 -0.81956,-0.40222 -1.79382,-0.188825 -2.31292,0.250267 -2.67674,2.180886 -5.92427,3.737723 -6.86655,5.3594 -3.0149,2.354661 -5.06176,1.292691 -7.13958,0.339982 -1.22421,3.364088 -1.83462,6.353076 -2.03988,9.094472 z"
                 id="path18798"
                 inkscape:connector-curvature="0"
                 sodipodi:nodetypes="ccccccscccccccc" />
              <path
                 style="fill:none;stroke:#ffffff;stroke-width:0.26458332;stroke-linecap:round;stroke-linejoin:miter;stroke-miterlimit:4;stroke-dasharray:none;stroke-opacity:1"
                 d="m 232.79235,-47.491114 c 3.96088,-0.178172 3.20828,-1.021233 5.42443,-1.674873 2.93635,-0.866062 4.98856,-2.241888 6.28017,-2.562217 2.00129,-0.496339 1.54492,1.71805 1.00668,2.238746 -1.00613,0.716168 -1.85478,1.432335 -2.30248,2.148502"
                 id="path18800"
                 inkscape:connector-curvature="0"
                 sodipodi:nodetypes="csscc" />
            </g>
          </g>
        </g>
        <g
           id="g5888"
           transform="translate(0.96160899,-0.01678707)">
          <path
             id="path18808"
             d="m 104.38135,193.81711 c -2.70808,0 -4.919074,2.19787 -4.919074,4.91908 0,2.72115 2.210994,4.91908 4.919074,4.91908 2.72116,0 4.91908,-2.19787 4.91908,-4.91908 0,-2.72115 -2.19788,-4.91908 -4.91908,-4.91908 z m 15.79749,0.004 c -0.5511,0.003 -1.10069,0.14677 -1.5782,0.41496 -0.91578,0.51024 -1.46536,1.4261 -1.47846,2.43345 -0.013,0.74573 0.28805,1.47867 0.81132,2.00194 0.6934,0.69334 1.63538,0.78464 2.10633,1.05937 0.57567,0.28783 0.70646,0.98115 0.28784,1.45211 -0.35322,0.39251 -0.86366,0.44484 -1.34772,0.28784 -0.35324,-0.13083 -0.66704,-0.36624 -1.04645,-0.34004 -0.31399,0.0262 -0.6149,0.1962 -0.78497,0.45786 -0.314,0.48406 -0.20965,1.15121 0.27441,1.4521 1.3083,0.81112 3.23168,0.91617 4.48758,-0.48369 0.56256,-0.61489 0.81109,-1.42613 0.74569,-2.22415 -0.0916,-1.02045 -0.70651,-1.98886 -1.64848,-2.4598 -0.52327,-0.26168 -1.55697,-0.40515 -1.7663,-0.94154 -0.24856,-0.62795 0.60183,-1.22985 1.39991,-0.90279 0.65417,0.26161 1.19028,0.15658 1.5043,-0.34055 0.28783,-0.4579 0.11783,-1.13777 -0.3793,-1.43867 -0.48406,-0.29435 -1.0364,-0.43166 -1.5875,-0.4284 z m -48.934998,0.0749 c -0.57562,0 -1.046446,0.47098 -1.046446,1.03353 v 7.60109 c 0,0.57562 0.470768,1.04645 1.046446,1.04645 0.575622,0 1.046448,-0.47077 1.046448,-1.04645 v -4.69688 c 0.183171,0.26167 3.2185,4.68396 3.375504,4.93252 0.104659,0.15701 0.22211,0.35284 0.352951,0.48369 0.667235,0.64107 1.83193,0.23573 1.83193,-0.71934 v -7.60109 c 0,-0.56255 -0.471289,-1.03353 -1.046964,-1.03353 -0.575622,0 -1.033528,0.47098 -1.033528,1.03353 v 4.74907 c -1.255901,-1.83157 -3.466783,-5.04983 -3.689181,-5.33766 -0.222401,-0.27473 -0.483939,-0.44494 -0.83716,-0.44494 z m 8.764323,0 c -0.57562,0 -1.046964,0.47098 -1.046964,1.03353 v 7.61401 c 0,0.56255 0.471286,1.03353 1.046964,1.03353 h 3.257166 c 0.562557,0 1.033529,-0.47098 1.033529,-1.03353 0,-0.58874 -0.470972,-1.05937 -1.033529,-1.05937 h -2.210718 v -1.83193 h 2.093412 c 0.510228,0 0.915707,-0.40548 0.915707,-0.9157 0,-0.49713 -0.405479,-0.91571 -0.915707,-0.91571 h -2.093412 v -1.83141 h 2.210718 c 0.562557,0 1.033529,-0.47115 1.033529,-1.05989 0,-0.56255 -0.470972,-1.03353 -1.033529,-1.03353 z m 6.322613,0 c -0.575678,0 -1.046965,0.47098 -1.046965,1.03353 v 5.49476 c 0,1.77919 1.452079,3.23132 3.231328,3.23132 h 5.29e-4 c 1.779188,0 3.231327,-1.45207 3.231327,-3.23132 v -5.49476 c 0,-0.56255 -0.471345,-1.03353 -1.046964,-1.03353 -0.562557,0 -1.033529,0.47098 -1.033529,1.03353 v 5.49476 c 0,0.62795 -0.510302,1.13843 -1.15135,1.13843 -0.641014,0 -1.150835,-0.51048 -1.150835,-1.13843 v -5.49476 c 0,-0.56255 -0.470971,-1.03353 -1.033528,-1.03353 z m 7.487914,0 c -0.562578,0 -1.033528,0.4713 -1.033528,1.04697 v 7.58765 c 0,0.57562 0.47095,1.04645 1.033528,1.04645 0.588722,0 1.059368,-0.47077 1.059368,-1.04645 v -2.62981 h 0.196368 l 1.85777,3.16621 c 0.327056,0.54945 0.967853,0.62767 1.425752,0.35295 0.497107,-0.3009 0.667671,-0.91552 0.379823,-1.42575 l -1.452626,-2.45929 c 0.941943,-0.49712 1.569931,-1.49143 1.569931,-2.64273 0,-1.6484 -1.334159,-2.9962 -2.995684,-2.9962 z m 17.515728,0 c -0.58874,0 -1.04645,0.4713 -1.04645,1.04697 v 7.58765 c 0,0.57562 0.45771,1.04645 1.04645,1.04645 0.57562,0 1.04696,-0.47077 1.04696,-1.04645 v -2.62981 h 0.98082 c 1.66147,0 3.00912,-1.34714 3.00912,-3.00861 0,-1.6484 -1.34765,-2.9962 -3.00912,-2.9962 z m 13.35061,0 c -0.57562,0 -1.03353,0.47098 -1.03353,1.03353 v 7.61401 c 0,0.56255 0.45791,1.03353 1.03353,1.03353 0.57562,0 1.03352,-0.47098 1.03352,-1.03353 v -7.61401 c 0,-0.56255 -0.4579,-1.03353 -1.03352,-1.03353 z m -20.31711,2.00195 c 1.54375,0 2.8391,1.29484 2.8391,2.83859 0,1.54373 -1.29535,2.8391 -2.8391,2.8391 -1.56989,0 -2.81275,-1.2692 -2.81275,-2.8391 0,-1.56991 1.24286,-2.83859 2.81275,-2.83859 z m -9.48986,0.0915 h 0.981334 c 0.510228,0 0.915707,0.40567 0.915707,0.90278 0,0.52329 -0.405479,0.91571 -0.915707,0.91571 H 94.87806 Z m 17.50332,0 h 0.98082 c 0.51023,0 0.91622,0.40567 0.91622,0.90278 0,0.52329 -0.40599,0.91571 -0.91622,0.91571 h -0.98082 z"
             style="fill:url(#linearGradient5820);fill-opacity:1;fill-rule:evenodd;stroke:none;stroke-width:0.52916664;stroke-linecap:round;stroke-linejoin:bevel;stroke-miterlimit:4;stroke-dasharray:none;stroke-opacity:1;paint-order:stroke fill markers"
             inkscape:connector-curvature="0" />
          <text
             xml:space="preserve"
             style="font-style:normal;font-variant:normal;font-weight:600;font-stretch:normal;font-size:2.44482708px;line-height:1.25;font-family:Poppins;-inkscape-font-specification:'Poppins, Semi-Bold';font-variant-ligatures:normal;font-variant-caps:normal;font-variant-numeric:normal;font-feature-settings:normal;text-align:center;letter-spacing:0px;word-spacing:0px;writing-mode:lr-tb;text-anchor:middle;fill:#24358b;fill-opacity:1;stroke:none;stroke-width:0.13097286"
             x="97.939621"
             y="210.36421"
             id="text5078"><tspan
               sodipodi:role="line"
               x="97.939621"
               y="210.36421"
               style="font-style:normal;font-variant:normal;font-weight:600;font-stretch:normal;font-size:2.44482708px;font-family:Poppins;-inkscape-font-specification:'Poppins, Semi-Bold';font-variant-ligatures:normal;font-variant-caps:normal;font-variant-numeric:normal;font-feature-settings:normal;text-align:center;writing-mode:lr-tb;text-anchor:middle;fill:#24358b;fill-opacity:1;stroke-width:0.13097286"
               id="tspan5076">CENTRO DE DIAGNSTICO Y TERAPIA INTEGRAL</tspan></text>
          <rect
             y="205.73453"
             x="69.93206"
             height="0.76495528"
             width="56.051826"
             id="rect5874"
             style="opacity:1;fill:url(#linearGradient5882);fill-opacity:1;stroke:none;stroke-width:0.34973419;stroke-linecap:round;stroke-linejoin:round;stroke-miterlimit:4;stroke-dasharray:none;stroke-dashoffset:0;stroke-opacity:1;paint-order:stroke fill markers" />
        </g>
      </g>
    </g>
  </g>
</svg>
