<?xml version="1.0" encoding="UTF-8" standalone="no"?>
<!-- Created with Inkscape (http://www.inkscape.org/) -->

<svg
   xmlns:dc="http://purl.org/dc/elements/1.1/"
   xmlns:cc="http://creativecommons.org/ns#"
   xmlns:rdf="http://www.w3.org/1999/02/22-rdf-syntax-ns#"
   xmlns:svg="http://www.w3.org/2000/svg"
   xmlns="http://www.w3.org/2000/svg"
   xmlns:sodipodi="http://sodipodi.sourceforge.net/DTD/sodipodi-0.dtd"
   xmlns:inkscape="http://www.inkscape.org/namespaces/inkscape"
   width="305"
   height="325"
   viewBox="0 0 80.697914 85.989586"
   version="1.1"
   id="svg2581"
   inkscape:version="0.92.4 (unknown)"
   sodipodi:docname="password.svg">
  <defs
     id="defs2575">
    <clipPath
       id="clipPath1322"
       clipPathUnits="userSpaceOnUse">
      <path
         inkscape:connector-curvature="0"
         id="path1320"
         d="m 437.113,4182.87 54.754,-31.82 c 2.555,-1.49 4.141,-4.65 4.153,-9.14 0.027,-9.11 -6.329,-20.12 -14.196,-24.66 l -54.754,31.81 c 7.868,4.55 14.223,15.56 14.2,24.67 -0.016,4.49 -1.602,7.65 -4.157,9.14" />
    </clipPath>
    <clipPath
       id="clipPath1360"
       clipPathUnits="userSpaceOnUse">
      <path
         inkscape:connector-curvature="0"
         id="path1358"
         d="m 437.113,4182.87 54.754,-31.82 c -2.59,1.5 -6.176,1.29 -10.137,-0.99 l -54.75,31.82 c 3.958,2.28 7.543,2.5 10.133,0.99" />
    </clipPath>
    <clipPath
       id="clipPath1404"
       clipPathUnits="userSpaceOnUse">
      <path
         inkscape:connector-curvature="0"
         id="path1402"
         d="m 331.98,4035.62 -54.753,31.82 c -2.567,1.49 -4.161,4.65 -4.172,9.17 -0.028,9.04 6.398,20.09 14.265,24.64 l 54.75,-31.82 c -7.863,-4.55 -14.289,-15.59 -14.265,-24.63 0.011,-4.52 1.609,-7.69 4.175,-9.18" />
    </clipPath>
    <clipPath
       id="clipPath2316"
       clipPathUnits="userSpaceOnUse">
      <path
         inkscape:connector-curvature="0"
         id="path2314"
         d="m 857.406,349.352 c -3.992,3.039 -9.125,5.25 -14.824,6.628 -1.418,0.34 -2.867,0.629 -4.348,0.872 -3.222,0.507 -6.566,0.769 -9.961,0.769 -1.574,0 -3.16,-0.062 -4.746,-0.172 -1.363,-0.097 -2.726,-0.238 -4.086,-0.418 -4.617,-0.629 -9.183,-1.742 -13.562,-3.402 -11.734,9.023 -22.574,18.371 -31.856,28.062 -4.031,4.2 -7.726,8.481 -11.109,12.821 -19.531,25.09 -27.269,52.418 -12.098,82.386 20.965,4.532 41.344,6.543 61.137,6.543 26.832,0 52.594,-3.679 77.317,-9.761 7.492,-1.84 14.902,-3.871 22.207,-6.11 16.265,-5.011 32.058,-10.929 47.378,-17.371 l -0.398,-0.48 c -2.375,-2.637 -3.922,-5.387 -4.652,-8.16 l -0.43,-2.489 c -0.285,-3.109 0.445,-6.179 2.117,-9.039 l 1.723,-2.48 c 2.586,-3.129 6.406,-5.891 11.394,-8.012 -2.543,-2.719 -5.152,-5.309 -7.828,-7.859 l -2.222,-2.121 C 948.543,400.34 937.008,391.73 921.301,381.18 l -1.168,-0.801 -1.735,-1.02 c -16.75,-9.918 -30.527,-17.25 -45.433,-23.718 -1.121,-0.481 -2.277,-0.95 -3.418,-1.43 -3.93,-1.652 -7.93,-3.27 -12.141,-4.859 m -27.136,21.66 c 10.785,0 21.289,-1.703 30.324,-4.981 13.844,5.938 27.097,12.938 44.429,23.258 10.938,7.332 19.461,13.481 26.696,19.32 3.558,2.86 6.722,5.661 9.773,8.481 -3.547,3.101 -6.105,6.531 -7.808,10.14 -0.61,1.399 -1.106,2.84 -1.481,4.29 -0.402,1.859 -0.648,3.769 -0.621,5.66 0.043,2.41 0.441,4.851 1.262,7.289 -44.574,17.472 -84.031,25.972 -121.926,25.972 -14.176,0 -28.125,-1.191 -42.047,-3.55 -4.277,-11.36 -5.098,-22.629 -2.269,-34.09 0.445,-1.789 0.925,-3.539 1.566,-5.34 0.422,-1.301 0.918,-2.59 1.457,-3.902 2.289,-5.707 5.547,-11.5 9.695,-17.379 8.219,-11.668 19.918,-23.719 35.293,-36.371 5.196,0.812 10.457,1.203 15.657,1.203 m 81.726,32.488 -7.394,4.27 c 3.843,2.789 7.312,5.441 10.457,7.968 l 1.546,1.274 c -1.351,1.898 -2.527,3.918 -3.503,5.988 -0.821,1.879 -1.461,3.762 -1.985,5.801 -0.574,2.66 -0.844,5.148 -0.808,7.48 l 0.035,1.039 c -33.473,12.301 -63.371,18.879 -91.696,20.078 L 807.207,464 c 0.981,0.02 1.961,0.02 2.941,0.02 33.684,0 68.911,-7.188 108.707,-22.059 l 2.45,-0.922 -0.2,-1.797 -0.16,-2.5 c -0.027,-2.043 0.207,-4.242 0.707,-6.543 0.45,-1.758 1.024,-3.437 1.731,-5.051 1.097,-2.339 2.508,-4.617 4.176,-6.726 l 1.308,-1.652 -1.879,-1.61 c -1.215,-1.039 -2.406,-2.019 -3.597,-2.98 -3.414,-2.758 -7.161,-5.621 -11.395,-8.68" />
    </clipPath>
    <clipPath
       id="clipPath2914"
       clipPathUnits="userSpaceOnUse">
      <path
         style="clip-rule:evenodd"
         inkscape:connector-curvature="0"
         id="path2912"
         d="m 4050.63,1739.43 -49.14,28.35 c -24.57,-10.71 -60.39,-16.11 -73.17,-5.13 -0.18,2.97 0,10.35 0,12.24 -3.24,4.05 -4.23,10.44 -5.58,20.16 -1.35,12.96 -2.61,24.93 -3.6,35.73 -3.78,42.57 -4.68,69.66 -4.05,83.7 0,2.79 0.18,4.95 0.36,6.66 10.89,12.87 29.79,26.28 45.45,36.27 0.27,0.18 0.63,0.27 0.9,0.36 -0.18,1.17 -0.18,2.34 0.18,3.6 0.45,1.71 5.04,14.67 5.31,16.47 0.99,8.37 -1.26,2.52 -1.08,18.72 0.09,6.93 1.8,15.75 6.21,21.24 4.59,5.85 7.92,10.89 14.67,12.69 9.09,2.43 19.44,1.53 27.54,-3.42 1.08,0.72 2.16,1.44 3.24,2.16 1.89,-1.98 3.78,-5.13 5.49,-8.82 0.09,0 0.09,0 0.18,0 2.7,-0.63 4.86,-2.88 5.94,-5.4 1.08,-2.61 1.26,-5.49 1.44,-8.28 0.45,-14.04 -1.44,-28.17 -5.49,-41.67 4.86,-4.5 9.18,-11.07 11.97,-19.62 4.59,-14.76 6.3,-43.47 9,-70.92 2.34,-2.34 4.32,-4.41 6.21,-6.21 8.82,-8.64 15.84,-15.03 33.3,-29.97 l 2.16,1.26 h 2.43 l 63.09,-36.45 v -1.44 l -2.43,-1.35 2.43,-1.44 v -1.44 l -100.53,-58.05 h -2.43 m -22.86,66.6 -0.09,-1.26 v -0.09 l 26.37,15.21 -19.26,10.53 6.03,2.16 c -2.25,0.72 -4.23,1.44 -6.03,2.16 -1.62,0.63 -3.15,1.35 -4.68,2.16 -1.17,-18.27 -2.34,-30.87 -2.34,-30.87" />
    </clipPath>
    <clipPath
       id="clipPath2926"
       clipPathUnits="userSpaceOnUse">
      <path
         style="clip-rule:evenodd"
         inkscape:connector-curvature="0"
         id="path2924"
         d="m 2905.47,697.5 c 3.96,4.32 8.55,8.191 13.23,11.879 -1.53,6.031 -4.32,12.871 -5.13,16.293 -2.07,8.637 -3.33,16.469 -4.05,23.398 -3.33,32.578 5.13,47.43 5.13,47.43 0.63,1.621 1.8,2.969 2.97,4.23 3.96,3.872 9,6.661 14.4,7.829 6.39,1.441 12.96,0.632 19.35,-0.809 5.13,-1.262 10.26,-2.969 14.58,-6.121 5.22,-3.777 8.82,-9.449 11.07,-15.57 2.88,-7.649 3.96,-15.75 4.59,-24.028 0.72,-11.429 0.72,-23.043 3.78,-33.929 0.54,-1.891 1.17,-3.782 1.89,-5.672 -3.24,-0.989 -6.21,-2.43 -9.09,-4.141 -5.94,-3.328 -11.43,-7.738 -17.55,-10.891 l -2.25,-1.078 c 3.24,-0.629 6.57,-0.898 9.9,-0.898 -14.76,-5.942 -30.78,-9 -46.71,-9 -5.4,0 -10.8,0.359 -16.11,1.078 m -51.48,4.949 -6.93,1.711 -1.17,0.449 c -1.08,0.719 -0.99,1.801 -0.09,2.7 0.63,0.632 1.62,1.082 2.97,1.261 0.45,0.09 1.08,0 1.8,0 l -4.14,2.34 2.79,1.621 -0.36,0.18 -1.26,0.269 -2.34,-1.441 -4.86,2.793 1.17,0.719 c -0.27,0.359 -0.45,0.719 -0.54,1.078 l -1.8,-1.078 -4.86,2.789 6.03,3.422 4.77,-2.793 -0.36,-0.27 1.26,-0.09 c -0.63,0.45 -1.08,0.903 -1.26,1.442 -0.09,0.179 -0.18,0.449 -0.18,0.629 l -3.06,1.8 5.94,3.418 4.77,-2.789 c 0,0.09 0.09,0.18 0.09,0.18 l 1.17,0.543 -4.86,2.789 6.03,3.418 4.86,-2.789 -5.76,-3.238 2.16,-0.18 4.77,2.789 3.96,-2.25 2.34,-0.449 5.31,-1.981 4.59,-2.16 v -1.89 c 0.99,-0.36 2.07,-0.719 3.06,-1.172 l -0.54,-0.989 4.14,-2.339 -5.94,-3.512 -3.06,1.801 -0.54,-0.989 -0.27,0.09 2.7,-1.531 -6.03,-3.512 -4.86,2.793 0.36,0.18 -0.99,0.809 -0.36,-0.18 -0.36,-1.531 0.18,0.089 4.86,-2.789 -2.16,-1.257 c 0.09,-0.454 0.18,-0.903 0.18,-1.262 l 3.15,1.801 4.86,-2.789 -6.03,-3.422 -2.7,1.531 c -0.27,-0.539 -0.63,-1.082 -1.17,-1.621 l -1.17,-1.168 c -5.22,2.609 -10.08,5.848 -10.26,6.027 m -2.16,5.942 c 0.63,-0.09 1.26,-0.18 1.89,-0.27 l 2.34,1.348 -0.54,0.453 -0.63,0.269 -3.06,-1.8 m 17.37,3.058 1.17,-0.449 -0.81,-0.719 1.53,0.989 -0.63,0.539 -0.27,0.179 -0.99,-0.539 m -0.9,1.981 0.54,-0.36 -0.45,0.45 -0.09,-0.09 m -17.01,8.55 0.81,-0.089 c 0,0.269 0.09,0.449 0.18,0.629 l -0.99,-0.54 m 20.34,-17.371 6.03,3.422 4.86,-2.793 -6.03,-3.418 -4.86,2.789 m 7.2,4.141 5.94,3.422 4.86,-2.793 -5.94,-3.418 -4.86,2.789" />
    </clipPath>
    <clipPath
       id="clipPath2938"
       clipPathUnits="userSpaceOnUse">
      <path
         style="clip-rule:evenodd"
         inkscape:connector-curvature="0"
         id="path2936"
         d="m 2697.39,601.742 -50.4,29.067 -0.45,0.722 v 2.61 l 0.45,0.629 26.28,15.21 h 2.34 l 50.4,-29.07 v -0.629 l 0.45,-0.09 v -2.609 l -0.45,0.09 v -0.723 l -26.28,-15.207 h -2.34 m 55.8,55.348 6.03,3.422 4.86,-2.793 -6.03,-3.418 -4.86,2.789 m -6.03,3.422 6.03,3.508 4.86,-2.79 -6.03,-3.511 -4.86,2.793 m 7.2,4.136 6.03,3.512 4.77,-2.789 -5.94,-3.512 -4.86,2.789" />
    </clipPath>
  </defs>
  <sodipodi:namedview
     id="base"
     pagecolor="#ffffff"
     bordercolor="#666666"
     borderopacity="1.0"
     inkscape:pageopacity="0.0"
     inkscape:pageshadow="2"
     inkscape:zoom="0.99102953"
     inkscape:cx="441.01497"
     inkscape:cy="20.899265"
     inkscape:document-units="mm"
     inkscape:current-layer="layer1"
     showgrid="false"
     units="px"
     inkscape:window-width="1920"
     inkscape:window-height="1016"
     inkscape:window-x="0"
     inkscape:window-y="27"
     inkscape:window-maximized="1" />
  <metadata
     id="metadata2578">
    <rdf:RDF>
      <cc:Work
         rdf:about="">
        <dc:format>image/svg+xml</dc:format>
        <dc:type
           rdf:resource="http://purl.org/dc/dcmitype/StillImage" />
        <dc:title />
      </cc:Work>
    </rdf:RDF>
  </metadata>
  <g
     inkscape:label="Capa 1"
     inkscape:groupmode="layer"
     id="layer1"
     transform="translate(0,-211.0104)">
    <g
       id="g6077"
       transform="matrix(1.536999,0,0,1.536999,-277.38556,-186.24392)">
      <path
         d="m 181.2322,291.79815 13.54702,7.8214 c 0.33161,0.19155 0.8696,0.19155 1.20121,0 l 25.94328,-14.97891 c 0.1658,-0.0956 0.24906,-0.2212 0.24906,-0.34678 0,-0.12559 -0.0833,-0.25118 -0.24906,-0.34678 l -13.54667,-7.82144 c -0.33161,-0.19156 -0.8696,-0.19156 -1.20121,0 l -25.94363,14.97894 c -0.33161,0.19156 -0.33161,0.50201 0,0.69357"
         style="fill:#1d1d1b;fill-opacity:1;fill-rule:nonzero;stroke:none;stroke-width:0.03527778"
         id="path1534"
         inkscape:connector-curvature="0" />
      <path
         d="m 222.17277,282.94766 v 1.3462 l -41.18928,7.1762 0.001,-1.34126 41.18787,-7.18114"
         style="fill:#1d1d1b;fill-opacity:1;fill-rule:nonzero;stroke:none;stroke-width:0.03527778"
         id="path1536"
         inkscape:connector-curvature="0" />
      <path
         d="m 181.2322,290.45195 13.54702,7.82143 c 0.33161,0.19156 0.86925,0.19156 1.20121,0 l 25.94328,-14.97894 c 0.16616,-0.0956 0.24906,-0.2212 0.24906,-0.34678 0,-0.12559 -0.0829,-0.25118 -0.24906,-0.34678 l -13.54667,-7.82144 c -0.33161,-0.19156 -0.8696,-0.19156 -1.20121,0 l -25.94363,14.97894 c -0.33161,0.19121 -0.33161,0.50201 0,0.69357"
         style="fill:#3c3c3b;fill-opacity:1;fill-rule:nonzero;stroke:none;stroke-width:0.03527778"
         id="path1538"
         inkscape:connector-curvature="0" />
      <path
         d="m 182.98022,289.60881 23.34365,-13.47753 0.93628,0.54081 0.13617,0.0818 1.10737,0.63182 11.07546,6.40257 -23.33943,13.47505 -6.32777,-3.65407 -6.93173,-4.0005"
         style="fill:#6fdced;fill-opacity:1;fill-rule:nonzero;stroke:none;stroke-width:0.03527778"
         id="path1540"
         inkscape:connector-curvature="0" />
      <path
         d="m 193.54485,295.30017 -1.16134,-0.67028 8.08355,-14.70977 1.91452,-1.10526 -8.83673,16.48531"
         style="fill:#a9eaf4;fill-opacity:1;fill-rule:nonzero;stroke:none;stroke-width:0.03527778"
         id="path1542"
         inkscape:connector-curvature="0" />
      <path
         d="m 196.24007,296.85627 -1.7653,-1.01917 9.25689,-17.80188 2.59221,-1.49648 0.75989,0.43886 0.13053,0.0787 1.11477,0.6357 0.29281,0.16934 -8.74325,16.89382 -3.63855,2.10114"
         style="fill:#a9eaf4;fill-opacity:1;fill-rule:nonzero;stroke:none;stroke-width:0.03527778"
         id="path1544"
         inkscape:connector-curvature="0" />
      <path
         d="m 211.68927,278.75701 3.3461,1.93181 c 0.13688,0.079 0.35878,0.079 0.49565,0 l 0.86748,-0.50059 c 0.13723,-0.0794 0.13723,-0.20744 0,-0.28646 l -3.34609,-1.93181 c -0.13688,-0.079 -0.35878,-0.079 -0.49566,0 l -0.86748,0.50095 c -0.13688,0.079 -0.13688,0.20708 0,0.2861"
         style="fill:#ededed;fill-opacity:1;fill-rule:nonzero;stroke:none;stroke-width:0.03527778"
         id="path1546"
         inkscape:connector-curvature="0" />
      <path
         d="m 215.15919,280.61756 c 0.0684,0.0392 0.17957,0.0395 0.24801,0 l 0.86748,-0.50095 c 0.0684,-0.0395 0.0681,-0.10371 0,-0.14322 l -3.3461,-1.93182 c -0.0684,-0.0395 -0.17956,-0.0395 -0.248,0 l -0.86748,0.50095 c -0.0684,0.0392 -0.0684,0.10336 0,0.14287 l 3.34609,1.93217"
         style="fill:#1d1d1b;fill-opacity:1;fill-rule:nonzero;stroke:none;stroke-width:0.03527778"
         id="path1548"
         inkscape:connector-curvature="0" />
      <path
         d="m 189.26389,294.51841 c -0.0572,0.0328 -0.0572,0.0864 0,0.11924 0.0568,0.0328 0.14923,0.0328 0.20638,0 l 0.80574,-0.46531 c 0.0568,-0.0328 0.0568,-0.0861 -3.5e-4,-0.11924 -0.0568,-0.0328 -0.14922,-0.0328 -0.20637,0 l -0.8054,0.46531"
         style="fill:#273340;fill-opacity:1;fill-rule:nonzero;stroke:none;stroke-width:0.03527778"
         id="path1550"
         inkscape:connector-curvature="0" />
      <path
         d="m 188.82998,294.26794 c -0.0572,0.0328 -0.0572,0.0864 0,0.11924 0.0572,0.0328 0.14957,0.0328 0.20637,0 l 0.80575,-0.46496 c 0.0572,-0.0332 0.0572,-0.0864 0,-0.11924 -0.0571,-0.0332 -0.14958,-0.0332 -0.20673,0 l -0.80539,0.46496"
         style="fill:#273340;fill-opacity:1;fill-rule:nonzero;stroke:none;stroke-width:0.03527778"
         id="path1552"
         inkscape:connector-curvature="0" />
      <path
         d="m 188.39606,294.01747 c -0.0568,0.0328 -0.0568,0.0864 0,0.11924 0.0572,0.0332 0.14958,0.0332 0.20673,0 l 0.80539,-0.46496 c 0.0572,-0.0332 0.0572,-0.0864 0,-0.11924 -0.0568,-0.0332 -0.14923,-0.0332 -0.20638,0 l -0.80574,0.46496"
         style="fill:#273340;fill-opacity:1;fill-rule:nonzero;stroke:none;stroke-width:0.03527778"
         id="path1554"
         inkscape:connector-curvature="0" />
      <path
         d="m 187.9625,293.767 c -0.0572,0.0328 -0.0572,0.0864 0,0.11924 0.0568,0.0332 0.14922,0.0328 0.20637,0 l 0.80575,-0.46496 c 0.0568,-0.0332 0.0568,-0.0864 0,-0.11924 -0.0571,-0.0332 -0.14958,-0.0332 -0.20673,0 l -0.80539,0.46496"
         style="fill:#273340;fill-opacity:1;fill-rule:nonzero;stroke:none;stroke-width:0.03527778"
         id="path1556"
         inkscape:connector-curvature="0" />
      <path
         d="m 187.52858,293.51653 c -0.0568,0.0332 -0.0568,0.0864 0,0.11923 0.0572,0.0332 0.14958,0.0332 0.20673,0 l 0.80539,-0.46496 c 0.0572,-0.0328 0.0572,-0.0864 0,-0.11924 -0.0571,-0.0332 -0.14958,-0.0328 -0.20638,0 l -0.80574,0.46497"
         style="fill:#273340;fill-opacity:1;fill-rule:nonzero;stroke:none;stroke-width:0.03527778"
         id="path1558"
         inkscape:connector-curvature="0" />
      <path
         d="m 189.3669,294.66235 c -0.0374,0 -0.0748,-0.008 -0.10301,-0.0247 -0.0286,-0.0166 -0.043,-0.0381 -0.043,-0.0596 0,-0.0215 0.0145,-0.043 0.043,-0.0596 l 0.8054,-0.46531 c 0.0286,-0.0162 0.066,-0.0247 0.10336,-0.0247 0.0374,0 0.0748,0.008 0.10301,0.0247 0.0286,0.0166 0.043,0.0381 0.043,0.0596 0,0.0219 -0.0145,0.0434 -0.0427,0.0596 l -0.80574,0.46531 c -0.0286,0.0166 -0.066,0.0247 -0.10337,0.0247"
         style="fill:#131920;fill-opacity:1;fill-rule:nonzero;stroke:none;stroke-width:0.03527778"
         id="path1560"
         inkscape:connector-curvature="0" />
      <path
         d="m 188.93334,294.41188 c -0.0374,0 -0.0748,-0.008 -0.10336,-0.0247 -0.0286,-0.0166 -0.0427,-0.0381 -0.0427,-0.0596 0,-0.0215 0.0141,-0.043 0.0427,-0.0596 l 0.80539,-0.46496 c 0.0286,-0.0166 0.066,-0.0247 0.10336,-0.0247 0.0374,0 0.0748,0.008 0.10337,0.0247 0.0286,0.0162 0.0427,0.0378 0.0427,0.0596 0,0.0215 -0.0141,0.043 -0.0427,0.0596 l -0.80575,0.46496 c -0.0282,0.0166 -0.0656,0.0247 -0.10301,0.0247"
         style="fill:#131920;fill-opacity:1;fill-rule:nonzero;stroke:none;stroke-width:0.03527778"
         id="path1562"
         inkscape:connector-curvature="0" />
      <path
         d="m 188.49942,294.1614 c -0.0374,0 -0.0748,-0.008 -0.10336,-0.0247 -0.0286,-0.0166 -0.0427,-0.0381 -0.0427,-0.0596 0,-0.0215 0.0145,-0.043 0.0427,-0.0596 l 0.80574,-0.46496 c 0.0286,-0.0166 0.066,-0.0247 0.10337,-0.0247 0.0374,0 0.0744,0.008 0.10301,0.0247 0.0286,0.0162 0.043,0.0381 0.043,0.0596 0,0.0215 -0.0145,0.043 -0.043,0.0596 l -0.80539,0.46496 c -0.0286,0.0166 -0.066,0.0247 -0.10337,0.0247"
         style="fill:#131920;fill-opacity:1;fill-rule:nonzero;stroke:none;stroke-width:0.03527778"
         id="path1564"
         inkscape:connector-curvature="0" />
      <path
         d="m 188.06551,293.91093 c -0.0374,0 -0.0744,-0.008 -0.10301,-0.0247 -0.0286,-0.0162 -0.043,-0.0381 -0.043,-0.0596 0,-0.0215 0.0145,-0.043 0.043,-0.0596 l 0.80539,-0.46496 c 0.0286,-0.0166 0.066,-0.0247 0.10336,-0.0247 0.0374,0 0.0748,0.008 0.10337,0.0247 0.0286,0.0162 0.0427,0.0381 0.0427,0.0596 0,0.0215 -0.0141,0.043 -0.0427,0.0596 l -0.80575,0.46496 c -0.0286,0.0166 -0.066,0.0247 -0.10336,0.0247"
         style="fill:#131920;fill-opacity:1;fill-rule:nonzero;stroke:none;stroke-width:0.03527778"
         id="path1566"
         inkscape:connector-curvature="0" />
      <path
         d="m 187.63194,293.66046 c -0.0374,0 -0.0748,-0.008 -0.10336,-0.0247 -0.0286,-0.0162 -0.0427,-0.0381 -0.0427,-0.0596 0,-0.0215 0.0141,-0.043 0.0427,-0.0596 l 0.80574,-0.46497 c 0.0286,-0.0166 0.066,-0.0247 0.10337,-0.0247 0.037,0 0.0744,0.008 0.10301,0.0247 0.0286,0.0162 0.0427,0.0381 0.0427,0.0596 0,0.0215 -0.0141,0.043 -0.0427,0.0596 l -0.80539,0.46496 c -0.0286,0.0166 -0.066,0.0247 -0.10337,0.0247"
         style="fill:#131920;fill-opacity:1;fill-rule:nonzero;stroke:none;stroke-width:0.03527778"
         id="path1568"
         inkscape:connector-curvature="0" />
      <path
         d="m 193.54979,296.52784 c -0.14852,0.0857 -0.14817,0.22436 0,0.31009 0.14817,0.0857 0.38876,0.0857 0.53693,0 0.14852,-0.0857 0.14852,-0.22437 0,-0.31009 -0.14817,-0.0857 -0.38876,-0.0857 -0.53693,0"
         style="fill:#1d1d1b;fill-opacity:1;fill-rule:nonzero;stroke:none;stroke-width:0.03527778"
         id="path1570"
         inkscape:connector-curvature="0" />
      <path
         d="m 191.58764,295.39507 c -0.14852,0.0854 -0.14852,0.22436 0,0.30974 0.14817,0.0857 0.38876,0.0857 0.53693,3.5e-4 0.14817,-0.0857 0.14817,-0.22472 0,-0.31009 -0.14817,-0.0857 -0.38876,-0.0857 -0.53693,0"
         style="fill:#1d1d1b;fill-opacity:1;fill-rule:nonzero;stroke:none;stroke-width:0.03527778"
         id="path1572"
         inkscape:connector-curvature="0" />
      <path
         d="m 195.06603,288.04247 c -0.45191,1.03188 0.63429,2.08351 2.42111,2.34421 l 0.54046,0.079 c 1.78717,0.26106 3.60821,-0.36618 4.06012,-1.39806 l 0.4325,-0.86536 -1.16804,-0.67451 -0.5454,1.3529 c -0.27305,0.62407 -1.37477,1.00295 -2.45498,0.84526 l -0.54045,-0.0787 c -1.08056,-0.15769 -1.73743,-0.79375 -1.46403,-1.41782 l 0.48048,-1.09678 -1.28129,-0.18697 -0.48048,1.09678"
         style="fill:#3b84a8;fill-opacity:1;fill-rule:nonzero;stroke:none;stroke-width:0.03527778"
         id="path1574"
         inkscape:connector-curvature="0" />
      <path
         d="m 202.04045,286.05175 c -0.3549,0.20496 -0.9204,0.20249 -1.27071,0 -0.28504,-0.1644 -0.34113,-0.4124 -0.15416,-0.60678 0.0328,-0.0459 0.0885,-0.0889 0.15416,-0.12665 0.24765,-0.14323 0.59796,-0.18344 0.91087,-0.12135 l 1.56986,-0.90629 0.56974,0.32879 -1.56951,0.90629 c 0.10266,0.17815 0.0374,0.38311 -0.21025,0.52599 z m 1.05092,2.62996 2.49026,-1.43757 c 1.71909,-0.99272 1.71909,-2.60562 -3.5e-4,-3.59798 l -0.64911,-0.37501 c -1.71909,-0.99271 -4.50815,-0.98989 -6.22724,0.002 l -2.4899,1.43757 6.87634,3.97052"
         style="fill:#3b84a8;fill-opacity:1;fill-rule:nonzero;stroke:none;stroke-width:0.03527778"
         id="path1576"
         inkscape:connector-curvature="0" />
      <path
         d="m 201.89228,267.09382 h -2.46627 c 0.0632,1.23014 -0.0741,2.26413 -0.15381,3.10797 0,0.42334 0.13194,0.83468 0.37641,1.18005 0.67028,0.94685 2.07716,2.72062 2.90478,2.22602 1.11513,-0.66569 -0.93063,-3.17676 -0.93063,-3.17676 0.0582,-1.38077 0.19755,-2.60985 0.26952,-3.33728"
         style="fill:#d6b087;fill-opacity:1;fill-rule:nonzero;stroke:none;stroke-width:0.03527778"
         id="path1618"
         inkscape:connector-curvature="0" />
      <path
         d="m 203.33655,266.24292 h -2.46662 c 0.0631,1.23049 -0.0741,2.26413 -0.15346,3.10833 0,0.42298 0.13194,0.83432 0.37642,1.18004 0.66992,0.9465 2.0768,2.72027 2.90442,2.22603 1.11513,-0.66605 -0.93028,-3.17712 -0.93028,-3.17712 0.0582,-1.38077 0.19756,-2.60985 0.26952,-3.33728"
         style="fill:#d6b087;fill-opacity:1;fill-rule:nonzero;stroke:none;stroke-width:0.03527778"
         id="path1620"
         inkscape:connector-curvature="0" />
      <path
         d="m 214.52278,266.38862 -1.17439,3.296 -0.48719,1.36525 -1.13594,0.0194 -2.51848,0.0423 -4.84012,0.0808 c -0.0617,-0.0423 -0.12347,-0.0829 -0.18697,-0.12135 -0.11747,-0.0769 -0.23883,-0.15205 -0.35807,-0.22331 -1.25342,-0.74895 -2.61831,-1.26506 -4.07599,-1.79634 l -0.0808,1.98896 c 0,0 0.5909,0.7239 0.9645,1.49789 0.1598,0.33091 0.27904,0.66993 0.29668,0.96661 0.019,0.30022 -0.0695,0.55633 -0.32949,0.71226 -0.82762,0.4946 -2.2352,-1.27847 -2.90513,-2.22567 -0.24483,-0.34467 -0.37571,-0.75671 -0.37571,-1.1804 0.0176,-0.1905 0.0388,-0.39264 0.06,-0.60254 0.0787,-0.79516 0.1598,-1.72897 0.0748,-2.80917 0.16969,-1.18781 1.07633,-1.10702 1.76777,-1.29011 l 0.0363,-0.0152 c 0.1965,-0.0713 0.31574,-0.28716 0.48154,-0.53164 0.14252,-0.20955 0.3175,-0.44062 0.60255,-0.61806 0.25611,-0.15946 0.64311,-0.17322 0.98777,-0.21343 0.18662,-0.0194 0.35984,-0.0501 0.4946,-0.1136 0.11007,-0.054 0.1658,-0.13476 0.24271,-0.23318 0.0945,-0.12136 0.21943,-0.26565 0.52176,-0.40217 0.0579,-0.0272 0.14464,-0.0423 0.24659,-0.054 0.36195,-0.0406 0.9204,-0.0155 1.10137,-0.14816 0.0635,-0.0462 0.12489,-0.0868 0.18662,-0.12524 0.53905,-0.33902 1.04352,-0.42369 1.63477,-0.27728 2.78025,0.42545 5.72594,1.8676 8.76794,3.01131"
         style="fill:#ffd2a1;fill-opacity:1;fill-rule:nonzero;stroke:none;stroke-width:0.03527778"
         id="path1622"
         inkscape:connector-curvature="0" />
      <path
         d="m 200.27938,274.30248 c -0.17251,0 -0.35877,-0.0631 -0.55174,-0.17039 0.17674,-0.17639 0.37712,-0.33549 0.58772,-0.45896 0.002,0 0.004,0 0.006,0 0.19861,0 0.4004,-0.0603 0.60466,-0.16828 0.001,0.0258 0.002,0.0512 0.002,0.0762 0,0.26741 -0.0942,0.49354 -0.33196,0.63606 -0.0981,0.0586 -0.20461,0.0854 -0.31715,0.0854 m -1.16981,-0.63464 c -0.54786,-0.50165 -1.07809,-1.19557 -1.41817,-1.6764 -0.24483,-0.34467 -0.37571,-0.75671 -0.37571,-1.1804 0.0176,-0.1905 0.0388,-0.39264 0.06,-0.60254 0.0808,0.51011 0.1905,0.91263 0.381,1.08973 0.25541,0.93098 0.87524,1.5748 1.68169,2.01048 -0.11536,0.1143 -0.22507,0.2346 -0.32879,0.35913"
         style="fill:#e8c093;fill-opacity:1;fill-rule:nonzero;stroke:none;stroke-width:0.03527778"
         id="path1624"
         inkscape:connector-curvature="0" />
      <path
         d="m 201.28197,266.28279 c -0.66992,-0.10019 -1.34584,-0.16369 -2.02353,-0.18874 0.19262,-0.0713 0.31186,-0.28716 0.47766,-0.53164 0.0713,0.0483 0.18486,0.1136 0.45826,0.27341 0.36583,0.21378 0.67381,0.3563 1.08761,0.44697"
         style="fill:#e8c093;fill-opacity:1;fill-rule:nonzero;stroke:none;stroke-width:0.03527778"
         id="path1626"
         inkscape:connector-curvature="0" />
      <path
         d="m 202.80068,265.00538 c -0.47554,0 -1.05692,-0.14711 -1.47249,-0.27446 0.18485,-0.0194 0.35807,-0.0501 0.49283,-0.1136 0.11007,-0.054 0.1658,-0.13476 0.24271,-0.23318 0.31009,0.30444 0.71826,0.50835 1.14759,0.57185 -0.12065,0.0346 -0.26035,0.0494 -0.41064,0.0494"
         style="fill:#e8c093;fill-opacity:1;fill-rule:nonzero;stroke:none;stroke-width:0.03527778"
         id="path1628"
         inkscape:connector-curvature="0" />
      <path
         d="m 205.13678,264.1379 c -0.74331,-0.0984 -1.57904,-0.0155 -2.3047,-0.20991 0.36195,-0.0406 0.9204,-0.0155 1.10137,-0.14816 0.0635,-0.0462 0.12489,-0.0868 0.18662,-0.12524 0.31962,0.20003 0.6604,0.36195 1.01671,0.48331"
         style="fill:#e8c093;fill-opacity:1;fill-rule:nonzero;stroke:none;stroke-width:0.03527778"
         id="path1630"
         inkscape:connector-curvature="0" />
      <path
         d="m 200.33159,273.6636 c -0.69673,0.40217 -1.28517,1.1938 -1.28517,1.72897 3.5e-4,0.53516 0.58844,0.64734 1.28517,0.24518 0.69638,-0.40217 1.28482,-1.1938 1.28482,-1.72897 0,-0.53516 -0.58844,-0.64734 -1.28482,-0.24518 m 0,3.02154 c -1.20862,0.69745 -2.19181,0.35278 -2.19181,-0.76905 0,-1.12183 0.98319,-2.60209 2.19181,-3.29988 1.20827,-0.69745 2.19181,-0.35278 2.19181,0.76905 0,1.12183 -0.98354,2.60209 -2.19181,3.29988"
         style="fill:#1d1d1b;fill-opacity:1;fill-rule:nonzero;stroke:none;stroke-width:0.03527778"
         id="path1632"
         inkscape:connector-curvature="0" />
      <path
         d="m 199.87827,283.04467 -3.5e-4,-6.62129 c 0,-0.28927 0.2032,-0.64099 0.45367,-0.78563 0.25047,-0.14464 0.45332,-0.0272 0.45332,0.26176 v 6.95184 c 0,0.7052 -0.90664,0.87489 -0.90664,0.19332"
         style="fill:#1d1d1b;fill-opacity:1;fill-rule:nonzero;stroke:none;stroke-width:0.03527778"
         id="path1634"
         inkscape:connector-curvature="0" />
      <path
         d="m 201.67603,281.52526 -1.34444,0.77611 v -1.04705 l 1.34444,-0.77611 v 1.04705"
         style="fill:#1d1d1b;fill-opacity:1;fill-rule:nonzero;stroke:none;stroke-width:0.03527778"
         id="path1636"
         inkscape:connector-curvature="0" />
      <path
         d="m 201.50317,280.11767 -1.17158,0.67628 v -1.0474 l 1.17158,-0.67628 v 1.0474"
         style="fill:#1d1d1b;fill-opacity:1;fill-rule:nonzero;stroke:none;stroke-width:0.03527778"
         id="path1638"
         inkscape:connector-curvature="0" />
      <path
         d="m 213.25596,268.53739 -0.51612,1.18604 0.14747,1.25306 c -0.18874,0.10231 -1.01812,0.24342 -1.20686,0.35313 -1.49401,0.8569 -2.55411,0.88301 -3.87279,2.02072 -0.20779,0.17921 -1.90006,0.508 -2.52589,0.66992 -1.32856,0.34078 -1.87819,0.3295 -2.66771,1.12854 -0.28892,0.38488 -1.13982,0.69109 -1.68486,0.0808 -0.048,-0.054 -0.0864,-0.10971 -0.11748,-0.16545 -0.32314,-0.59302 0.2159,-1.38042 0.99942,-2.14701 l 0.90417,-0.53304 c 0.85443,-0.32738 1.29928,-0.68545 1.10631,-1.53635 -0.0617,-0.27164 -0.1464,-0.54293 -0.24447,-0.80857 -0.10795,-0.29668 -0.23495,-0.59125 -0.36583,-0.8763 l 6.49993,-0.40428 3.54471,-0.22119"
         style="fill:#ffd2a1;fill-opacity:1;fill-rule:nonzero;stroke:none;stroke-width:0.03527778"
         id="path1640"
         inkscape:connector-curvature="0" />
      <path
         d="m 200.58136,272.48532 -1.20544,-1.33138 c 0.0462,-1.12077 0.16369,-1.9371 -0.10407,-2.7439 1.5942,0.84525 2.9845,1.33067 4.3053,1.62912 v 0 c 0.0981,0.26564 0.18274,0.53693 0.24447,0.80857 -1.25342,-0.74895 -2.61831,-1.26506 -4.07599,-1.79634 l -0.0808,1.98896 v 0 c 0,0 0.56021,0.6858 0.93451,1.43651 -0.006,0.003 -0.012,0.006 -0.018,0.008"
         style="fill:#e8c093;fill-opacity:1;fill-rule:nonzero;stroke:none;stroke-width:0.03527778"
         id="path1642"
         inkscape:connector-curvature="0" />
      <path
         d="m 200.62934,272.53824 -0.048,-0.0529 c 0.006,-0.003 0.012,-0.006 0.018,-0.008 0.0102,0.0205 0.0201,0.0409 0.03,0.0614"
         style="fill:#1d1d1b;fill-opacity:1;fill-rule:nonzero;stroke:none;stroke-width:0.03527778"
         id="path1644"
         inkscape:connector-curvature="0" />
      <path
         d="m 202.39675,274.48452 c 0.27164,-0.26565 0.57397,-0.52917 0.87807,-0.77964 0.70485,-0.92781 0.76235,-1.90606 0.5468,-2.85715 v 0 0 c -0.0617,-0.27164 -0.1464,-0.54293 -0.24447,-0.80857 0.25223,0.0575 0.50447,0.1076 0.75282,0.15205 -0.0734,0.29069 -0.12523,0.58526 -0.15028,0.87983 -0.054,0.58526 -0.008,1.17651 0.15028,1.7713 l -1.93322,1.64218"
         style="fill:#e8c093;fill-opacity:1;fill-rule:nonzero;stroke:none;stroke-width:0.03527778"
         id="path1646"
         inkscape:connector-curvature="0" />
      <path
         d="m 232.46436,306.95277 v 0.32992 c -0.0639,0.569 -0.47484,1.12487 -1.22908,1.5627 -1.65382,0.95289 -4.33105,0.95289 -5.98135,0 -0.75424,-0.43783 -1.16522,-0.99688 -1.22908,-1.56601 l 0.003,-0.34354 0.037,-4.01465 c 0.0776,-24.91137 -3.02084,-29.49465 -12.8076,-30.84191 -2.05069,-0.96661 -1.87219,-6.483 0.72743,-7.07214 9.17399,1.27635 14.25575,4.42525 17.30022,10.56781 2.81552,5.67479 3.2131,13.71389 3.17253,27.36995 l 0.007,4.00787"
         style="fill:#1d1d1b;fill-opacity:1;fill-rule:nonzero;stroke:none;stroke-width:0.03527778"
         id="path1650"
         inkscape:connector-curvature="0" />
    </g>
  </g>
</svg>
