<?xml version="1.0" encoding="UTF-8" standalone="no"?>
<!-- Created with Inkscape (http://www.inkscape.org/) -->

<svg
   xmlns:dc="http://purl.org/dc/elements/1.1/"
   xmlns:cc="http://creativecommons.org/ns#"
   xmlns:rdf="http://www.w3.org/1999/02/22-rdf-syntax-ns#"
   xmlns:svg="http://www.w3.org/2000/svg"
   xmlns="http://www.w3.org/2000/svg"
   xmlns:sodipodi="http://sodipodi.sourceforge.net/DTD/sodipodi-0.dtd"
   xmlns:inkscape="http://www.inkscape.org/namespaces/inkscape"
   width="305"
   height="325"
   viewBox="0 0 80.697914 85.989586"
   version="1.1"
   id="svg2581"
   inkscape:version="0.92.4 (unknown)"
   sodipodi:docname="work.svg">
  <defs
     id="defs2575">
    <clipPath
       id="clipPath868"
       clipPathUnits="userSpaceOnUse">
      <path
         inkscape:connector-curvature="0"
         id="path866"
         d="M 478,334 V 4258 H 5372 V 334 Z" />
    </clipPath>
    <clipPath
       id="clipPath880"
       clipPathUnits="userSpaceOnUse">
      <path
         inkscape:connector-curvature="0"
         id="path878"
         d="M 5356,334 V 4258 H 7111 V 334 Z" />
    </clipPath>
  </defs>
  <sodipodi:namedview
     id="base"
     pagecolor="#ffffff"
     bordercolor="#666666"
     borderopacity="1.0"
     inkscape:pageopacity="0.0"
     inkscape:pageshadow="2"
     inkscape:zoom="0.7007637"
     inkscape:cx="-14.096727"
     inkscape:cy="-91.954277"
     inkscape:document-units="mm"
     inkscape:current-layer="layer1"
     showgrid="false"
     units="px"
     inkscape:window-width="1920"
     inkscape:window-height="1016"
     inkscape:window-x="0"
     inkscape:window-y="27"
     inkscape:window-maximized="1" />
  <metadata
     id="metadata2578">
    <rdf:RDF>
      <cc:Work
         rdf:about="">
        <dc:format>image/svg+xml</dc:format>
        <dc:type
           rdf:resource="http://purl.org/dc/dcmitype/StillImage" />
        <dc:title />
      </cc:Work>
    </rdf:RDF>
  </metadata>
  <g
     inkscape:label="Capa 1"
     inkscape:groupmode="layer"
     id="layer1"
     transform="translate(0,-211.0104)">
    <path
       inkscape:connector-curvature="0"
       id="path942"
       style="fill:#291919;fill-opacity:1;fill-rule:nonzero;stroke:none;stroke-width:0.02849271"
       d="m 4.5473103,266.49147 c -0.5632995,-1.94179 0.8667482,-3.88869 2.8563961,-3.88869 H 3.3902219 c -1.9893572,0 -3.41940484,1.9469 -2.85639612,3.88869 L 9.4454974,297.21031 H 13.458974 L 4.5473103,266.49147" />
    <path
       inkscape:connector-curvature="0"
       id="path944"
       style="fill:#d65949;fill-opacity:1;fill-rule:nonzero;stroke:none;stroke-width:0.02849271"
       d="m 4.5473103,266.49147 8.9116637,30.71884 h 31.363635 l -9.409712,-32.43496 c -0.373546,-1.28815 -1.536046,-2.17257 -2.856113,-2.17257 H 7.4037064 c -1.9896479,0 -3.4196956,1.9469 -2.8563961,3.88869" />
    <path
       inkscape:connector-curvature="0"
       id="path946"
       style="fill:#ffffff;fill-opacity:1;fill-rule:nonzero;stroke:none;stroke-width:0.02849271"
       d="m 40.233863,266.02048 c 0,0 4.868263,1.01833 7.714685,4.84319 2.846421,3.82515 6.493483,11.20789 6.493483,11.20789 l -4.26991,6.93798 -6.376954,-8.27229 -3.561304,-14.71677" />
    <path
       inkscape:connector-curvature="0"
       id="path948"
       style="fill:#291919;fill-opacity:1;fill-rule:nonzero;stroke:none;stroke-width:0.02849271"
       d="m 43.795167,280.73725 1.087282,-3.23364 3.084619,8.64526 z" />
    <path
       inkscape:connector-curvature="0"
       id="path950"
       style="fill:#ffffff;fill-opacity:1;fill-rule:nonzero;stroke:none;stroke-width:0.02849271"
       d="m 43.795167,280.73725 c -0.392066,0.31656 -1.17875,11.18111 0.818878,14.42016 H 23.983896 l -5.62873,-10.96143 5.273995,-16.58218 c 0,0 2.335838,-1.43689 6.364991,-2.31589 l 8.951555,1.39927 1.288156,-0.6767 3.87073,6.81945 -0.309426,7.89732" />
    <path
       inkscape:connector-curvature="0"
       id="path952"
       style="fill:#ffffff;fill-opacity:1;fill-rule:nonzero;stroke:none;stroke-width:0.02849271"
       d="m 44.104593,272.83993 c 0,0 2.962103,5.20448 -0.413994,11.02981 -3.375815,5.82533 -4.100673,-7.87567 -4.100673,-7.87567 l 4.514667,-3.15414" />
    <path
       inkscape:connector-curvature="0"
       id="path954"
       style="fill:#e79977;fill-opacity:1;fill-rule:nonzero;stroke:none;stroke-width:0.02849271"
       d="m 36.893658,290.08086 h 4.530344 c 0.769876,0 1.480769,0.37497 1.862569,0.98243 l 2.574028,4.09412 h -3.799784 l -1.283602,-1.55428 c 0,0 -4.070748,1.83066 -5.649245,-0.98385 l 1.76569,-2.53842" />
    <path
       inkscape:connector-curvature="0"
       id="path956"
       style="fill:#ffffff;fill-opacity:1;fill-rule:nonzero;stroke:none;stroke-width:0.02849271"
       d="m 22.052376,286.49819 c 2.020138,-3.6673 6.751348,-12.06723 6.751348,-12.06723 l -4.955734,-6.94253 c 0,0 -3.011395,0.7824 -5.228983,5.05346 -2.016713,3.88385 -7.123173,12.7673 -6.596348,19.05223 0.09289,1.11035 0.873872,2.0546 1.95033,2.34266 6.842235,1.8298 21.839946,1.22063 21.839946,1.22063 l 1.6956,-5.78259 -15.456159,-2.87663" />
    <path
       inkscape:connector-curvature="0"
       id="path958"
       style="fill:#291919;fill-opacity:1;fill-rule:nonzero;stroke:none;stroke-width:0.02849271"
       d="m 37.423343,290.11648 0.246177,-0.83968 -18.017652,-3.47269 -0.0479,0.24903 17.743554,3.41998 -0.167825,0.57213 0.243617,0.0712" />
    <path
       inkscape:connector-curvature="0"
       id="path960"
       style="fill:#291919;fill-opacity:1;fill-rule:nonzero;stroke:none;stroke-width:0.02849271"
       d="m 26.929758,277.76375 -2.228128,9.15528 -2.649254,-0.42084 z" />
    <path
       inkscape:connector-curvature="0"
       id="path962"
       style="fill:#291919;fill-opacity:1;fill-rule:nonzero;stroke:none;stroke-width:0.02849271"
       d="m 28.902307,249.1414 c 0,0 -0.38579,2.19052 -2.186525,3.79779 -1.524649,1.36082 -4.325195,5.7182 -3.432521,11.15689 l 23.421293,1.15026 c 0.507458,-1.13886 2.147782,-2.38969 -0.371543,-7.20581 -0.992114,-1.89619 -0.701208,-5.29623 -0.701208,-5.29623 l -1.446855,-3.71516 -9.258711,-1.28873 -6.02393,1.40099" />
    <path
       inkscape:connector-curvature="0"
       id="path964"
       style="fill:#cc795e;fill-opacity:1;fill-rule:nonzero;stroke:none;stroke-width:0.02849271"
       d="m 40.149236,255.76111 c -0.115391,1.18758 0.753634,2.24352 1.941212,2.35891 1.18757,0.11511 2.243514,-0.75392 2.358623,-1.94149 0.115399,-1.18729 -0.753634,-2.24352 -1.941204,-2.35891 -1.187578,-0.11512 -2.243522,0.75392 -2.358631,1.94149" />
    <path
       inkscape:connector-curvature="0"
       id="path966"
       style="fill:#e79977;fill-opacity:1;fill-rule:nonzero;stroke:none;stroke-width:0.02849271"
       d="m 32.908959,257.68693 -0.702921,7.65571 c -0.177226,1.76312 1.154811,1.57222 2.794569,1.80045 l 2.087085,0.29063 c 0.56729,0.0789 1.092702,-0.35616 1.165642,-0.96448 l 0.651061,-5.43641 -5.995436,-3.3459" />
    <path
       inkscape:connector-curvature="0"
       id="path968"
       style="fill:#cc795e;fill-opacity:1;fill-rule:nonzero;stroke:none;stroke-width:0.02849271"
       d="m 33.438353,260.14984 5.033237,4.499 0.558171,-4.36194 z" />
    <path
       inkscape:connector-curvature="0"
       id="path970"
       style="fill:#e79977;fill-opacity:1;fill-rule:nonzero;stroke:none;stroke-width:0.02849271"
       d="m 44.290082,251.45814 -0.870448,6.25529 c -0.300032,2.15376 -1.771965,3.57755 -3.707193,4.08757 -1.258523,0.33165 -2.596254,0.17551 -3.800357,-0.31855 l -3.193177,-1.31038 0.608319,-7.95232 4.480195,-2.89657 6.482661,2.13496" />
    <path
       inkscape:connector-curvature="0"
       id="path972"
       style="fill:#291919;fill-opacity:1;fill-rule:nonzero;stroke:none;stroke-width:0.02849271"
       d="m 40.142686,258.28328 0.712605,-0.0151 c 0.100578,-0.002 0.180925,-0.0843 0.181208,-0.18492 l 0.0032,-1.35255 c 2.82e-4,-0.10229 -0.08235,-0.18549 -0.184633,-0.18577 -0.102291,-2.9e-4 -0.185489,0.0826 -0.18578,0.18492 l -0.0032,1.17161 -0.53168,0.0114 c -0.102283,0.002 -0.183494,0.0869 -0.181208,0.1892 0.0016,0.10228 0.08661,0.1832 0.188905,0.18121" />
    <path
       inkscape:connector-curvature="0"
       id="path974"
       style="fill:#291919;fill-opacity:1;fill-rule:nonzero;stroke:none;stroke-width:0.02849271"
       d="m 38.748248,255.78162 c -0.04135,0.29234 -0.313132,0.49635 -0.607462,0.45589 -0.294613,-0.0408 -0.500043,-0.31057 -0.459014,-0.60291 0.04103,-0.29233 0.313133,-0.49634 0.607463,-0.45588 0.29433,0.0407 0.500043,0.31057 0.459013,0.6029" />
    <path
       inkscape:connector-curvature="0"
       id="path976"
       style="fill:#291919;fill-opacity:1;fill-rule:nonzero;stroke:none;stroke-width:0.02849271"
       d="m 42.571115,256.02324 c -0.03473,0.2459 -0.263267,0.41742 -0.510874,0.38323 -0.247881,-0.0342 -0.420552,-0.26128 -0.386073,-0.50689 0.03449,-0.24588 0.263276,-0.41742 0.510874,-0.38351 0.247599,0.0345 0.420553,0.26128 0.386073,0.50717" />
    <path
       inkscape:connector-curvature="0"
       id="path978"
       style="fill:#291919;fill-opacity:1;fill-rule:nonzero;stroke:none;stroke-width:0.02849271"
       d="m 37.980375,253.25204 c 0,0 1.277608,-0.0695 1.276187,0.44591 0,0 -0.01058,0.34876 -1.124895,0.38779 -1.113781,0.0396 -1.400697,-0.049 -1.493304,-0.37952 -0.09232,-0.33023 0.744516,-0.467 1.342012,-0.45418" />
    <path
       inkscape:connector-curvature="0"
       id="path980"
       style="fill:#291919;fill-opacity:1;fill-rule:nonzero;stroke:none;stroke-width:0.02849271"
       d="m 42.783386,253.74041 c 0,0 -0.838827,-0.30088 -1.075885,0.10143 0,0 -0.153861,0.2741 0.587239,0.51999 0.741091,0.24561 0.977584,0.23193 1.193271,-0.008 0.215688,-0.23961 -0.291479,-0.50802 -0.704625,-0.61316" />
    <path
       inkscape:connector-curvature="0"
       id="path982"
       style="fill:#291919;fill-opacity:1;fill-rule:nonzero;stroke:none;stroke-width:0.02849271"
       d="m 37.631624,258.60867 c 0.01171,0.0166 0.140179,0.19375 0.433943,0.36699 0.293192,0.17323 0.751349,0.33992 1.406117,0.33935 0.123936,0 0.255005,-0.006 0.393197,-0.0185 0.101717,-0.009 0.176653,-0.0997 0.167251,-0.20144 -0.0094,-0.10201 -0.09972,-0.17694 -0.20144,-0.16754 -0.127369,0.012 -0.24675,0.0171 -0.359008,0.0171 -0.59265,-2.8e-4 -0.979014,-0.14759 -1.218067,-0.28806 -0.119382,-0.0704 -0.202014,-0.13962 -0.253301,-0.18948 -0.0256,-0.0248 -0.04361,-0.0447 -0.05444,-0.0576 l -0.0105,-0.0131 -0.0016,-0.002 -0.06437,0.0476 0.0655,-0.0462 -8.08e-4,-0.002 -0.06437,0.0476 0.0655,-0.0462 c -0.05896,-0.0835 -0.174375,-0.10372 -0.258139,-0.045 -0.08377,0.0587 -0.10372,0.17437 -0.04499,0.25814" />
    <path
       inkscape:connector-curvature="0"
       id="path984"
       style="fill:#291919;fill-opacity:1;fill-rule:nonzero;stroke:none;stroke-width:0.02849271"
       d="m 30.810179,253.63926 c 0.08291,0.40488 7.249686,-1.39785 7.765123,-6.09659 0,0 -9.002275,0.0679 -7.765123,6.09659" />
    <path
       inkscape:connector-curvature="0"
       id="path986"
       style="fill:#291919;fill-opacity:1;fill-rule:nonzero;stroke:none;stroke-width:0.02849271"
       d="m 28.902307,249.1414 c 0.581537,-3.07294 3.123088,-6.29148 9.994108,-5.39082 3.712031,0.48666 8.072271,4.30183 6.798644,8.81621 -0.03279,0.11654 -0.06324,0.17751 -0.06324,0.17751 -4.704428,-0.0473 -8.946991,-3.02763 -8.946991,-3.02763 l -7.782504,-0.57527" />
    <path
       inkscape:connector-curvature="0"
       id="path988"
       style="fill:#291919;fill-opacity:1;fill-rule:nonzero;stroke:none;stroke-width:0.02849271"
       d="m 34.606264,251.20284 -0.681542,4.5634 -3.02536,-3.91832 z" />
    <path
       inkscape:connector-curvature="0"
       id="path990"
       style="fill:#e79977;fill-opacity:1;fill-rule:nonzero;stroke:none;stroke-width:0.02849271"
       d="m 29.833168,254.98184 c -0.118242,1.2192 0.774149,2.30334 1.993347,2.42188 1.218924,0.11824 2.303354,-0.77415 2.421597,-1.99336 0.118242,-1.21891 -0.774149,-2.30306 -1.993347,-2.42159 -1.218924,-0.11825 -2.303354,0.77415 -2.421597,1.99307" />
    <path
       inkscape:connector-curvature="0"
       id="path992"
       style="fill:#291919;fill-opacity:1;fill-rule:nonzero;stroke:none;stroke-width:0.02849271"
       d="m 32.93289,255.94518 c 2.83e-4,-0.005 0.0048,-0.055 0.0048,-0.13563 -8.07e-4,-0.19404 -0.02423,-0.567 -0.219394,-0.91576 -0.09773,-0.17351 -0.242188,-0.34077 -0.44677,-0.46101 -0.204008,-0.1211 -0.464142,-0.19261 -0.78212,-0.19232 -0.04959,0 -0.100579,0.002 -0.153296,0.005 -0.102,0.006 -0.179213,0.0952 -0.17238,0.19717 0.0065,0.10201 0.09517,0.17922 0.197176,0.17238 0.04474,-0.003 0.08747,-0.004 0.1285,-0.004 0.26384,2.8e-4 0.45218,0.0576 0.594071,0.14075 0.21085,0.12481 0.330231,0.31827 0.400611,0.52399 0.06954,0.20429 0.08348,0.41428 0.0832,0.53395 0,0.0334 -8.08e-4,0.0595 -0.0016,0.0766 l -8.08e-4,0.0191 -2.91e-4,0.004 c -0.0099,0.10172 0.06469,0.19233 0.166404,0.2023 0.101718,0.01 0.192322,-0.0647 0.202296,-0.16668" />
    <path
       inkscape:connector-curvature="0"
       id="path994"
       style="fill:#e79977;fill-opacity:1;fill-rule:nonzero;stroke:none;stroke-width:0.02849271"
       d="m 34.023306,264.41862 -4.921545,1.07389 c 0,0 1.648303,3.71631 7.130014,3.71631 4.334023,0 4.807292,-2.96951 4.807292,-2.96951 l -3.165539,-1.47194 -3.850222,-0.34875" />
    <path
       inkscape:connector-curvature="0"
       id="path996"
       style="fill:#1c1d23;fill-opacity:1;fill-rule:nonzero;stroke:none;stroke-width:0.02849271"
       d="m 30.468552,297.21031 h 18.192883 v -2.0529 H 30.468552 c -0.566716,0 -1.026303,0.45987 -1.026303,1.02659 0,0.56672 0.459587,1.02631 1.026303,1.02631" />
    <path
       inkscape:connector-curvature="0"
       id="path998"
       style="fill:#2a2f3a;fill-opacity:1;fill-rule:nonzero;stroke:none;stroke-width:0.02849271"
       d="m 46.266621,297.21031 h 26.119548 c 1.388453,0 2.607086,-0.92573 2.979202,-2.26318 l 4.436598,-16.88848 c 0.415423,-1.4933 -0.442772,-2.97122 -1.992782,-2.97122 h -24.15384 c -0.926863,0 -1.737195,0.62485 -1.972832,1.52123 l -5.415894,20.60165" />
    <path
       inkscape:connector-curvature="0"
       id="path1000"
       style="fill:#ffffff;fill-opacity:1;fill-rule:nonzero;stroke:none;stroke-width:0.02849271"
       d="m 62.65335,286.99824 c 0,1.25966 1.021175,2.28084 2.280837,2.28084 1.259662,0 2.280561,-1.02118 2.280561,-2.28084 0,-1.25966 -1.020899,-2.28085 -2.280561,-2.28085 -1.259662,0 -2.280837,1.02119 -2.280837,2.28085" />
    <path
       inkscape:connector-curvature="0"
       id="path1002"
       style="fill:#ffffff;fill-opacity:1;fill-rule:nonzero;stroke:none;stroke-width:0.02849271"
       d="M -4.1158987,297.40976 H 91.089361 v -0.3989 H -4.1158987 Z" />
    <path
       inkscape:connector-curvature="0"
       id="path1006"
       style="fill:#f79395;fill-opacity:1;fill-rule:nonzero;stroke:none;stroke-width:0.02849271"
       d="M 74.818879,255.45738 H 58.02129 c -0.34334,0 -0.62171,-0.27837 -0.62171,-0.622 v -5.04662 c 0,-0.34363 0.27837,-0.622 0.62171,-0.622 h 16.797589 c 0.343622,0 0.622284,0.27837 0.622284,0.622 v 5.04662 c 0,0.34363 -0.278662,0.622 -0.622284,0.622" />
    <path
       inkscape:connector-curvature="0"
       id="path1008"
       style="fill:#ffffff;fill-opacity:1;fill-rule:nonzero;stroke:none;stroke-width:0.02849271"
       d="m 60.384193,251.53023 h 10.827879 v -0.24386 H 60.384193 Z" />
    <path
       inkscape:connector-curvature="0"
       id="path1010"
       style="fill:#ffffff;fill-opacity:1;fill-rule:nonzero;stroke:none;stroke-width:0.02849271"
       d="m 60.384193,253.03891 h 4.848088 v -0.24363 h -4.848088 z" />
    <path
       inkscape:connector-curvature="0"
       id="path1012"
       style="fill:#f79395;fill-opacity:1;fill-rule:nonzero;stroke:none;stroke-width:0.02849271"
       d="m 59.786124,254.74563 v 2.4518 l 3.083487,-2.4518 z" />
    <path
       inkscape:connector-curvature="0"
       id="path1014"
       style="fill:#513fa0;fill-opacity:1;fill-rule:nonzero;stroke:none;stroke-width:0.02849271"
       d="M 19.811431,243.67935 H 7.3324783 c -1.2120825,0 -2.1945128,-0.98243 -2.1945128,-2.19451 v -11.60138 c 0,-0.91889 0.7447984,-1.66369 1.6636896,-1.66369 H 19.811431 c 0.9186,0 1.663398,0.7448 1.663398,1.66369 v 12.1322 c 0,0.91889 -0.744798,1.66369 -1.663398,1.66369" />
    <path
       inkscape:connector-curvature="0"
       id="path1016"
       style="fill:#ffffff;fill-opacity:1;fill-rule:nonzero;stroke:none;stroke-width:0.02849271"
       d="m 16.468665,237.95658 c -0.06639,0.0664 -0.133063,0.13278 -0.199453,0.19917 -0.116248,0.0997 -0.21597,0.21626 -0.332226,0.33223 -0.166113,0.1661 -0.349033,0.24931 -0.598062,0.24931 -0.03303,0 -0.04959,0 -0.0832,0 -0.498339,-0.033 -0.963337,-0.2325 -1.295563,-0.39862 -0.946812,-0.46499 -1.777377,-1.11292 -2.475161,-1.94349 -0.564729,-0.68125 -0.946812,-1.32889 -1.212648,-2.01016 -0.166113,-0.39861 -0.232503,-0.71431 -0.199163,-1.03001 0.01656,-0.18264 0.08291,-0.34875 0.232495,-0.48152 l 0.564729,-0.56501 c 0.04983,-0.0498 0.133055,-0.11625 0.232495,-0.11625 0.09973,0 0.166113,0.0498 0.232786,0.11625 0.09944,0.0997 0.199171,0.19944 0.298894,0.29917 0.04983,0.0498 0.09972,0.11625 0.166113,0.16612 l 0.464998,0.46499 c 0.04983,0.0498 0.116248,0.14959 0.116248,0.23251 0,0.0997 -0.06639,0.18292 -0.116248,0.23278 -0.04983,0.0498 -0.09944,0.0994 -0.149297,0.14958 -0.149588,0.14931 -0.282369,0.28208 -0.415424,0.41514 l -0.01656,0.0166 c -0.166113,0.16611 -0.133055,0.3157 -0.09944,0.41543 v 0.0165 c 0.115973,0.29918 0.298611,0.56473 0.547921,0.89696 0.464999,0.58153 0.963337,1.03001 1.511534,1.37876 0.06639,0.0502 0.149588,0.0832 0.216261,0.11625 0.06615,0.0333 0.115964,0.0498 0.166112,0.0832 l 0.01624,0.0168 c 0.166112,0.0829 0.332225,0.0496 0.465281,-0.0832 l 0.581253,-0.58154 c 0.04983,-0.0498 0.133064,-0.11626 0.232786,-0.11626 0.0832,0 0.166113,0.0664 0.215979,0.11626 l 0.930287,0.93029 c 0.14958,0.14958 0.14958,0.31569 0,0.4818 z m 0.382083,-0.86389 -0.93057,-0.93029 c -0.166113,-0.18264 -0.3818,-0.28236 -0.597778,-0.28236 -0.215971,0 -0.431949,0.0997 -0.598062,0.26583 l -0.531388,0.53168 c -0.03336,-0.0168 -0.06663,-0.0334 -0.100014,-0.0498 -0.06607,-0.0334 -0.116247,-0.0498 -0.166105,-0.0832 -0.498338,-0.31541 -0.94682,-0.73084 -1.378769,-1.26251 -0.199162,-0.24903 -0.34875,-0.48181 -0.431657,-0.68098 0.133055,-0.11624 0.24902,-0.24902 0.365275,-0.36555 0.04983,-0.0496 0.100006,-0.0997 0.14958,-0.14931 0.182646,-0.18292 0.282652,-0.3989 0.282652,-0.61487 0,-0.21569 -0.100006,-0.43166 -0.282652,-0.61459 l -0.464998,-0.465 c -0.04983,-0.0498 -0.09972,-0.0997 -0.149588,-0.16611 -0.09944,-0.0997 -0.21597,-0.21597 -0.315693,-0.3157 -0.166113,-0.16612 -0.382091,-0.26584 -0.597779,-0.26584 -0.216261,0 -0.415423,0.0832 -0.598352,0.26584 l -0.5812458,0.58153 c -0.2159784,0.21598 -0.3487508,0.49834 -0.3820913,0.81376 -0.033357,0.49834 0.099723,0.96362 0.2159783,1.26251 0.2658358,0.76418 0.6809768,1.44544 1.2955628,2.17627 0.74765,0.88043 1.628072,1.57793 2.657799,2.07626 0.382083,0.18293 0.913762,0.3989 1.495299,0.44877 0.03336,0 0.06639,0 0.116248,0 0.398616,0 0.730842,-0.14959 0.996677,-0.43195 l 0.01656,-0.0168 c 0.08292,-0.0994 0.182921,-0.19916 0.299177,-0.29889 0.06639,-0.0664 0.149579,-0.1493 0.21597,-0.21598 0.34875,-0.36555 0.34875,-0.86389 0,-1.21264" />
    <path
       inkscape:connector-curvature="0"
       id="path1018"
       style="fill:#f79395;fill-opacity:1;fill-rule:nonzero;stroke:none;stroke-width:0.02849271"
       d="m 71.707336,220.70233 c 0,3.58353 -2.90512,6.48864 -6.48865,6.48864 -3.58352,0 -6.48865,-2.90511 -6.48865,-6.48864 0,-3.58353 2.90513,-6.48865 6.48865,-6.48865 3.58353,0 6.48865,2.90512 6.48865,6.48865" />
    <path
       inkscape:connector-curvature="0"
       id="path1020"
       style="fill:#ffffff;fill-opacity:1;fill-rule:nonzero;stroke:none;stroke-width:0.02849271"
       d="m 68.123516,222.65037 v -0.14189 h -5.66776 v -3.61231 h 5.52587 v 0.83228 2.92192 h 0.14189 v -0.14189 0.14189 h 0.1419 v -2.92192 -0.97417 c 0,-0.0373 -0.0153,-0.0738 -0.0416,-0.10029 -0.0265,-0.0265 -0.063,-0.0416 -0.1003,-0.0416 h -5.80966 c -0.0373,0 -0.0738,0.0151 -0.1003,0.0416 -0.0262,0.0265 -0.0416,0.063 -0.0416,0.10029 v 3.89609 c 0,0.0373 0.0153,0.0738 0.0416,0.1003 0.0265,0.0265 0.063,0.0416 0.1003,0.0416 h 0.88897 4.92069 c 0.0373,0 0.0738,-0.0151 0.1003,-0.0416 0.0263,-0.0265 0.0416,-0.063 0.0416,-0.1003 h -0.1419" />
    <path
       inkscape:connector-curvature="0"
       id="path1022"
       style="fill:#ffffff;fill-opacity:1;fill-rule:nonzero;stroke:none;stroke-width:0.02849271"
       d="m 62.226106,218.86569 2.90483,2.28938 c 0.0516,0.0405 0.12422,0.0405 0.17579,0 l 2.90455,-2.28938 c 0.0616,-0.0485 0.0721,-0.13763 0.0237,-0.19917 -0.0487,-0.0615 -0.13791,-0.072 -0.19946,-0.0237 l -2.81678,2.21986 -2.81679,-2.21986 c -0.0615,-0.0485 -0.15073,-0.0379 -0.19945,0.0237 -0.0485,0.0615 -0.0379,0.15073 0.0237,0.19917" />
    <path
       inkscape:connector-curvature="0"
       id="path1024"
       style="fill:#feede2;fill-opacity:1;fill-rule:nonzero;stroke:none;stroke-width:0.02849271"
       d="M 76.929758,265.46458 H 55.65795 c -0.321678,0 -0.582385,-0.2607 -0.582385,-0.58238 0,-0.3214 0.260707,-0.58239 0.582385,-0.58239 h 21.271808 c 0.321677,0 0.582384,0.26099 0.582384,0.58239 0,0.32168 -0.260707,0.58238 -0.582384,0.58238" />
    <path
       inkscape:connector-curvature="0"
       id="path1026"
       style="fill:#feede2;fill-opacity:1;fill-rule:nonzero;stroke:none;stroke-width:0.02849271"
       d="M 43.340709,235.38541 H 33.66857 c -0.321686,0 -0.582393,-0.26071 -0.582393,-0.5824 0,-0.32168 0.260707,-0.58239 0.582393,-0.58239 h 9.672139 c 0.321678,0 0.582385,0.26071 0.582385,0.58239 0,0.32169 -0.260707,0.5824 -0.582385,0.5824" />
    <path
       inkscape:connector-curvature="0"
       id="path1030"
       style="fill:#f79395;fill-opacity:1;fill-rule:nonzero;stroke:none;stroke-width:0.02849271"
       d="m 72.185381,239.80455 h -0.923737 c -0.24247,0 -0.439072,-0.19661 -0.439072,-0.43907 v -0.86704 c 0,-0.24247 0.196602,-0.43908 0.439072,-0.43908 h 0.923737 c 0.24247,0 0.439355,0.19661 0.439355,0.43908 v 0.86704 c 0,0.24246 -0.196885,0.43907 -0.439355,0.43907" />
    <path
       inkscape:connector-curvature="0"
       id="path1034"
       style="fill:#feede2;fill-opacity:1;fill-rule:nonzero;stroke:none;stroke-width:0.02849271"
       d="m 58.353516,235.13951 v 0.14247 h 4.51381 c 0.151017,2.8e-4 0.27581,0.1248 0.276101,0.28179 v 2.21303 c -2.91e-4,0.15728 -0.125084,0.28151 -0.276101,0.28179 h -2.380559 l -1.188434,1.01833 v -0.95137 l -0.949663,-0.0271 h -5.66e-4 c -0.148732,-0.003 -0.270399,-0.12708 -0.270681,-0.28208 v -2.25263 c 2.82e-4,-0.15699 0.125083,-0.28151 0.276093,-0.28179 v -0.14247 -0.14246 c -0.311429,2.8e-4 -0.560457,0.25529 -0.561022,0.56672 v 2.25263 c 0,0.30715 0.24276,0.56045 0.549908,0.56672 h -8.08e-4 l 0.672141,0.0194 v 1.29386 l 1.57878,-1.35283 h 2.275142 c 0.311428,-2.9e-4 0.560456,-0.2553 0.561022,-0.56673 v -2.21302 c -5.66e-4,-0.31143 -0.249594,-0.56644 -0.561022,-0.56673 h -4.51381 v 0.14247" />
    <path
       inkscape:connector-curvature="0"
       id="path1036"
       style="fill:#feede2;fill-opacity:1;fill-rule:nonzero;stroke:none;stroke-width:0.02849271"
       d="m 54.803272,245.4361 h -0.142465 c 0,0.34476 -0.137335,0.65533 -0.359573,0.8807 -0.222246,0.2251 -0.527407,0.36357 -0.865609,0.36357 -0.338211,0 -0.643364,-0.13847 -0.86561,-0.36357 -0.221963,-0.22537 -0.359291,-0.53594 -0.359581,-0.8807 2.9e-4,-0.34448 0.137618,-0.65505 0.359581,-0.88043 0.222529,-0.22538 0.527399,-0.36385 0.86561,-0.36385 0.338202,0 0.643363,0.13847 0.865609,0.36385 0.222238,0.22538 0.359573,0.53595 0.359573,0.88043 h 0.142465 0.142464 c -0.0016,-0.84282 -0.674426,-1.52893 -1.510111,-1.52921 -0.835694,2.8e-4 -1.508408,0.68639 -1.510112,1.52921 0.0016,0.8431 0.674418,1.52891 1.510112,1.5292 0.835685,-2.9e-4 1.50869,-0.6861 1.510111,-1.5292 h -0.142464" />
    <path
       inkscape:connector-curvature="0"
       id="path1038"
       style="fill:#feede2;fill-opacity:1;fill-rule:nonzero;stroke:none;stroke-width:0.02849271"
       d="M 8.8021258,253.24891 H 8.6596614 c 0,0.34476 -0.1373277,0.65533 -0.3595735,0.88071 -0.2222458,0.22509 -0.5273987,0.36356 -0.8656093,0.36385 -0.3382107,-2.9e-4 -0.6430809,-0.13876 -0.8656094,-0.36385 -0.221955,-0.22538 -0.3592908,-0.53595 -0.3595735,-0.88071 2.827e-4,-0.34448 0.1376185,-0.65504 0.3595735,-0.88071 0.2225285,-0.22509 0.5273987,-0.36357 0.8656094,-0.36357 0.3382106,0 0.6433635,0.13848 0.8656093,0.36386 0.2222458,0.22538 0.3595735,0.53594 0.3595735,0.88042 h 0.1424644 0.1424645 c -0.00162,-0.8431 -0.6744184,-1.52892 -1.5101117,-1.52921 -0.8356934,2.9e-4 -1.5084075,0.68611 -1.5101117,1.52921 0.00162,0.8431 0.6744183,1.52892 1.5101117,1.52949 0.8356933,-5.7e-4 1.5086902,-0.68639 1.5101117,-1.52949 H 8.8021258" />
  </g>
</svg>
