<?xml version="1.0" encoding="UTF-8" standalone="no"?>
<!-- Created with Inkscape (http://www.inkscape.org/) -->

<svg
   xmlns:dc="http://purl.org/dc/elements/1.1/"
   xmlns:cc="http://creativecommons.org/ns#"
   xmlns:rdf="http://www.w3.org/1999/02/22-rdf-syntax-ns#"
   xmlns:svg="http://www.w3.org/2000/svg"
   xmlns="http://www.w3.org/2000/svg"
   xmlns:xlink="http://www.w3.org/1999/xlink"
   xmlns:sodipodi="http://sodipodi.sourceforge.net/DTD/sodipodi-0.dtd"
   xmlns:inkscape="http://www.inkscape.org/namespaces/inkscape"
   width="200"
   height="55"
   viewBox="0 0 52.916666 14.552084"
   version="1.1"
   id="svg469"
   inkscape:version="0.92.4 (unknown)"
   sodipodi:docname="header-logo.svg">
  <defs
     id="defs463">
    <linearGradient
       inkscape:collect="always"
       xlink:href="#linearGradient1375"
       id="linearGradient398"
       gradientUnits="userSpaceOnUse"
       x1="-166.23625"
       y1="151.53262"
       x2="-66.063156"
       y2="279.33517" />
    <linearGradient
       inkscape:collect="always"
       id="linearGradient1375">
      <stop
         style="stop-color:#000000;stop-opacity:1;"
         offset="0"
         id="stop1371" />
      <stop
         style="stop-color:#073f89;stop-opacity:1"
         offset="1"
         id="stop1373" />
    </linearGradient>
    <linearGradient
       inkscape:collect="always"
       xlink:href="#linearGradient1347"
       id="linearGradient400"
       gradientUnits="userSpaceOnUse"
       x1="-160.13982"
       y1="126.80649"
       x2="-106.05168"
       y2="169.11868" />
    <linearGradient
       inkscape:collect="always"
       id="linearGradient1347">
      <stop
         style="stop-color:#073f89;stop-opacity:1"
         offset="0"
         id="stop1343" />
      <stop
         style="stop-color:#4d4d4d;stop-opacity:0;"
         offset="1"
         id="stop1345" />
    </linearGradient>
    <clipPath
       clipPathUnits="userSpaceOnUse"
       id="clipPath1233">
      <path
         sodipodi:nodetypes="ssssss"
         inkscape:connector-curvature="0"
         id="path1235"
         d="m -901.21339,371.94616 c 9.72718,-3.76793 20.83185,-2.735 32.52589,0.47855 14.42654,3.96445 5.05103,19.12569 1.25,23.6875 -3.78146,4.53832 -22.81203,10.74924 -33.78217,0.81564 -4.17443,-3.78 -5.69148,-9.81409 -3.59065,-20.22975 0.50051,-2.48146 1.85595,-4.07755 3.59693,-4.75194 z"
         style="opacity:1;fill:#0698e1;fill-opacity:1;stroke:none;stroke-width:0.40000001;stroke-miterlimit:4;stroke-dasharray:none;stroke-dashoffset:0;stroke-opacity:1" />
    </clipPath>
    <clipPath
       clipPathUnits="userSpaceOnUse"
       id="clipPath422">
      <path
         sodipodi:nodetypes="ssssss"
         inkscape:connector-curvature="0"
         id="path420"
         d="m -901.21339,371.94616 c 9.72718,-3.76793 20.83185,-2.735 32.52589,0.47855 14.42654,3.96445 5.05103,19.12569 1.25,23.6875 -3.78146,4.53832 -22.81203,10.74924 -33.78217,0.81564 -4.17443,-3.78 -5.69148,-9.81409 -3.59065,-20.22975 0.50051,-2.48146 1.85595,-4.07755 3.59693,-4.75194 z"
         style="opacity:1;fill:#0698e1;fill-opacity:1;stroke:none;stroke-width:0.40000001;stroke-miterlimit:4;stroke-dasharray:none;stroke-dashoffset:0;stroke-opacity:1" />
    </clipPath>
  </defs>
  <sodipodi:namedview
     id="base"
     pagecolor="#ffffff"
     bordercolor="#666666"
     borderopacity="1.0"
     inkscape:pageopacity="0.0"
     inkscape:pageshadow="2"
     inkscape:zoom="3.8097182"
     inkscape:cx="118.45918"
     inkscape:cy="-6.2799775"
     inkscape:document-units="mm"
     inkscape:current-layer="layer1"
     showgrid="false"
     units="px"
     inkscape:window-width="1600"
     inkscape:window-height="863"
     inkscape:window-x="1920"
     inkscape:window-y="0"
     inkscape:window-maximized="1" />
  <metadata
     id="metadata466">
    <rdf:RDF>
      <cc:Work
         rdf:about="">
        <dc:format>image/svg+xml</dc:format>
        <dc:type
           rdf:resource="http://purl.org/dc/dcmitype/StillImage" />
        <dc:title />
      </cc:Work>
    </rdf:RDF>
  </metadata>
  <g
     inkscape:label="Capa 1"
     inkscape:groupmode="layer"
     id="layer1"
     transform="translate(0,-282.4479)">
    <g
       id="g1232"
       inkscape:export-filename="/home/aragonc/Escritorio/logo_blender_theme.png"
       inkscape:export-xdpi="240.87268"
       inkscape:export-ydpi="240.87268">
      <rect
         y="282.44791"
         x="-2.7755576e-17"
         height="14.552083"
         width="52.916668"
         id="rect1010"
         style="opacity:0;fill:#53676c;fill-opacity:1;stroke:none;stroke-width:0.41534984;stroke-linecap:square;stroke-linejoin:miter;stroke-miterlimit:4;stroke-dasharray:0.41534982, 0.83069966;stroke-dashoffset:0;stroke-opacity:1;paint-order:normal" />
      <g
         transform="matrix(0.08264362,0,0,0.0827656,-20.295646,232.03702)"
         id="g334"
         style="font-style:normal;font-variant:normal;font-weight:normal;font-stretch:normal;font-size:78.63938141px;line-height:125%;font-family:Intro;-inkscape-font-specification:'Intro , Normal';text-align:start;letter-spacing:0px;word-spacing:0px;writing-mode:lr-tb;text-anchor:start;fill:#ffffff;fill-opacity:1;stroke:none;stroke-width:1px;stroke-linecap:butt;stroke-linejoin:miter;stroke-opacity:1">
        <path
           id="path320"
           style="letter-spacing:-8.61102295px;fill:#ffffff"
           d="m 552.64323,651.25547 c 0,-9.51537 -7.62802,-16.90747 -17.14339,-16.90747 h -23.51317 v 55.04757 h 25.79371 c 11.24544,0 17.06475,-7.7853 17.14339,-17.3793 0,-4.87565 -2.12326,-8.96489 -6.60571,-11.24544 2.67374,-2.2019 4.32517,-6.21251 4.32517,-9.51536 z m -15.88516,16.27835 c 5.66204,0 5.74068,9.35809 0.0786,9.35809 h -11.24543 v -9.35809 h 11.16679 z m -2.35918,-20.60352 c 5.66204,0 5.66204,8.88625 0.0786,8.88625 h -8.88625 v -8.88625 h 8.80761 z"
           inkscape:connector-curvature="0" />
        <path
           id="path322"
           style="letter-spacing:-8.61102295px;fill:#ffffff"
           d="m 571.36308,634.348 c -4.797,0 -9.43673,0 -14.15509,0 v 55.04757 c 11.16679,0 22.80542,0 34.12949,0 0,-4.71836 0,-7.94258 0,-12.66094 h -19.9744 c 0,-23.43454 0,-13.91917 0,-42.38663 z"
           inkscape:connector-curvature="0" />
        <path
           id="path324"
           style="letter-spacing:-8.61102295px;fill:#ffffff"
           d="m 626.81489,634.348 c -12.89686,0 -21.62583,0 -34.36541,0 0,18.24434 0,36.64595 0,55.04757 12.73958,0 22.17631,0 35.07317,0 0,-4.16789 0,-8.41441 0,-12.50366 -8.25714,0 -12.9755,0 -21.07536,0 0,-3.30286 0,-6.44843 0,-9.67265 h 18.71617 c 0,-4.16788 0,-8.33577 0,-12.50366 h -18.71617 v -7.7853 c 8.09986,0 12.18911,0 20.3676,0 0,-4.24652 0,-8.49305 0,-12.5823 z"
           inkscape:connector-curvature="0" />
        <path
           id="path326"
           style="letter-spacing:-8.61102295px;fill:#ffffff"
           d="m 673.29935,689.47421 h 5.03292 V 634.348 c -4.797,0 -9.594,0 -14.391,0 v 26.97331 l -27.83834,-27.20923 h -5.11156 v 55.28349 c 4.797,0 9.67264,0 14.54828,0 v -27.05195 z"
           inkscape:connector-curvature="0" />
        <path
           id="path328"
           style="letter-spacing:-8.61102295px;fill:#ffffff"
           d="m 704.42457,634.348 h -20.76079 v 55.04757 h 20.76079 c 35.85956,-0.15728 35.85956,-54.89029 0,-55.04757 z m -6.68434,12.81822 h 6.68434 c 17.53658,0 17.53658,29.41113 0,29.41113 h -6.68434 z"
           inkscape:connector-curvature="0" />
        <path
           id="path330"
           style="letter-spacing:-8.61102295px;fill:#ffffff"
           d="m 767.78332,634.348 c -12.89686,0 -21.62583,0 -34.36541,0 0,18.24434 0,36.64595 0,55.04757 12.73958,0 22.17631,0 35.07317,0 0,-4.16789 0,-8.41441 0,-12.50366 -8.25714,0 -12.9755,0 -21.07536,0 0,-3.30286 0,-6.44843 0,-9.67265 h 18.71617 c 0,-4.16788 0,-8.33577 0,-12.50366 h -18.71617 v -7.7853 c 8.09986,0 12.18911,0 20.3676,0 0,-4.24652 0,-8.49305 0,-12.5823 z"
           inkscape:connector-curvature="0" />
        <path
           id="path332"
           style="letter-spacing:-8.61102295px;fill:#ffffff"
           d="m 807.66209,669.893 c 13.91917,-9.43672 9.9872,-35.46636 -11.63863,-35.545 -8.02121,0 -16.19971,0 -24.14229,0 0,18.40162 0,36.72459 0,55.04757 4.56109,0 9.35809,0 14.07645,0 v -16.19971 h 7.31346 l 9.43673,16.19971 h 15.72788 v -2.04463 z m -11.63863,-9.20081 h -10.06584 c 0,-4.4038 0,-9.27944 0,-13.76189 3.30286,0 6.76299,-0.0786 10.06584,0 8.02122,0.0786 7.62802,13.76189 0,13.76189 z"
           inkscape:connector-curvature="0" />
      </g>
      <g
         transform="matrix(0.08339899,0,0,0.0835221,-20.682388,232.07699)"
         id="g344"
         style="font-style:normal;font-variant:normal;font-weight:normal;font-stretch:normal;font-size:78.63938141px;line-height:125%;font-family:Intro;-inkscape-font-specification:'Intro , Normal';text-align:start;letter-spacing:0px;word-spacing:0px;writing-mode:lr-tb;text-anchor:start;fill:#ffffff;fill-opacity:1;stroke:none;stroke-width:1px;stroke-linecap:butt;stroke-linejoin:miter;stroke-opacity:1">
        <path
           id="path336"
           style="letter-spacing:-8.61102295px;fill:#ffffff;fill-opacity:1"
           d="m 526.06312,760.23987 v -14.07645 h 10.14448 c 26.34419,0 26.34419,-40.89248 0,-40.97112 -8.09986,0 -16.27836,0 -24.22093,0 0,18.40162 0,36.72459 0,55.04757 4.63972,0 9.35808,0 14.07645,0 z m 10.06584,-26.73739 h -10.06584 c 0,-4.48245 0,-11.24543 0,-15.72788 3.22421,0 6.76298,-0.0786 10.06584,0 8.17849,0.0786 7.70666,15.72788 0,15.72788 z"
           inkscape:connector-curvature="0" />
        <path
           id="path338"
           style="letter-spacing:-8.61102295px;fill:#ffffff;fill-opacity:1"
           d="m 592.26641,705.1923 c -12.89686,0 -21.62583,0 -34.36541,0 0,18.24434 0,36.64595 0,55.04757 12.73958,0 22.1763,0 35.07316,0 0,-4.16789 0,-8.41442 0,-12.50366 -8.25713,0 -12.9755,0 -21.07535,0 0,-3.30286 0,-6.44843 0,-9.67265 h 18.71617 c 0,-4.16788 0,-8.33577 0,-12.50366 h -18.71617 v -7.7853 c 8.09985,0 12.1891,0 20.3676,0 0,-4.24652 0,-8.49305 0,-12.5823 z"
           inkscape:connector-curvature="0" />
        <path
           id="path340"
           style="letter-spacing:-8.61102295px;fill:#ffffff;fill-opacity:1"
           d="m 632.14517,740.7373 c 13.91917,-9.43672 9.9872,-35.46636 -11.63863,-35.545 -8.02122,0 -16.19971,0 -24.14229,0 0,18.40162 0,36.72459 0,55.04757 4.56108,0 9.35809,0 14.07645,0 v -16.19971 h 7.31346 l 9.43673,16.19971 h 15.72787 v -2.04463 z m -11.63863,-9.35808 H 610.4407 c 0,-4.40381 0,-9.12217 0,-13.60462 3.30285,0 6.76299,-0.0786 10.06584,0 8.02122,0.0786 7.62802,13.60462 0,13.60462 z"
           inkscape:connector-curvature="0" />
        <path
           sodipodi:nodetypes="ssccsssccssccccc"
           inkscape:connector-curvature="0"
           id="path342"
           style="letter-spacing:-8.61102295px;fill:#ffffff;fill-opacity:1"
           d="m 664.12927,748.36532 c -4.08925,0 -8.41441,-2.2019 -8.41441,-6.68435 V 705.1923 h -13.44734 v 36.72459 c 0,12.11047 10.61632,19.10937 21.86175,19.10937 11.32407,0 21.94039,-6.9989 21.94039,-19.10937 V 705.1923 h -13.60462 v 36.48867 c 0,4.48245 -4.24652,6.68435 -8.33577,6.68435 z m 4.32517,-46.94771 5.13884,-7.83079 -11.51124,-5.36698 -3.45753,13.19777 z" />
      </g>
      <g
         id="g390"
         transform="matrix(0.10704856,0,0,0.10720656,27.318604,268.83634)">
        <path
           d="m -123.28711,351.01172 a 4.3604242,4.3604242 0 0 0 -3.45703,1.46289 c -2.08921,2.3554 -3.24966,4.98175 -3.87891,7.61523 -8.36154,-5.17785 -17.3398,-5.78798 -25.61718,-3.03515 a 4.3604242,4.3604242 0 0 0 -2.01954,6.86523 c -3.46575,0.72439 -6.79683,1.83322 -9.86523,3.25196 a 4.3604242,4.3604242 0 0 0 0.18359,7.99414 l 0.99805,0.4082 c -8.01663,6.11633 -14.12931,14.17353 -17.5332,23.38086 -3.9826,-0.99271 -7.87924,-0.60897 -11.00196,1.19726 -4.39457,2.5419 -6.99526,7.14746 -7.95117,12.1875 -1.78614,9.4175 2.23269,21.18765 13.38477,28.17188 v 1.30469 a 4.3604242,4.3604242 0 0 0 1.09765,2.88671 4.3604242,4.3604242 0 0 0 0.26368,0.66797 l 0.23437,0.4668 a 4.3604242,4.3604242 0 0 0 0.65039,4.63477 l 3.51367,4.11523 a 4.3604242,4.3604242 0 0 0 5.51368,0.93359 c 1.53739,-0.89684 2.89303,-1.50088 3.69531,-1.60351 0.73012,-0.0934 1.11614,-0.0642 2.10156,0.81445 9.53695,15.45261 19.25513,26.54333 30.68945,30.01172 3.31204,1.00465 6.94293,1.98827 10.97852,2.00195 a 4.3604242,4.3604242 0 0 0 0.0234,0 c 3.53539,-0.006 6.87875,-0.69169 10.00976,-1.63671 11.44059,-3.45308 21.01894,-14.63553 30.470706,-29.95899 0.981466,-0.87387 1.369497,-0.90372 2.097656,-0.81055 0.801521,0.10257 2.155638,0.70648 3.693359,1.60352 a 4.3604242,4.3604242 0 0 0 5.513672,-0.93359 l 3.513672,-4.11524 a 4.3604242,4.3604242 0 0 0 0.664063,-4.60351 l 0.291015,-0.64063 a 4.3604242,4.3604242 0 0 0 0.193359,-0.51953 4.3604242,4.3604242 0 0 0 1.101563,-2.89063 v -1.29882 c 10.883495,-6.81485 14.97551,-18.19663 13.501953,-27.47852 -0.789796,-4.9749 -3.12634,-9.54995 -7.197266,-12.32227 -2.918808,-1.98772 -6.694292,-2.69323 -10.59375,-2.03906 -5.131154,-14.04832 -16.414025,-25.39302 -31.068362,-31.23242 -4.65527,-4.21345 -8.52382,-8.76281 -10.25976,-13.89844 a 4.3604242,4.3604242 0 0 0 -3.93555,-2.95898 z"
           id="path348"
           style="opacity:1;fill:#ffffff;fill-opacity:1;stroke:none;stroke-width:6.74658966;stroke-linecap:butt;stroke-linejoin:miter;stroke-miterlimit:4;stroke-dasharray:none;stroke-opacity:1"
           inkscape:original="M -123.48242 355.36719 C -127.02551 359.36172 -127.36793 363.97329 -126.50781 368.17188 C -126.78687 368.13817 -127.06608 368.10773 -127.3457 368.07812 C -136.42391 359.34026 -145.61328 358.11447 -154.86523 361.19141 L -144.00195 368.78711 C -152.1025 365.99816 -159.32182 367.90477 -166.29492 371.12891 L -157.65039 374.65625 C -169.73882 381.24022 -178.42486 392.05437 -181.73047 404.63672 C -200.0716 394.47238 -208.51016 426.35545 -185.68555 438.09961 L -185.68555 441.81641 C -183.43154 441.48237 -180.75333 441.37011 -178.50781 442.34375 C -180.99659 442.10595 -183.53064 442.35285 -184.78516 443.41992 L -183.37695 446.23242 C -181.55525 445.06051 -179.3453 444.40202 -176.85156 444.62695 C -179.64708 445.19924 -182.1549 446.26607 -184.48242 447.64062 L -180.96875 451.75586 C -177.69187 449.84427 -173.75665 447.90217 -169.72266 451.75586 C -160.26761 467.22637 -150.65523 477.64946 -141.01953 480.57227 C -137.8208 481.54255 -134.6058 482.37548 -131.29102 482.38672 C -128.32017 482.38172 -125.39657 481.79979 -122.5332 480.93555 C -112.93893 478.03974 -103.43926 467.52652 -94.058594 452.17773 C -90.024605 448.32404 -86.091339 450.26614 -82.814453 452.17773 L -79.300781 448.0625 C -81.468555 446.45719 -84.400418 445.69211 -86.929688 445.04883 C -85.547028 444.76152 -81.941597 445.27204 -80.244141 446.58594 L -78.998047 443.8457 C -80.221365 442.85522 -83.336327 442.66085 -85.275391 442.76758 C -82.988796 441.8284 -80.312258 441.74645 -78.09375 442.24023 L -78.09375 438.52344 C -55.78858 427.04654 -63.345893 396.35523 -80.818359 404.44922 C -84.781009 389.55514 -96.234471 377.30831 -111.62891 371.50586 C -116.73114 366.95621 -121.32508 361.7495 -123.48242 355.36719 z "
           inkscape:radius="4.3599882"
           sodipodi:type="inkscape:offset"
           transform="translate(0.70711,-224.0416)" />
        <path
           sodipodi:nodetypes="ccccccccccccccccscsccccccccccccc"
           inkscape:connector-curvature="0"
           id="path350"
           d="m -122.77572,131.32574 c -3.54309,3.99453 -3.88555,8.60677 -3.02543,12.80535 -8.68001,-7.08201 -16.1985,-10.80452 -28.35676,-6.98116 l 10.86307,7.59518 c -8.10055,-2.78895 -15.31964,-0.88128 -22.29274,2.34286 l 8.64407,3.52615 c -12.08843,6.58397 -20.77391,17.3978 -24.07952,29.98015 -18.34113,-10.16434 -26.78033,21.71999 -3.95572,33.46415 v 3.71589 c 2.25401,-0.33404 4.93327,-0.44656 7.17879,0.52708 -2.48878,-0.2378 -5.02297,0.0108 -6.27749,1.07787 l 1.4073,2.81196 c 1.8217,-1.17191 4.03147,-1.82988 6.52521,-1.60495 -2.79552,0.57229 -5.30192,1.63769 -7.62944,3.01225 l 3.51297,4.11647 c 3.27688,-1.91159 7.21121,-3.85369 11.2452,0 9.45505,15.47051 19.06892,25.89251 28.70462,28.81532 3.19873,0.97028 6.41244,1.80454 9.72722,1.81578 2.97085,-0.005 5.89401,-0.58786 8.75738,-1.4521 9.59427,-2.89581 19.09469,-13.40855 28.47536,-28.75734 4.03399,-3.85369 7.9683,-1.91159 11.24519,0 l 3.51297,-4.11647 c -2.16777,-1.60531 -5.10018,-2.36896 -7.62944,-3.01224 1.38265,-0.28731 4.98751,0.22267 6.68496,1.53657 l 1.24755,-2.74095 c -1.22331,-0.99048 -4.33843,-1.1846 -6.2775,-1.07787 2.2866,-0.93918 4.96293,-1.02087 7.18144,-0.52709 v -3.71588 c 22.30517,-11.4769 14.74748,-42.16955 -2.72499,-34.07556 -3.96265,-14.89408 -15.41588,-27.13987 -30.81031,-32.94232 -5.10223,-4.54965 -9.69662,-9.7568 -11.85396,-16.13911 z"
           style="opacity:1;fill:url(#linearGradient398);fill-opacity:1;stroke:none;stroke-width:6.74658966;stroke-linecap:butt;stroke-linejoin:miter;stroke-miterlimit:4;stroke-dasharray:none;stroke-opacity:1" />
        <path
           sodipodi:nodetypes="ccccccccccc"
           inkscape:connector-curvature="0"
           id="path352"
           d="m -154.15791,137.14993 c 16.01563,-5.84511 27.17296,6.33666 28.35676,6.98116 -0.84574,-3.80243 -0.36726,-9.5073 3.02543,-12.80535 1.5716,5.46469 5.37546,9.89001 11.85396,16.1391 21.430919,9.86469 25.521509,21.46342 30.81031,32.94232 l -48.22843,22.8966 c -3.65338,-13.31718 2.6235,-29.86223 -16.27893,-42.3702 4.75573,-0.0285 8.09924,0.48986 11.85952,3.12577 -1.24705,-7.85602 -5.29116,-12.46603 -8.68405,-15.07205 3.90378,-0.71296 8.77972,0.2947 11.23973,1.97358 0.28314,-3.58659 -6.6925,-14.96184 -23.9543,-13.81093 z"
           style="fill:url(#linearGradient400);fill-opacity:1;stroke:none;stroke-width:1px;stroke-linecap:butt;stroke-linejoin:miter;stroke-opacity:1" />
        <path
           sodipodi:nodetypes="cccscscccscsc"
           inkscape:connector-curvature="0"
           id="path354"
           d="m -154.28781,170.63486 c -13.88178,4.8e-4 -23.64369,10.89955 -23.64271,24.78133 0.005,13.74801 11.40982,21.81711 25.15662,21.9992 -0.86909,2.72564 -2.06717,6.18469 -2.03559,11.23908 0.0866,13.85853 10.52706,24.8447 23.95118,24.8443 13.42412,4e-4 23.27935,-10.62321 23.17019,-25.12829 -0.043,-5.72674 -1.16945,-7.87839 -2.04086,-10.60537 13.74681,-0.17921 25.86393,-8.24594 25.87188,-21.99393 0.001,-13.88179 -11.2519,-25.13586 -25.13369,-25.13632 -5.96473,0.009 -11.60016,2.12736 -16.02142,5.79756 -2.74654,2.27998 -5.02453,5.15865 -6.62182,8.50206 -1.67972,-3.51594 -4.11217,-6.51789 -7.05062,-8.85013 -4.35674,-3.45794 -9.82584,-5.44363 -15.60316,-5.44949 z"
           style="opacity:1;fill:#ffffff;fill-opacity:1;stroke:none;stroke-width:0.26986358;stroke-linecap:butt;stroke-linejoin:miter;stroke-miterlimit:4;stroke-dasharray:none;stroke-opacity:1" />
        <path
           sodipodi:nodetypes="cscsc"
           inkscape:connector-curvature="0"
           id="path356"
           d="m -122.45587,194.502 c 6.68411,-3.34091 7.12887,-7.76533 9.69298,-10.79044 3.53478,-4.17031 7.74972,-6.14024 13.84303,-7.34968 -5.8569,3.05183 -9.1258,5.40389 -13.75544,12.34157 -2.89997,4.3457 -6.29377,5.24942 -9.78057,5.79855 z"
           style="fill:#000000;fill-opacity:1;fill-rule:evenodd;stroke:none;stroke-width:0.67465895;stroke-linecap:butt;stroke-linejoin:miter;stroke-miterlimit:4;stroke-dasharray:none;stroke-opacity:1" />
        <path
           style="fill:#000000;fill-opacity:1;fill-rule:evenodd;stroke:none;stroke-width:0.67465895;stroke-linecap:butt;stroke-linejoin:miter;stroke-miterlimit:4;stroke-dasharray:none;stroke-opacity:1"
           d="m -136.1292,193.29366 c -6.68412,-3.34091 -7.15398,-7.01227 -9.71809,-10.03738 -3.53478,-4.17031 -9.63235,-7.69655 -15.22364,-3.68483 6.78568,0.51656 10.3809,1.88965 15.01054,8.82733 2.89997,4.3457 6.44439,4.34575 9.93119,4.89488 z"
           id="path358"
           inkscape:connector-curvature="0"
           sodipodi:nodetypes="cscsc" />
        <ellipse
           ry="5.2902975"
           rx="3.390538"
           cy="198.28995"
           cx="-109.41545"
           id="ellipse360"
           style="opacity:1;fill:#000000;fill-opacity:1;stroke:none;stroke-width:0.67465895;stroke-linecap:butt;stroke-linejoin:miter;stroke-miterlimit:4;stroke-dasharray:none;stroke-opacity:1" />
        <ellipse
           style="opacity:1;fill:#000000;fill-opacity:1;stroke:none;stroke-width:0.67465895;stroke-linecap:butt;stroke-linejoin:miter;stroke-miterlimit:4;stroke-dasharray:none;stroke-opacity:1"
           id="ellipse362"
           cx="-144.77275"
           cy="202.4079"
           rx="3.390538"
           ry="5.2902975" />
        <path
           sodipodi:nodetypes="ccccc"
           inkscape:connector-curvature="0"
           id="path364"
           d="m -117.00865,229.18745 c -0.43824,7.74928 -5.9328,14.80308 -14.34136,14.77135 -1.2614,-0.007 -1.26941,1.88592 -0.008,1.88957 9.46647,0.0358 17.93735,-7.45787 18.42814,-16.13632 0.19541,-2.07006 -3.87702,-2.52288 -4.07878,-0.5246 z"
           style="color:#000000;font-style:normal;font-variant:normal;font-weight:normal;font-stretch:normal;font-size:medium;line-height:normal;font-family:sans-serif;text-indent:0;text-align:start;text-decoration:none;text-decoration-line:none;text-decoration-style:solid;text-decoration-color:#000000;letter-spacing:normal;word-spacing:normal;text-transform:none;writing-mode:lr-tb;direction:ltr;baseline-shift:baseline;text-anchor:start;white-space:normal;clip-rule:nonzero;display:inline;overflow:visible;visibility:visible;opacity:1;isolation:auto;mix-blend-mode:normal;color-interpolation:sRGB;color-interpolation-filters:linearRGB;solid-color:#000000;solid-opacity:1;fill:#000000;fill-opacity:1;fill-rule:evenodd;stroke:none;stroke-width:1.889045;stroke-linecap:round;stroke-linejoin:round;stroke-miterlimit:4;stroke-dasharray:none;stroke-dashoffset:0;stroke-opacity:1;color-rendering:auto;image-rendering:auto;shape-rendering:auto;text-rendering:auto;enable-background:accumulate" />
        <path
           sodipodi:nodetypes="scscs"
           inkscape:connector-curvature="0"
           id="path366"
           d="m -70.6576,196.5207 c 0.69424,5.92424 -4.31454,13.11769 -8.93997,7.22409 -0.64803,-0.85765 5.88463,-0.44897 3.36263,-4.99255 -1.79758,-3.23847 -4.35262,0.48861 -4.17488,-0.13134 1.60051,-9.17866 8.8227,-10.03231 9.75222,-2.1002 z"
           style="opacity:1;fill:#ffffff;fill-opacity:1;stroke:none;stroke-width:1.15700006;stroke-miterlimit:4;stroke-dasharray:4.62800026, 1.15700006;stroke-dashoffset:0;stroke-opacity:1" />
        <path
           style="opacity:1;fill:#ffffff;fill-opacity:1;stroke:none;stroke-width:1.15700006;stroke-miterlimit:4;stroke-dasharray:4.62800026, 1.15700006;stroke-dashoffset:0;stroke-opacity:1"
           d="m -190.7147,197.22781 c -0.69424,5.92424 4.31454,13.11769 8.93997,7.22409 0.64803,-0.85765 -5.88463,-0.44897 -3.36262,-4.99255 1.79757,-3.23847 4.35262,0.48861 4.17487,-0.13134 -1.60051,-9.17866 -8.8227,-10.03231 -9.75222,-2.1002 z"
           id="path368"
           inkscape:connector-curvature="0"
           sodipodi:nodetypes="scscs" />
        <path
           style="fill:#000000;fill-opacity:1;fill-rule:evenodd;stroke:none;stroke-width:1.1711731;stroke-linecap:butt;stroke-linejoin:miter;stroke-miterlimit:4;stroke-dasharray:none;stroke-opacity:1"
           d="m -139.86749,219.5393 c 0.8774,2.4622 4.0659,4.86839 5.68425,5.6442 1.49939,0.71882 3.44305,0.9898 5.18205,0.16977 1.73902,-0.82003 7.62995,-4.67088 7.07678,-6.70515 -3.06137,-4.80739 -16.11385,-4.2723 -17.94308,0.89118 z"
           id="path370"
           inkscape:connector-curvature="0"
           sodipodi:nodetypes="cszcc" />
        <g
           transform="matrix(1.0459034,0,0,1.0459034,5.0837315,-9.0941632)"
           id="g388">
          <g
             transform="matrix(-0.91539016,0,0,0.91539016,-916.66699,-155.12353)"
             id="g378">
            <path
               sodipodi:type="inkscape:offset"
               inkscape:radius="0.22442131"
               inkscape:original="M -885.6875 369.56641 C -891.14132 369.37747 -896.3493 370.06135 -901.21289 371.94531 C -902.95387 372.6197 -904.31004 374.21581 -904.81055 376.69727 C -906.91138 387.11293 -905.39318 393.14773 -901.21875 396.92773 C -890.24861 406.86133 -871.21896 400.64965 -867.4375 396.11133 C -863.63647 391.54952 -854.26096 376.38828 -868.6875 372.42383 C -874.53452 370.81705 -880.23368 369.75534 -885.6875 369.56641 z "
               style="opacity:1;fill:#d40000;fill-opacity:1;stroke:none;stroke-width:0.40000001;stroke-miterlimit:4;stroke-dasharray:none;stroke-dashoffset:0;stroke-opacity:1"
               id="path372"
               d="m -885.67969,369.3418 c -5.47749,-0.18976 -10.71838,0.49768 -15.61523,2.39453 -1.81559,0.70329 -3.22397,2.37582 -3.73633,4.91601 -2.1083,10.45267 -0.58035,16.59981 3.66211,20.44141 5.55018,5.02576 13.12169,5.96035 19.76562,5.07617 3.32197,-0.44209 6.41672,-1.3402 8.92383,-2.41406 2.50711,-1.07386 4.42556,-2.31365 5.41407,-3.5 1.92069,-2.30513 5.22844,-7.24454 6.25781,-12.16602 0.51468,-2.46073 0.45695,-4.92766 -0.66602,-7.03906 -1.12297,-2.1114 -3.30721,-3.84131 -6.95508,-4.84375 -5.85859,-1.60996 -11.57329,-2.67548 -17.05078,-2.86523 z"
               transform="matrix(1.0441737,0,0,1.0441737,39.020114,-17.046113)" />
            <path
               style="opacity:1;fill:#f12f3b;fill-opacity:1;stroke:none;stroke-width:0.40000001;stroke-miterlimit:4;stroke-dasharray:none;stroke-dashoffset:0;stroke-opacity:1"
               d="m -901.21339,371.94616 c 9.72718,-3.76793 20.83185,-2.735 32.52589,0.47855 14.42654,3.96445 5.05103,19.12569 1.25,23.6875 -3.78146,4.53832 -22.81203,10.74924 -33.78217,0.81564 -4.17443,-3.78 -5.69148,-9.81409 -3.59065,-20.22975 0.50051,-2.48146 1.85595,-4.07755 3.59693,-4.75194 z"
               id="path374"
               inkscape:connector-curvature="0"
               sodipodi:nodetypes="ssssss" />
            <path
               style="fill:#f45a60;fill-opacity:1;stroke:none;stroke-width:1px;stroke-linecap:butt;stroke-linejoin:miter;stroke-opacity:1"
               d="m -871.125,363.86147 -23.25,41.75 10.125,3 24.875,-43.75 z m -12.25,0.75 c 0,0 -21.875,37.75 -22.375,38.125 l 8.36719,2.16016 23.25781,-40.28516 z"
               id="path376"
               inkscape:connector-curvature="0"
               clip-path="url(#clipPath1233)" />
          </g>
          <g
             id="g386"
             transform="matrix(0.91539016,0,0,0.91539016,656.65985,-155.12353)">
            <path
               transform="matrix(1.0441737,0,0,1.0441737,39.020114,-17.046113)"
               d="m -885.67969,369.3418 c -5.47749,-0.18976 -10.71838,0.49768 -15.61523,2.39453 -1.81559,0.70329 -3.22397,2.37582 -3.73633,4.91601 -2.1083,10.45267 -0.58035,16.59981 3.66211,20.44141 5.55018,5.02576 13.12169,5.96035 19.76562,5.07617 3.32197,-0.44209 6.41672,-1.3402 8.92383,-2.41406 2.50711,-1.07386 4.42556,-2.31365 5.41407,-3.5 1.92069,-2.30513 5.22844,-7.24454 6.25781,-12.16602 0.51468,-2.46073 0.45695,-4.92766 -0.66602,-7.03906 -1.12297,-2.1114 -3.30721,-3.84131 -6.95508,-4.84375 -5.85859,-1.60996 -11.57329,-2.67548 -17.05078,-2.86523 z"
               id="path380"
               style="opacity:1;fill:#247fa3;fill-opacity:1;stroke:none;stroke-width:0.40000001;stroke-miterlimit:4;stroke-dasharray:none;stroke-dashoffset:0;stroke-opacity:1"
               inkscape:original="M -885.6875 369.56641 C -891.14132 369.37747 -896.3493 370.06135 -901.21289 371.94531 C -902.95387 372.6197 -904.31004 374.21581 -904.81055 376.69727 C -906.91138 387.11293 -905.39318 393.14773 -901.21875 396.92773 C -890.24861 406.86133 -871.21896 400.64965 -867.4375 396.11133 C -863.63647 391.54952 -854.26096 376.38828 -868.6875 372.42383 C -874.53452 370.81705 -880.23368 369.75534 -885.6875 369.56641 z "
               inkscape:radius="0.22442131"
               sodipodi:type="inkscape:offset" />
            <path
               sodipodi:nodetypes="ssssss"
               inkscape:connector-curvature="0"
               id="path382"
               d="m -901.21339,371.94616 c 9.72718,-3.76793 20.83185,-2.735 32.52589,0.47855 14.42654,3.96445 5.05103,19.12569 1.25,23.6875 -3.78146,4.53832 -22.81203,10.74924 -33.78217,0.81564 -4.17443,-3.78 -5.69148,-9.81409 -3.59065,-20.22975 0.50051,-2.48146 1.85595,-4.07755 3.59693,-4.75194 z"
               style="opacity:1;fill:#0698e1;fill-opacity:1;stroke:none;stroke-width:0.40000001;stroke-miterlimit:4;stroke-dasharray:none;stroke-dashoffset:0;stroke-opacity:1" />
            <path
               clip-path="url(#clipPath1233)"
               inkscape:connector-curvature="0"
               id="path384"
               d="m -871.125,363.86147 -23.25,41.75 10.125,3 24.875,-43.75 z m -12.25,0.75 c 0,0 -21.875,37.75 -22.375,38.125 l 8.36719,2.16016 23.25781,-40.28516 z"
               style="fill:#2db0e8;fill-opacity:1;stroke:none;stroke-width:1px;stroke-linecap:butt;stroke-linejoin:miter;stroke-opacity:1" />
          </g>
        </g>
      </g>
    </g>
  </g>
</svg>
